{
.appVersion = "1213";
copyright = "Copyright 2019 The Life Savers Project Authors (https://github.com/laerm0/LifeSavers)";
customParameters = (
{
name = description;
value = "Do you remember the \"Life Savers\" candies ads from the 50s? That was a time when ad agencies actually hired lettering artists for their advertising text. Before the advent of photo typesetting, all the text was beautifully drawn by hand. We are going to put some love to work and bring back the Life Savers hand-lettered Typewritter/Stymie mix. Probably drawn originally by Frazier Purdy for the Sam Marsh Studio.";
},
{
name = openTypeOS2Panose;
value = (
3,
5,
6,
2,
4,
3,
2,
0,
0,
4
);
},
{
name = fsType;
value = (
);
},
{
name = vendorID;
value = pyrs;
},
{
name = blueFuzz;
value = 1;
},
{
name = blueScale;
value = 0;
},
{
name = blueShift;
value = 7;
},
{
name = trademark;
value = "Life Savers is a trademark of Pablo Impallari.";
},
{
name = license;
value = "This Font Software is licensed under the SIL Open Font License, Version 1.1. This license is available with a FAQ at: http://scripts.sil.org/OFL";
},
{
name = licenseURL;
value = "http://scripts.sil.org/OFL";
},
{
name = "Use Typo Metrics";
value = 1;
},
{
name = "Disable Last Change";
value = 1;
},
{
name = "Use Line Breaks";
value = 1;
}
);
date = "2019-02-13 16:02:31 +0000";
designer = "Pablo Impallari, Rodrigo Fuenzalida, Brenda Gallo";
designerURL = "http://www.impallari.com";
familyName = "Life Savers";
featurePrefixes = (
{
automatic = 1;
code = "languagesystem DFLT dflt;
languagesystem latn dflt;
languagesystem latn ROM;
languagesystem latn MOL;
languagesystem latn CAT;
";
name = Languagesystems;
}
);
features = (
{
automatic = 1;
code = "feature sinf;
feature sups;
feature frac;
feature ordn;
feature locl;
feature subs;
";
name = aalt;
},
{
automatic = 1;
code = "sub zero by zeroinferior;
sub one by oneinferior;
sub two by twoinferior;
sub three by threeinferior;
sub four by fourinferior;
sub five by fiveinferior;

glyphs = (
{
glyphname = A;
layers = (
{
anchors = (
{
name = bottom;
position = "{341, 0}";
},
{
name = ogonek;
position = "{663, -40}";
},
{
name = top;
position = "{341, 821}";
}
);
background = {
anchors = (
{
name = bottom;
position = "{341, 0}";
},
{
name = ogonek;
position = "{613, 10}";
},
{
name = top;
position = "{341, 821}";
}
);
paths = (
{
closed = 1;
nodes = (
"361 830 OFFCURVE",
"351 835 OFFCURVE",
"345 835 CURVE SMOOTH",
"335 835 OFFCURVE",
"327 826 OFFCURVE",
"324 816 CURVE SMOOTH",
"283 681 OFFCURVE",
"172 241 OFFCURVE",
"110 69 CURVE SMOOTH",
"101 45 OFFCURVE",
"90 34 OFFCURVE",
"61 31 CURVE SMOOTH",
"51 30 OFFCURVE",
"-2 26 OFFCURVE",
"-30 25 CURVE",
"-43 25 OFFCURVE",
"-50 20 OFFCURVE",
"-50 14 CURVE SMOOTH",
"-50 4 OFFCURVE",
"-39 0 OFFCURVE",
"-27 0 CURVE SMOOTH",
"225 0 LINE SMOOTH",
"251 0 OFFCURVE",
"259 8 OFFCURVE",
"259 15 CURVE SMOOTH",
"259 29 OFFCURVE",
"238 29 OFFCURVE",
"225 29 CURVE",
"195 30 OFFCURVE",
"154 27 OFFCURVE",
"154 45 CURVE SMOOTH",
"154 75 OFFCURVE",
"187 174 OFFCURVE",
"206 238 CURVE",
"477 238 LINE",
"486 202 OFFCURVE",
"538 20 OFFCURVE",
"538 -5 CURVE SMOOTH",
"538 -38 OFFCURVE",
"442 -16 OFFCURVE",
"442 -41 CURVE SMOOTH",
"442 -51 OFFCURVE",
"449 -55 OFFCURVE",
"473 -55 CURVE SMOOTH",
"686 -55 LINE SMOOTH",
"709 -55 OFFCURVE",
"721 -52 OFFCURVE",
"721 -41 CURVE SMOOTH",
"721 -29 OFFCURVE",
"704 -29 OFFCURVE",
"685 -29 CURVE SMOOTH",
"622 -29 OFFCURVE",
"589 -24 OFFCURVE",
"582 3 CURVE SMOOTH",
"365 816 LINE SMOOTH"
);
},
{
closed = 1;
nodes = (
"382 609 OFFCURVE",
"433 405 OFFCURVE",
"465 274 CURVE",
"424 273 OFFCURVE",
"381 272 OFFCURVE",
"340 272 CURVE SMOOTH",
"299 272 OFFCURVE",
"259 273 OFFCURVE",
"218 274 CURVE",
"245 396 OFFCURVE",
"326 673 OFFCURVE",
"343 755 CURVE"
);
}
);
};
layerId = master01;
paths = (
{
closed = 1;
nodes = (
"361 830 OFFCURVE",
"351 835 OFFCURVE",
"345 835 CURVE SMOOTH",
"335 835 OFFCURVE",
"327 826 OFFCURVE",
"324 816 CURVE SMOOTH",
"283 681 OFFCURVE",
"172 241 OFFCURVE",
"110 69 CURVE SMOOTH",
"101 45 OFFCURVE",
"90 34 OFFCURVE",
"61 31 CURVE SMOOTH",
"51 30 OFFCURVE",
"-2 26 OFFCURVE",
"-30 25 CURVE",
"-43 25 OFFCURVE",
"-50 20 OFFCURVE",
"-50 14 CURVE SMOOTH",
"-50 4 OFFCURVE",
"-39 0 OFFCURVE",
"-27 0 CURVE SMOOTH",
"225 0 LINE SMOOTH",
"251 0 OFFCURVE",
"259 8 OFFCURVE",
"259 15 CURVE SMOOTH",
"259 29 OFFCURVE",
"238 29 OFFCURVE",
"225 29 CURVE",
"195 30 OFFCURVE",
"154 27 OFFCURVE",
"154 45 CURVE SMOOTH",
"154 75 OFFCURVE",
"187 174 OFFCURVE",
"206 238 CURVE",
"477 238 LINE",
"486 202 OFFCURVE",
"538 20 OFFCURVE",
"538 -5 CURVE SMOOTH",
"538 -38 OFFCURVE",
"442 -16 OFFCURVE",
"442 -41 CURVE SMOOTH",
"442 -51 OFFCURVE",
"449 -55 OFFCURVE",
"473 -55 CURVE SMOOTH",
"686 -55 LINE SMOOTH",
"709 -55 OFFCURVE",
"721 -52 OFFCURVE",
"721 -41 CURVE SMOOTH",
"721 -29 OFFCURVE",
"704 -29 OFFCURVE",
"685 -29 CURVE SMOOTH",
"622 -29 OFFCURVE",
"589 -24 OFFCURVE",
"582 3 CURVE SMOOTH",
"365 816 LINE SMOOTH"
);
},
{
closed = 1;
nodes = (
"382 609 OFFCURVE",
"433 405 OFFCURVE",
"465 274 CURVE",
"424 273 OFFCURVE",
"381 272 OFFCURVE",
"340 272 CURVE SMOOTH",
"299 272 OFFCURVE",
"259 273 OFFCURVE",
"218 274 CURVE",
"245 396 OFFCURVE",
"326 673 OFFCURVE",
"343 755 CURVE"
);
}
);
width = 681;
},
{
anchors = (
{
name = bottom;
position = "{349, 0}";
},
{
name = ogonek;
position = "{581, -43}";
},
{
name = top;
position = "{349, 821}";
}
);
background = {
anchors = (
{
name = bottom;
position = "{349, 0}";
},
{
name = ogonek;
position = "{628, 10}";
},
{
name = top;
position = "{349, 821}";
}
);
paths = (
{
closed = 1;
nodes = (
"384 830 OFFCURVE",
"372 837 OFFCURVE",
"353 837 CURVE SMOOTH",
"329 837 OFFCURVE",
"320 826 OFFCURVE",
"317 816 CURVE SMOOTH",
"277 685 OFFCURVE",
"167 257 OFFCURVE",
"108 89 CURVE SMOOTH",
"100 65 OFFCURVE",
"87 54 OFFCURVE",
"59 51 CURVE SMOOTH",
"52 50 OFFCURVE",
"7 46 OFFCURVE",
"-12 45 CURVE",
"-25 45 OFFCURVE",
"-37 37 OFFCURVE",
"-37 24 CURVE SMOOTH",
"-37 9 OFFCURVE",
"-26 0 OFFCURVE",
"-14 0 CURVE SMOOTH",
"253 0 LINE SMOOTH",
"279 0 OFFCURVE",
"287 12 OFFCURVE",
"287 24 CURVE SMOOTH",
"287 44 OFFCURVE",
"271 49 OFFCURVE",
"258 49 CURVE SMOOTH",
"228 49 OFFCURVE",
"182 49 OFFCURVE",
"182 65 CURVE SMOOTH",
"182 90 OFFCURVE",
"206 171 OFFCURVE",
"225 223 CURVE",
"473 223 LINE",
"482 192 OFFCURVE",
"526 36 OFFCURVE",
"526 15 CURVE SMOOTH",
"526 -36 OFFCURVE",
"455 -10 OFFCURVE",
"455 -39 CURVE SMOOTH",
"455 -50 OFFCURVE",
"462 -55 OFFCURVE",
"486 -55 CURVE SMOOTH",
"719 -55 LINE SMOOTH",
"742 -55 OFFCURVE",
"754 -50 OFFCURVE",
"754 -31 CURVE SMOOTH",
"754 -12 OFFCURVE",
"732 -9 OFFCURVE",
"713 -9 CURVE SMOOTH",
"650 -9 OFFCURVE",
"608 -8 OFFCURVE",
"600 23 CURVE SMOOTH",
"388 816 LINE SMOOTH"
);
},
{
closed = 1;
nodes = (
"386 580 OFFCURVE",
"426 411 OFFCURVE",
"458 289 CURVE",
"427 288 OFFCURVE",
"394 288 OFFCURVE",
"363 288 CURVE SMOOTH",
"322 288 OFFCURVE",
"285 288 OFFCURVE",
"244 289 CURVE",
"272 402 OFFCURVE",
"338 639 OFFCURVE",
"356 715 CURVE"
);
}
);
};
layerId = "55D4233F-C61B-4F99-8E70-5BC40968EA26";
paths = (
{
closed = 1;
nodes = (
"384 830 OFFCURVE",
"372 837 OFFCURVE",
"353 837 CURVE SMOOTH",
"329 837 OFFCURVE",
"320 826 OFFCURVE",
"317 816 CURVE SMOOTH",
"277 685 OFFCURVE",
"167 257 OFFCURVE",
"108 89 CURVE SMOOTH",
"100 65 OFFCURVE",
"87 54 OFFCURVE",
"59 51 CURVE SMOOTH",
"52 50 OFFCURVE",
"7 46 OFFCURVE",
"-12 45 CURVE",
"-25 45 OFFCURVE",
"-37 37 OFFCURVE",
"-37 24 CURVE SMOOTH",
"-37 9 OFFCURVE",
"-26 0 OFFCURVE",
"-14 0 CURVE SMOOTH",
"253 0 LINE SMOOTH",
"279 0 OFFCURVE",
"287 12 OFFCURVE",
"287 24 CURVE SMOOTH",
"287 44 OFFCURVE",
"271 49 OFFCURVE",
"258 49 CURVE SMOOTH",
"228 49 OFFCURVE",
"182 49 OFFCURVE",
"182 65 CURVE SMOOTH",
"182 90 OFFCURVE",
"206 171 OFFCURVE",
"225 223 CURVE",
"473 223 LINE",
"482 192 OFFCURVE",
"526 36 OFFCURVE",
"526 15 CURVE SMOOTH",
"526 -36 OFFCURVE",
"455 -10 OFFCURVE",
"455 -39 CURVE SMOOTH",
"455 -50 OFFCURVE",
"462 -55 OFFCURVE",
"486 -55 CURVE SMOOTH",
"719 -55 LINE SMOOTH",
"742 -55 OFFCURVE",
"754 -50 OFFCURVE",
"754 -31 CURVE SMOOTH",
"754 -12 OFFCURVE",
"732 -9 OFFCURVE",
"713 -9 CURVE SMOOTH",
"650 -9 OFFCURVE",
"608 -8 OFFCURVE",
"600 23 CURVE SMOOTH",
"388 816 LINE SMOOTH"
);
},
{
closed = 1;
nodes = (
"386 580 OFFCURVE",
"426 411 OFFCURVE",
"458 289 CURVE",
"427 288 OFFCURVE",
"394 288 OFFCURVE",
"363 288 CURVE SMOOTH",
"322 288 OFFCURVE",
"285 288 OFFCURVE",
"244 289 CURVE",
"272 402 OFFCURVE",
"338 639 OFFCURVE",
"356 715 CURVE"
);
}
);
width = 698;
},
{
anchors = (
{
name = bottom;
position = "{355, 0}";
},
{
name = ogonek;
position = "{609, -40}";
},
{
name = top;
position = "{355, 821}";
}
);
layerId = "CC5A7AC7-F03F-47C7-BE3A-F4FB7F44F819";
paths = (
{
closed = 1;
nodes = (
"402 823 OFFCURVE",
"387 838 OFFCURVE",
"359 838 CURVE SMOOTH",
"325 838 OFFCURVE",
"314 822 OFFCURVE",
"305 792 CURVE SMOOTH",
"266 663 OFFCURVE",
"164 267 OFFCURVE",
"107 101 CURVE SMOOTH",
"98 74 OFFCURVE",
"82 66 OFFCURVE",
"58 63 CURVE SMOOTH",
"52 62 OFFCURVE",
"6 57 OFFCURVE",
"1 57 CURVE SMOOTH",
"-12 57 OFFCURVE",
"-28 47 OFFCURVE",
"-28 30 CURVE SMOOTH",
"-28 12 OFFCURVE",
"-17 0 OFFCURVE",
"-5 0 CURVE SMOOTH",
"273 0 LINE SMOOTH",
"299 0 OFFCURVE",
"307 14 OFFCURVE",
"307 29 CURVE SMOOTH",
"307 53 OFFCURVE",
"295 61 OFFCURVE",
"274 61 CURVE SMOOTH",
"228 61 OFFCURVE",
"202 66 OFFCURVE",
"202 77 CURVE SMOOTH",
"202 99 OFFCURVE",
"219 169 OFFCURVE",
"238 214 CURVE",
"470 214 LINE",
"479 186 OFFCURVE",
"517 54 OFFCURVE",
"517 35 CURVE SMOOTH",
"517 -22 OFFCURVE",
"464 9 OFFCURVE",
"464 -33 CURVE SMOOTH",
"464 -44 OFFCURVE",
"471 -55 OFFCURVE",
"495 -55 CURVE SMOOTH {name = hr01;}",
"742 -55 LINE SMOOTH",
"765 -55 OFFCURVE",
"777 -49 OFFCURVE",
"777 -25 CURVE SMOOTH",
"777 -2 OFFCURVE",
"752 3 OFFCURVE",
"733 3 CURVE SMOOTH",
"636 3 OFFCURVE",
"619 11 OFFCURVE",
"613 35 CURVE SMOOTH",
"410 793 LINE SMOOTH"
);
},
{
closed = 1;
nodes = (
"386 563 OFFCURVE",
"421 415 OFFCURVE",
"453 298 CURVE",
"429 297 OFFCURVE",
"382 296 OFFCURVE",
"358 296 CURVE SMOOTH",
"317 296 OFFCURVE",
"303 297 OFFCURVE",
"262 298 CURVE",
"291 406 OFFCURVE",
"343 619 OFFCURVE",
"362 691 CURVE"
);
}
);
width = 710;
}
);
leftKerningGroup = _KERN_A;
rightKerningGroup = _KERN_A;
unicode = 0041;
},
{
glyphname = Aacute;
layers = (
{
background = {
components = (
{
name = acutecomb.case;
}
);
paths = (
{
closed = 1;
nodes = (
"361 830 OFFCURVE",
"351 835 OFFCURVE",
"345 835 CURVE SMOOTH",
"335 835 OFFCURVE",
"327 826 OFFCURVE",
"324 816 CURVE SMOOTH",
"283 681 OFFCURVE",
"172 241 OFFCURVE",
"110 69 CURVE SMOOTH",
"101 45 OFFCURVE",
"90 34 OFFCURVE",
"61 31 CURVE SMOOTH",
"51 30 OFFCURVE",
"-2 26 OFFCURVE",
"-30 25 CURVE",
"-43 25 OFFCURVE",
"-50 20 OFFCURVE",
"-50 14 CURVE SMOOTH",
"-50 4 OFFCURVE",
"-39 0 OFFCURVE",
"-27 0 CURVE SMOOTH",
"225 0 LINE SMOOTH",
"251 0 OFFCURVE",
"259 8 OFFCURVE",
"259 15 CURVE SMOOTH",
"259 29 OFFCURVE",
"238 29 OFFCURVE",
"225 29 CURVE",
"195 30 OFFCURVE",
"154 27 OFFCURVE",
"154 45 CURVE SMOOTH",
"154 75 OFFCURVE",
"187 174 OFFCURVE",
"206 238 CURVE",
"477 238 LINE",
"486 202 OFFCURVE",
"538 20 OFFCURVE",
"538 -5 CURVE SMOOTH",
"538 -38 OFFCURVE",
"442 -16 OFFCURVE",
"442 -41 CURVE SMOOTH",
"442 -51 OFFCURVE",
"449 -55 OFFCURVE",
"473 -55 CURVE SMOOTH",
"686 -55 LINE SMOOTH",
"709 -55 OFFCURVE",
"721 -52 OFFCURVE",
"721 -41 CURVE SMOOTH",
"721 -29 OFFCURVE",
"704 -29 OFFCURVE",
"685 -29 CURVE SMOOTH",
"622 -29 OFFCURVE",
"589 -24 OFFCURVE",
"582 3 CURVE SMOOTH",
"365 816 LINE SMOOTH"
);
},
{
closed = 1;
nodes = (
"382 609 OFFCURVE",
"433 405 OFFCURVE",
"465 274 CURVE",
"424 273 OFFCURVE",
"381 272 OFFCURVE",
"340 272 CURVE SMOOTH",
"299 272 OFFCURVE",
"259 273 OFFCURVE",
"218 274 CURVE",
"245 396 OFFCURVE",
"326 673 OFFCURVE",
"343 755 CURVE"
);
}
);
};
components = (
{
name = A;
},
{
name = acutecomb.case;
transform = "{1, 0, 0, 1, -3, 0}";
}
);
layerId = master01;
width = 681;
},
{
background = {
components = (
{
name = A;
},
{
name = acutecomb.case;
}
);
};
components = (
{
name = A;
},
{
name = acutecomb.case;
transform = "{1, 0, 0, 1, 13, 0}";
}
);
layerId = "55D4233F-C61B-4F99-8E70-5BC40968EA26";
width = 698;
},
{
background = {
components = (
{
name = acutecomb.case;
}
);
paths = (
{
closed = 1;
nodes = (
"402 823 OFFCURVE",
"387 838 OFFCURVE",
"359 838 CURVE SMOOTH",
"325 838 OFFCURVE",
"314 822 OFFCURVE",
"305 792 CURVE SMOOTH",
"266 663 OFFCURVE",
"164 267 OFFCURVE",
"107 101 CURVE SMOOTH",
"98 74 OFFCURVE",
"82 66 OFFCURVE",
"58 63 CURVE SMOOTH",
"52 62 OFFCURVE",
"6 57 OFFCURVE",
"1 57 CURVE SMOOTH",
"-12 57 OFFCURVE",
"-28 47 OFFCURVE",
"-28 30 CURVE SMOOTH",
"-28 12 OFFCURVE",
"-17 0 OFFCURVE",
"-5 0 CURVE SMOOTH",
"273 0 LINE SMOOTH",
"299 0 OFFCURVE",
"307 14 OFFCURVE",
"307 29 CURVE SMOOTH",
"307 53 OFFCURVE",
"295 61 OFFCURVE",
"274 61 CURVE SMOOTH",
"228 61 OFFCURVE",
"202 66 OFFCURVE",
"202 77 CURVE SMOOTH",
"202 99 OFFCURVE",
"219 169 OFFCURVE",
"238 214 CURVE",
"470 214 LINE",
"479 186 OFFCURVE",
"517 54 OFFCURVE",
"517 35 CURVE SMOOTH",
"517 -22 OFFCURVE",
"464 9 OFFCURVE",
"464 -33 CURVE SMOOTH",
"464 -44 OFFCURVE",
"471 -55 OFFCURVE",
"495 -55 CURVE SMOOTH {name = hr01;}",
"742 -55 LINE SMOOTH",
"765 -55 OFFCURVE",
"777 -49 OFFCURVE",
"777 -25 CURVE SMOOTH",
"777 -2 OFFCURVE",
"752 3 OFFCURVE",
"733 3 CURVE SMOOTH",
"636 3 OFFCURVE",
"619 11 OFFCURVE",
"613 35 CURVE SMOOTH",
"410 793 LINE SMOOTH"
);
},
{
closed = 1;
nodes = (
"386 563 OFFCURVE",
"421 415 OFFCURVE",
"453 298 CURVE",
"429 297 OFFCURVE",
"382 296 OFFCURVE",
"358 296 CURVE SMOOTH",
"317 296 OFFCURVE",
"303 297 OFFCURVE",
"262 298 CURVE",
"291 406 OFFCURVE",
"343 619 OFFCURVE",
"362 691 CURVE"
);
}
);
};
components = (
{
name = A;
},
{
name = acutecomb.case;
transform = "{1, 0, 0, 1, -17, 0}";
}
);
layerId = "CC5A7AC7-F03F-47C7-BE3A-F4FB7F44F819";
width = 710;
}
);
leftKerningGroup = _KERN_A;
rightKerningGroup = _KERN_A;
unicode = 00C1;
},
{
glyphname = Abreve;
layers = (
{
background = {
components = (
{
name = brevecomb.case;
}
);
paths = (
{
closed = 1;
nodes = (
"361 830 OFFCURVE",
"351 835 OFFCURVE",
"345 835 CURVE SMOOTH",
"335 835 OFFCURVE",
"327 826 OFFCURVE",
"324 816 CURVE SMOOTH",
"283 681 OFFCURVE",
"172 241 OFFCURVE",
"110 69 CURVE SMOOTH",
"101 45 OFFCURVE",
"90 34 OFFCURVE",
"61 31 CURVE SMOOTH",
"51 30 OFFCURVE",
"-2 26 OFFCURVE",
"-30 25 CURVE",
"-43 25 OFFCURVE",
"-50 20 OFFCURVE",
"-50 14 CURVE SMOOTH",
"-50 4 OFFCURVE",
"-39 0 OFFCURVE",
"-27 0 CURVE SMOOTH",
"225 0 LINE SMOOTH",
"251 0 OFFCURVE",
"259 8 OFFCURVE",
"259 15 CURVE SMOOTH",
"259 29 OFFCURVE",
"238 29 OFFCURVE",
"225 29 CURVE",
"195 30 OFFCURVE",
"154 27 OFFCURVE",
"154 45 CURVE SMOOTH",
"154 75 OFFCURVE",
"187 174 OFFCURVE",
"206 238 CURVE",
"477 238 LINE",
"486 202 OFFCURVE",
"538 20 OFFCURVE",
"538 -5 CURVE SMOOTH",
"538 -38 OFFCURVE",
"442 -16 OFFCURVE",
"442 -41 CURVE SMOOTH",
"442 -51 OFFCURVE",
"449 -55 OFFCURVE",
"473 -55 CURVE SMOOTH",
"686 -55 LINE SMOOTH",
"709 -55 OFFCURVE",
"721 -52 OFFCURVE",
"721 -41 CURVE SMOOTH",
"721 -29 OFFCURVE",
"704 -29 OFFCURVE",
"685 -29 CURVE SMOOTH",
"622 -29 OFFCURVE",
"589 -24 OFFCURVE",
"582 3 CURVE SMOOTH",
"365 816 LINE SMOOTH"
);
},
{
closed = 1;
nodes = (
"382 609 OFFCURVE",
"433 405 OFFCURVE",
"465 274 CURVE",
"424 273 OFFCURVE",
"381 272 OFFCURVE",
"340 272 CURVE SMOOTH",
"299 272 OFFCURVE",
"259 273 OFFCURVE",
"218 274 CURVE",
"245 396 OFFCURVE",
"326 673 OFFCURVE",
"343 755 CURVE"
);
}
);
};
components = (
{
name = A;
},
{
name = brevecomb.case;
transform = "{1, 0, 0, 1, -3, 0}";
}
);
layerId = master01;
width = 681;
},
{
anchors = (
{
name = _top;
position = "{367, 865}";
}
);
background = {
anchors = (
{
name = _top;
position = "{367, 865}";
}
);
components = (
{
name = A;
}
);
paths = (
{
closed = 1;
nodes = (
"480 970 OFFCURVE",
"463 972 OFFCURVE",
"450 972 CURVE SMOOTH",
"435 972 OFFCURVE",
"424 960 OFFCURVE",
"424 945 CURVE SMOOTH",
"424 928 OFFCURVE",
"398 910 OFFCURVE",
"360 910 CURVE SMOOTH {name = hr01;}",
"330 910 OFFCURVE",
"295 919 OFFCURVE",
"295 945 CURVE SMOOTH",
"295 965 OFFCURVE",
"286 972 OFFCURVE",
"267 972 CURVE SMOOTH {name = hr02;}",
"250 972 OFFCURVE",
"241 961 OFFCURVE",
"241 944 CURVE SMOOTH",
"241 903 OFFCURVE",
"288 865 OFFCURVE",
"363 865 CURVE SMOOTH",
"415 865 OFFCURVE",
"480 893 OFFCURVE",
"480 944 CURVE SMOOTH"
);
}
);
};
components = (
{
name = A;
},
{
name = brevecomb.case;
transform = "{1, 0, 0, 1, 9, 0}";
}
);
layerId = "55D4233F-C61B-4F99-8E70-5BC40968EA26";
width = 698;
},
{
background = {
components = (
{
name = brevecomb.case;
}
);
paths = (
{
closed = 1;
nodes = (
"386 563 OFFCURVE",
"421 415 OFFCURVE",
"453 298 CURVE",
"429 297 OFFCURVE",
"382 296 OFFCURVE",
"358 296 CURVE SMOOTH",
"317 296 OFFCURVE",
"303 297 OFFCURVE",
"262 298 CURVE",
"291 406 OFFCURVE",
"343 619 OFFCURVE",
"362 691 CURVE"
);
},
{
closed = 1;
nodes = (
"495 967 OFFCURVE",
"477 971 OFFCURVE",
"457 971 CURVE SMOOTH",
"440 971 OFFCURVE",
"425 957 OFFCURVE",
"425 942 CURVE SMOOTH",
"425 931 OFFCURVE",
"408 919 OFFCURVE",
"369 919 CURVE SMOOTH {name = hr02;}",
"344 919 OFFCURVE",
"310 925 OFFCURVE",
"310 942 CURVE SMOOTH",
"310 964 OFFCURVE",
"297 971 OFFCURVE",
"274 971 CURVE SMOOTH {name = hr03;}",
"252 971 OFFCURVE",
"242 958 OFFCURVE",
"242 941 CURVE SMOOTH",
"242 899 OFFCURVE",
"288 862 OFFCURVE",
"374 862 CURVE SMOOTH",
"426 862 OFFCURVE",
"495 889 OFFCURVE",
"495 941 CURVE SMOOTH"
);
}
);
};
components = (
{
name = A;
},
{
name = brevecomb.case;
transform = "{1, 0, 0, 1, -27, 0}";
}
);
layerId = "CC5A7AC7-F03F-47C7-BE3A-F4FB7F44F819";
width = 710;
}
);
leftKerningGroup = _KERN_A;
rightKerningGroup = _KERN_A;
unicode = 0102;
},
{
glyphname = Acircumflex;
layers = (
{
background = {
components = (
{
name = circumflexcomb.case;
}
);
paths = (
{
closed = 1;
nodes = (
"361 830 OFFCURVE",
"351 835 OFFCURVE",
"345 835 CURVE SMOOTH",
"335 835 OFFCURVE",
"327 826 OFFCURVE",
"324 816 CURVE SMOOTH",
"283 681 OFFCURVE",
"172 241 OFFCURVE",
"110 69 CURVE SMOOTH",
"101 45 OFFCURVE",
"90 34 OFFCURVE",
"61 31 CURVE SMOOTH",
"51 30 OFFCURVE",
"-2 26 OFFCURVE",
"-30 25 CURVE",
"-43 25 OFFCURVE",
"-50 20 OFFCURVE",
"-50 14 CURVE SMOOTH",
"-50 4 OFFCURVE",
"-39 0 OFFCURVE",
"-27 0 CURVE SMOOTH",
"225 0 LINE SMOOTH",
"251 0 OFFCURVE",
"259 8 OFFCURVE",
"259 15 CURVE SMOOTH",
"259 29 OFFCURVE",
"238 29 OFFCURVE",
"225 29 CURVE",
"195 30 OFFCURVE",
"154 27 OFFCURVE",
"154 45 CURVE SMOOTH",
"154 75 OFFCURVE",
"187 174 OFFCURVE",
"206 238 CURVE",
"477 238 LINE",
"486 202 OFFCURVE",
"538 20 OFFCURVE",
"538 -5 CURVE SMOOTH",
"538 -38 OFFCURVE",
"442 -16 OFFCURVE",
"442 -41 CURVE SMOOTH",
"442 -51 OFFCURVE",
"449 -55 OFFCURVE",
"473 -55 CURVE SMOOTH",
"686 -55 LINE SMOOTH",
"709 -55 OFFCURVE",
"721 -52 OFFCURVE",
"721 -41 CURVE SMOOTH",
"721 -29 OFFCURVE",
"704 -29 OFFCURVE",
"685 -29 CURVE SMOOTH",
"622 -29 OFFCURVE",
"589 -24 OFFCURVE",
"582 3 CURVE SMOOTH",
"365 816 LINE SMOOTH"
);
},
{
closed = 1;
nodes = (
"382 609 OFFCURVE",
"433 405 OFFCURVE",
"465 274 CURVE",
"424 273 OFFCURVE",
"381 272 OFFCURVE",
"340 272 CURVE SMOOTH",
"299 272 OFFCURVE",
"259 273 OFFCURVE",
"218 274 CURVE",
"245 396 OFFCURVE",
"326 673 OFFCURVE",
"343 755 CURVE"
);
}
);
};
components = (
{
name = A;
},
{
name = circumflexcomb.case;
transform = "{1, 0, 0, 1, -4, 0}";
}
);
layerId = master01;
width = 681;
},
{
background = {
components = (
{
name = A;
},
{
name = circumflexcomb.case;
}
);
};
components = (
{
name = A;
},
{
name = circumflexcomb.case;
transform = "{1, 0, 0, 1, -18, 0}";
}
);
layerId = "55D4233F-C61B-4F99-8E70-5BC40968EA26";
width = 698;
},
{
background = {
components = (
{
name = circumflexcomb.case;
}
);
paths = (
{
closed = 1;
nodes = (
"402 823 OFFCURVE",
"387 838 OFFCURVE",
"359 838 CURVE SMOOTH {name = hr01;}",
"325 838 OFFCURVE",
"314 822 OFFCURVE",
"305 792 CURVE SMOOTH",
"266 663 OFFCURVE",
"164 267 OFFCURVE",
"107 101 CURVE SMOOTH",
"98 74 OFFCURVE",
"82 66 OFFCURVE",
"58 63 CURVE SMOOTH",
"52 62 OFFCURVE",
"6 57 OFFCURVE",
"1 57 CURVE SMOOTH",
"-12 57 OFFCURVE",
"-28 47 OFFCURVE",
"-28 30 CURVE SMOOTH",
"-28 12 OFFCURVE",
"-17 0 OFFCURVE",
"-5 0 CURVE SMOOTH",
"273 0 LINE SMOOTH",
"299 0 OFFCURVE",
"307 14 OFFCURVE",
"307 29 CURVE SMOOTH",
"307 53 OFFCURVE",
"295 61 OFFCURVE",
"274 61 CURVE SMOOTH",
"228 61 OFFCURVE",
"202 66 OFFCURVE",
"202 77 CURVE SMOOTH",
"202 99 OFFCURVE",
"219 169 OFFCURVE",
"238 214 CURVE",
"470 214 LINE",
"479 186 OFFCURVE",
"517 54 OFFCURVE",
"517 35 CURVE SMOOTH",
"517 -22 OFFCURVE",
"464 9 OFFCURVE",
"464 -33 CURVE SMOOTH",
"464 -44 OFFCURVE",
"471 -55 OFFCURVE",
"495 -55 CURVE SMOOTH {name = hr02;}",
"742 -55 LINE SMOOTH",
"765 -55 OFFCURVE",
"777 -49 OFFCURVE",
"777 -25 CURVE SMOOTH",
"777 -2 OFFCURVE",
"752 3 OFFCURVE",
"733 3 CURVE SMOOTH",
"636 3 OFFCURVE",
"619 11 OFFCURVE",
"613 35 CURVE SMOOTH",
"410 793 LINE SMOOTH"
);
},
{
closed = 1;
nodes = (
"386 563 OFFCURVE",
"421 415 OFFCURVE",
"453 298 CURVE",
"429 297 OFFCURVE",
"382 296 OFFCURVE",
"358 296 CURVE SMOOTH",
"317 296 OFFCURVE",
"303 297 OFFCURVE",
"262 298 CURVE",
"291 406 OFFCURVE",
"343 619 OFFCURVE",
"362 691 CURVE"
);
}
);
};
components = (
{
name = A;
},
{
name = circumflexcomb.case;
transform = "{1, 0, 0, 1, -14, 0}";
}
);
layerId = "CC5A7AC7-F03F-47C7-BE3A-F4FB7F44F819";
width = 710;
}
);
leftKerningGroup = _KERN_A;
rightKerningGroup = _KERN_A;
unicode = 00C2;
},
{
glyphname = Adieresis;
layers = (
{
background = {
components = (
{
name = dieresiscomb.case;
}
);
paths = (
{
closed = 1;
nodes = (
"361 830 OFFCURVE",
"351 835 OFFCURVE",
"345 835 CURVE SMOOTH",
"335 835 OFFCURVE",
"327 826 OFFCURVE",
"324 816 CURVE SMOOTH",
"283 681 OFFCURVE",
"172 241 OFFCURVE",
"110 69 CURVE SMOOTH",
"101 45 OFFCURVE",
"90 34 OFFCURVE",
"61 31 CURVE SMOOTH",
"51 30 OFFCURVE",
"-2 26 OFFCURVE",
"-30 25 CURVE",
"-43 25 OFFCURVE",
"-50 20 OFFCURVE",
"-50 14 CURVE SMOOTH",
"-50 4 OFFCURVE",
"-39 0 OFFCURVE",
"-27 0 CURVE SMOOTH",
"225 0 LINE SMOOTH",
"251 0 OFFCURVE",
"259 8 OFFCURVE",
"259 15 CURVE SMOOTH",
"259 29 OFFCURVE",
"238 29 OFFCURVE",
"225 29 CURVE",
"195 30 OFFCURVE",
"154 27 OFFCURVE",
"154 45 CURVE SMOOTH",
"154 75 OFFCURVE",
"187 174 OFFCURVE",
"206 238 CURVE",
"477 238 LINE",
"486 202 OFFCURVE",
"538 20 OFFCURVE",
"538 -5 CURVE SMOOTH",
"538 -38 OFFCURVE",
"442 -16 OFFCURVE",
"442 -41 CURVE SMOOTH",
"442 -51 OFFCURVE",
"449 -55 OFFCURVE",
"473 -55 CURVE SMOOTH",
"686 -55 LINE SMOOTH",
"709 -55 OFFCURVE",
"721 -52 OFFCURVE",
"721 -41 CURVE SMOOTH",
"721 -29 OFFCURVE",
"704 -29 OFFCURVE",
"685 -29 CURVE SMOOTH",
"622 -29 OFFCURVE",
"589 -24 OFFCURVE",
"582 3 CURVE SMOOTH",
"365 816 LINE SMOOTH"
);
},
{
closed = 1;
nodes = (
"382 609 OFFCURVE",
"433 405 OFFCURVE",
"465 274 CURVE",
"424 273 OFFCURVE",
"381 272 OFFCURVE",
"340 272 CURVE SMOOTH",
"299 272 OFFCURVE",
"259 273 OFFCURVE",
"218 274 CURVE",
"245 396 OFFCURVE",
"326 673 OFFCURVE",
"343 755 CURVE"
);
}
);
};
components = (
{
name = A;
},
{
name = dieresiscomb.case;
transform = "{1, 0, 0, 1, -5, 0}";
}
);
layerId = master01;
width = 681;
},
{
background = {
components = (
{
name = A;
},
{
name = dieresiscomb.case;
}
);
};
components = (
{
name = A;
},
{
name = dieresiscomb.case;
}
);
layerId = "55D4233F-C61B-4F99-8E70-5BC40968EA26";
width = 698;
},
{
background = {
components = (
{
name = dieresiscomb.case;
}
);
paths = (
{
closed = 1;
nodes = (
"402 823 OFFCURVE",
"387 838 OFFCURVE",
"359 838 CURVE SMOOTH {name = hr01;}",
"325 838 OFFCURVE",
"314 822 OFFCURVE",
"305 792 CURVE SMOOTH",
"266 663 OFFCURVE",
"164 267 OFFCURVE",
"107 101 CURVE SMOOTH",
"98 74 OFFCURVE",
"82 66 OFFCURVE",
"58 63 CURVE SMOOTH",
"52 62 OFFCURVE",
"6 57 OFFCURVE",
"1 57 CURVE SMOOTH",
"-12 57 OFFCURVE",
"-28 47 OFFCURVE",
"-28 30 CURVE SMOOTH",
"-28 12 OFFCURVE",
"-17 0 OFFCURVE",
"-5 0 CURVE SMOOTH",
"273 0 LINE SMOOTH",
"299 0 OFFCURVE",
"307 14 OFFCURVE",
"307 29 CURVE SMOOTH",
"307 53 OFFCURVE",
"295 61 OFFCURVE",
"274 61 CURVE SMOOTH",
"228 61 OFFCURVE",
"202 66 OFFCURVE",
"202 77 CURVE SMOOTH",
"202 99 OFFCURVE",
"219 169 OFFCURVE",
"238 214 CURVE",
"470 214 LINE",
"479 186 OFFCURVE",
"517 54 OFFCURVE",
"517 35 CURVE SMOOTH",
"517 -22 OFFCURVE",
"464 9 OFFCURVE",
"464 -33 CURVE SMOOTH",
"464 -44 OFFCURVE",
"471 -55 OFFCURVE",
"495 -55 CURVE SMOOTH {name = hr02;}",
"742 -55 LINE SMOOTH",
"765 -55 OFFCURVE",
"777 -49 OFFCURVE",
"777 -25 CURVE SMOOTH",
"777 -2 OFFCURVE",
"752 3 OFFCURVE",
"733 3 CURVE SMOOTH",
"636 3 OFFCURVE",
"619 11 OFFCURVE",
"613 35 CURVE SMOOTH",
"410 793 LINE SMOOTH"
);
},
{
closed = 1;
nodes = (
"386 563 OFFCURVE",
"421 415 OFFCURVE",
"453 298 CURVE",
"429 297 OFFCURVE",
"382 296 OFFCURVE",
"358 296 CURVE SMOOTH",
"317 296 OFFCURVE",
"303 297 OFFCURVE",
"262 298 CURVE",
"291 406 OFFCURVE",
"343 619 OFFCURVE",
"362 691 CURVE"
);
}
);
};
components = (
{
name = A;
},
{
name = dieresiscomb.case;
transform = "{1, 0, 0, 1, -39, 0}";
}
);
layerId = "CC5A7AC7-F03F-47C7-BE3A-F4FB7F44F819";
width = 710;
}
);
leftKerningGroup = _KERN_A;
rightKerningGroup = _KERN_A;
unicode = 00C4;
},
{
glyphname = Agrave;
layers = (
{
background = {
components = (
{
name = gravecomb.case;
}
);
paths = (
{
closed = 1;
nodes = (
"361 830 OFFCURVE",
"351 835 OFFCURVE",
"345 835 CURVE SMOOTH",
"335 835 OFFCURVE",
"327 826 OFFCURVE",
"324 816 CURVE SMOOTH",
"283 681 OFFCURVE",
"172 241 OFFCURVE",
"110 69 CURVE SMOOTH",
"101 45 OFFCURVE",
"90 34 OFFCURVE",
"61 31 CURVE SMOOTH",
"51 30 OFFCURVE",
"-2 26 OFFCURVE",
"-30 25 CURVE",
"-43 25 OFFCURVE",
"-50 20 OFFCURVE",
"-50 14 CURVE SMOOTH",
"-50 4 OFFCURVE",
"-39 0 OFFCURVE",
"-27 0 CURVE SMOOTH",
"225 0 LINE SMOOTH",
"251 0 OFFCURVE",
"259 8 OFFCURVE",
"259 15 CURVE SMOOTH",
"259 29 OFFCURVE",
"238 29 OFFCURVE",
"225 29 CURVE",
"195 30 OFFCURVE",
"154 27 OFFCURVE",
"154 45 CURVE SMOOTH",
"154 75 OFFCURVE",
"187 174 OFFCURVE",
"206 238 CURVE",
"477 238 LINE",
"486 202 OFFCURVE",
"538 20 OFFCURVE",
"538 -5 CURVE SMOOTH",
"538 -38 OFFCURVE",
"442 -16 OFFCURVE",
"442 -41 CURVE SMOOTH",
"442 -51 OFFCURVE",
"449 -55 OFFCURVE",
"473 -55 CURVE SMOOTH",
"686 -55 LINE SMOOTH",
"709 -55 OFFCURVE",
"721 -52 OFFCURVE",
"721 -41 CURVE SMOOTH",
"721 -29 OFFCURVE",
"704 -29 OFFCURVE",
"685 -29 CURVE SMOOTH",
"622 -29 OFFCURVE",
"589 -24 OFFCURVE",
"582 3 CURVE SMOOTH",
"365 816 LINE SMOOTH"
);
},
{
closed = 1;
nodes = (
"382 609 OFFCURVE",
"433 405 OFFCURVE",
"465 274 CURVE",
"424 273 OFFCURVE",
"381 272 OFFCURVE",
"340 272 CURVE SMOOTH",
"299 272 OFFCURVE",
"259 273 OFFCURVE",
"218 274 CURVE",
"245 396 OFFCURVE",
"326 673 OFFCURVE",
"343 755 CURVE"
);
}
);
};
components = (
{
name = A;
},
{
name = gravecomb.case;
transform = "{1, 0, 0, 1, -4, 0}";
}
);
layerId = master01;
width = 681;
},
{
background = {
components = (
{
name = A;
},
{
name = gravecomb.case;
}
);
};
components = (
{
name = A;
},
{
name = gravecomb.case;
}
);
layerId = "55D4233F-C61B-4F99-8E70-5BC40968EA26";
width = 698;
},
{
background = {
components = (
{
name = gravecomb.case;
}
);
paths = (
{
closed = 1;
nodes = (
"402 823 OFFCURVE",
"387 838 OFFCURVE",
"359 838 CURVE SMOOTH",
"325 838 OFFCURVE",
"314 822 OFFCURVE",
"305 792 CURVE SMOOTH",
"266 663 OFFCURVE",
"164 267 OFFCURVE",
"107 101 CURVE SMOOTH",
"98 74 OFFCURVE",
"82 66 OFFCURVE",
"58 63 CURVE SMOOTH",
"52 62 OFFCURVE",
"6 57 OFFCURVE",
"1 57 CURVE SMOOTH",
"-12 57 OFFCURVE",
"-28 47 OFFCURVE",
"-28 30 CURVE SMOOTH",
"-28 12 OFFCURVE",
"-17 0 OFFCURVE",
"-5 0 CURVE SMOOTH",
"273 0 LINE SMOOTH",
"299 0 OFFCURVE",
"307 14 OFFCURVE",
"307 29 CURVE SMOOTH",
"307 53 OFFCURVE",
"295 61 OFFCURVE",
"274 61 CURVE SMOOTH",
"228 61 OFFCURVE",
"202 66 OFFCURVE",
"202 77 CURVE SMOOTH",
"202 99 OFFCURVE",
"219 169 OFFCURVE",
"238 214 CURVE",
"470 214 LINE",
"479 186 OFFCURVE",
"517 54 OFFCURVE",
"517 35 CURVE SMOOTH",
"517 -22 OFFCURVE",
"464 9 OFFCURVE",
"464 -33 CURVE SMOOTH",
"464 -44 OFFCURVE",
"471 -55 OFFCURVE",
"495 -55 CURVE SMOOTH {name = hr01;}",
"742 -55 LINE SMOOTH",
"765 -55 OFFCURVE",
"777 -49 OFFCURVE",
"777 -25 CURVE SMOOTH",
"777 -2 OFFCURVE",
"752 3 OFFCURVE",
"733 3 CURVE SMOOTH",
"636 3 OFFCURVE",
"619 11 OFFCURVE",
"613 35 CURVE SMOOTH",
"410 793 LINE SMOOTH"
);
},
{
closed = 1;
nodes = (
"386 563 OFFCURVE",
"421 415 OFFCURVE",
"453 298 CURVE",
"429 297 OFFCURVE",
"382 296 OFFCURVE",
"358 296 CURVE SMOOTH",
"317 296 OFFCURVE",
"303 297 OFFCURVE",
"262 298 CURVE",
"291 406 OFFCURVE",
"343 619 OFFCURVE",
"362 691 CURVE"
);
}
);
};
components = (
{
name = A;
},
{
name = gravecomb.case;
transform = "{1, 0, 0, 1, -46, 0}";
}
);
layerId = "CC5A7AC7-F03F-47C7-BE3A-F4FB7F44F819";
width = 710;
}
);
leftKerningGroup = _KERN_A;
rightKerningGroup = _KERN_A;
unicode = 00C0;
},
{
glyphname = Amacron;
layers = (
{
background = {
components = (
{
name = macroncomb.case;
}
);
paths = (
{
closed = 1;
nodes = (
"361 830 OFFCURVE",
"351 835 OFFCURVE",
"345 835 CURVE SMOOTH",
"335 835 OFFCURVE",
"327 826 OFFCURVE",
"324 816 CURVE SMOOTH",
"283 681 OFFCURVE",
"172 241 OFFCURVE",
"110 69 CURVE SMOOTH",
"101 45 OFFCURVE",
"90 34 OFFCURVE",
"61 31 CURVE SMOOTH",
"51 30 OFFCURVE",
"-2 26 OFFCURVE",
"-30 25 CURVE",
"-43 25 OFFCURVE",
"-50 20 OFFCURVE",
"-50 14 CURVE SMOOTH",
"-50 4 OFFCURVE",
"-39 0 OFFCURVE",
"-27 0 CURVE SMOOTH",
"225 0 LINE SMOOTH",
"251 0 OFFCURVE",
"259 8 OFFCURVE",
"259 15 CURVE SMOOTH",
"259 29 OFFCURVE",
"238 29 OFFCURVE",
"225 29 CURVE",
"195 30 OFFCURVE",
"154 27 OFFCURVE",
"154 45 CURVE SMOOTH",
"154 75 OFFCURVE",
"187 174 OFFCURVE",
"206 238 CURVE",
"477 238 LINE",
"486 202 OFFCURVE",
"538 20 OFFCURVE",
"538 -5 CURVE SMOOTH",
"538 -38 OFFCURVE",
"442 -16 OFFCURVE",
"442 -41 CURVE SMOOTH",
"442 -51 OFFCURVE",
"449 -55 OFFCURVE",
"473 -55 CURVE SMOOTH",
"686 -55 LINE SMOOTH",
"709 -55 OFFCURVE",
"721 -52 OFFCURVE",
"721 -41 CURVE SMOOTH",
"721 -29 OFFCURVE",
"704 -29 OFFCURVE",
"685 -29 CURVE SMOOTH",
"622 -29 OFFCURVE",
"589 -24 OFFCURVE",
"582 3 CURVE SMOOTH",
"365 816 LINE SMOOTH"
);
},
{
closed = 1;
nodes = (
"382 609 OFFCURVE",
"433 405 OFFCURVE",
"465 274 CURVE",
"424 273 OFFCURVE",
"381 272 OFFCURVE",
"340 272 CURVE SMOOTH",
"299 272 OFFCURVE",
"259 273 OFFCURVE",
"218 274 CURVE",
"245 396 OFFCURVE",
"326 673 OFFCURVE",
"343 755 CURVE"
);
}
);
};
components = (
{
name = A;
},
{
name = macroncomb.case;
transform = "{1, 0, 0, 1, -17, 0}";
}
);
layerId = master01;
width = 681;
},
{
background = {
components = (
{
name = A;
},
{
name = macroncomb;
transform = "{1, 0, 0, 1, 213, 382}";
}
);
};
components = (
{
name = A;
},
{
name = macroncomb.case;
}
);
layerId = "55D4233F-C61B-4F99-8E70-5BC40968EA26";
width = 698;
},
{
background = {
components = (
{
name = macroncomb.case;
}
);
paths = (
{
closed = 1;
nodes = (
"402 823 OFFCURVE",
"387 838 OFFCURVE",
"359 838 CURVE SMOOTH",
"325 838 OFFCURVE",
"314 822 OFFCURVE",
"305 792 CURVE SMOOTH",
"266 663 OFFCURVE",
"164 267 OFFCURVE",
"107 101 CURVE SMOOTH",
"98 74 OFFCURVE",
"82 66 OFFCURVE",
"58 63 CURVE SMOOTH",
"52 62 OFFCURVE",
"6 57 OFFCURVE",
"1 57 CURVE SMOOTH",
"-12 57 OFFCURVE",
"-28 47 OFFCURVE",
"-28 30 CURVE SMOOTH",
"-28 12 OFFCURVE",
"-17 0 OFFCURVE",
"-5 0 CURVE SMOOTH",
"273 0 LINE SMOOTH",
"299 0 OFFCURVE",
"307 14 OFFCURVE",
"307 29 CURVE SMOOTH",
"307 53 OFFCURVE",
"295 61 OFFCURVE",
"274 61 CURVE SMOOTH",
"228 61 OFFCURVE",
"202 66 OFFCURVE",
"202 77 CURVE SMOOTH",
"202 99 OFFCURVE",
"219 169 OFFCURVE",
"238 214 CURVE",
"470 214 LINE",
"479 186 OFFCURVE",
"517 54 OFFCURVE",
"517 35 CURVE SMOOTH",
"517 -22 OFFCURVE",
"464 9 OFFCURVE",
"464 -33 CURVE SMOOTH",
"464 -44 OFFCURVE",
"471 -55 OFFCURVE",
"495 -55 CURVE SMOOTH {name = hr01;}",
"742 -55 LINE SMOOTH",
"765 -55 OFFCURVE",
"777 -49 OFFCURVE",
"777 -25 CURVE SMOOTH",
"777 -2 OFFCURVE",
"752 3 OFFCURVE",
"733 3 CURVE SMOOTH",
"636 3 OFFCURVE",
"619 11 OFFCURVE",
"613 35 CURVE SMOOTH",
"410 793 LINE SMOOTH"
);
},
{
closed = 1;
nodes = (
"386 563 OFFCURVE",
"421 415 OFFCURVE",
"453 298 CURVE",
"429 297 OFFCURVE",
"382 296 OFFCURVE",
"358 296 CURVE SMOOTH",
"317 296 OFFCURVE",
"303 297 OFFCURVE",
"262 298 CURVE",
"291 406 OFFCURVE",
"343 619 OFFCURVE",
"362 691 CURVE"
);
}
);
};
components = (
{
name = A;
},
{
name = macroncomb.case;
transform = "{1, 0, 0, 1, -25, 0}";
}
);
layerId = "CC5A7AC7-F03F-47C7-BE3A-F4FB7F44F819";
width = 710;
}
);
leftKerningGroup = _KERN_A;
rightKerningGroup = _KERN_A;
unicode = 0100;
},
{
glyphname = Aogonek;
layers = (
{
background = {
components = (
{
name = ogonekcomb.case;
}
);
paths = (
{
closed = 1;
nodes = (
"382 609 OFFCURVE",
"433 405 OFFCURVE",
"465 274 CURVE",
"424 273 OFFCURVE",
"381 272 OFFCURVE",
"340 272 CURVE SMOOTH",
"299 272 OFFCURVE",
"259 273 OFFCURVE",
"218 274 CURVE",
"245 396 OFFCURVE",
"326 673 OFFCURVE",
"343 755 CURVE"
);
},
{
closed = 1;
nodes = (
"686 -55 LINE SMOOTH",
"709 -55 OFFCURVE",
"721 -52 OFFCURVE",
"721 -41 CURVE SMOOTH",
"721 -29 OFFCURVE",
"704 -29 OFFCURVE",
"685 -29 CURVE SMOOTH",
"622 -29 OFFCURVE",
"589 -24 OFFCURVE",
"582 3 CURVE SMOOTH",
"365 816 LINE SMOOTH",
"361 830 OFFCURVE",
"351 835 OFFCURVE",
"345 835 CURVE SMOOTH",
"335 835 OFFCURVE",
"327 826 OFFCURVE",
"324 816 CURVE SMOOTH",
"283 681 OFFCURVE",
"172 241 OFFCURVE",
"110 69 CURVE SMOOTH",
"101 45 OFFCURVE",
"90 34 OFFCURVE",
"61 31 CURVE SMOOTH",
"51 30 OFFCURVE",
"-2 26 OFFCURVE",
"-30 25 CURVE",
"-43 25 OFFCURVE",
"-50 20 OFFCURVE",
"-50 14 CURVE SMOOTH",
"-50 4 OFFCURVE",
"-39 0 OFFCURVE",
"-27 0 CURVE SMOOTH",
"225 0 LINE SMOOTH",
"251 0 OFFCURVE",
"259 8 OFFCURVE",
"259 15 CURVE SMOOTH",
"259 29 OFFCURVE",
"238 29 OFFCURVE",
"225 29 CURVE",
"195 30 OFFCURVE",
"154 27 OFFCURVE",
"154 45 CURVE SMOOTH",
"154 75 OFFCURVE",
"187 174 OFFCURVE",
"206 238 CURVE",
"477 238 LINE",
"486 202 OFFCURVE",
"538 20 OFFCURVE",
"538 -5 CURVE SMOOTH",
"538 -38 OFFCURVE",
"442 -16 OFFCURVE",
"442 -41 CURVE SMOOTH",
"442 -51 OFFCURVE",
"449 -55 OFFCURVE",
"473 -55 CURVE SMOOTH"
);
}
);
};
components = (
{
name = A;
},
{
name = ogonekcomb.case;
transform = "{1, 0, 0, 1, 494, -50}";
}
);
layerId = master01;
width = 681;
},
{
background = {
components = (
{
name = A;
},
{
name = ogonekcomb;
transform = "{1, 0, 0, 1, 488, -53}";
}
);
};
components = (
{
name = A;
},
{
name = ogonekcomb.case;
transform = "{1, 0, 0, 1, 488, -53}";
}
);
layerId = "55D4233F-C61B-4F99-8E70-5BC40968EA26";
width = 698;
},
{
background = {
components = (
{
name = ogonekcomb.case;
}
);
paths = (
{
closed = 1;
nodes = (
"386 563 OFFCURVE",
"421 415 OFFCURVE",
"453 298 CURVE",
"429 297 OFFCURVE",
"382 296 OFFCURVE",
"358 296 CURVE SMOOTH",
"317 296 OFFCURVE",
"303 297 OFFCURVE",
"262 298 CURVE",
"291 406 OFFCURVE",
"343 619 OFFCURVE",
"362 691 CURVE"
);
}
);
};
components = (
{
name = A;
},
{
name = ogonekcomb.case;
transform = "{1, 0, 0, 1, 498, -50}";
}
);
layerId = "CC5A7AC7-F03F-47C7-BE3A-F4FB7F44F819";
width = 710;
}
);
leftKerningGroup = _KERN_A;
rightKerningGroup = _KERN_A;
unicode = 0104;
},
{
glyphname = Aring;
layers = (
{
background = {
components = (
{
name = ringcomb.case;
}
);
paths = (
{
closed = 1;
nodes = (
"361 830 OFFCURVE",
"351 835 OFFCURVE",
"345 835 CURVE SMOOTH",
"335 835 OFFCURVE",
"327 826 OFFCURVE",
"324 816 CURVE SMOOTH",
"283 681 OFFCURVE",
"172 241 OFFCURVE",
"110 69 CURVE SMOOTH",
"101 45 OFFCURVE",
"90 34 OFFCURVE",
"61 31 CURVE SMOOTH",
"51 30 OFFCURVE",
"-2 26 OFFCURVE",
"-30 25 CURVE",
"-43 25 OFFCURVE",
"-50 20 OFFCURVE",
"-50 14 CURVE SMOOTH",
"-50 4 OFFCURVE",
"-39 0 OFFCURVE",
"-27 0 CURVE SMOOTH",
"225 0 LINE SMOOTH",
"251 0 OFFCURVE",
"259 8 OFFCURVE",
"259 15 CURVE SMOOTH",
"259 29 OFFCURVE",
"238 29 OFFCURVE",
"225 29 CURVE",
"195 30 OFFCURVE",
"154 27 OFFCURVE",
"154 45 CURVE SMOOTH",
"154 75 OFFCURVE",
"187 174 OFFCURVE",
"206 238 CURVE",
"477 238 LINE",
"486 202 OFFCURVE",
"538 20 OFFCURVE",
"538 -5 CURVE SMOOTH",
"538 -38 OFFCURVE",
"442 -16 OFFCURVE",
"442 -41 CURVE SMOOTH",
"442 -51 OFFCURVE",
"449 -55 OFFCURVE",
"473 -55 CURVE SMOOTH",
"686 -55 LINE SMOOTH",
"709 -55 OFFCURVE",
"721 -52 OFFCURVE",
"721 -41 CURVE SMOOTH",
"721 -29 OFFCURVE",
"704 -29 OFFCURVE",
"685 -29 CURVE SMOOTH",
"622 -29 OFFCURVE",
"589 -24 OFFCURVE",
"582 3 CURVE SMOOTH",
"365 816 LINE SMOOTH"
);
},
{
closed = 1;
nodes = (
"382 609 OFFCURVE",
"433 405 OFFCURVE",
"465 274 CURVE",
"424 273 OFFCURVE",
"381 272 OFFCURVE",
"340 272 CURVE SMOOTH",
"299 272 OFFCURVE",
"259 273 OFFCURVE",
"218 274 CURVE",
"245 396 OFFCURVE",
"326 673 OFFCURVE",
"343 755 CURVE"
);
}
);
};
components = (
{
name = A;
},
{
name = ringcomb.case;
transform = "{1, 0, 0, 1, -43, 0}";
}
);
layerId = master01;
width = 681;
},
{
background = {
components = (
{
name = A;
},
{
name = ringcomb.case;
}
);
};
components = (
{
name = A;
},
{
name = ringcomb.case;
transform = "{1, 0, 0, 1, 0, -6}";
}
);
layerId = "55D4233F-C61B-4F99-8E70-5BC40968EA26";
width = 698;
},
{
background = {
components = (
{
name = ringcomb.case;
}
);
paths = (
{
closed = 1;
nodes = (
"402 823 OFFCURVE",
"387 838 OFFCURVE",
"359 838 CURVE SMOOTH",
"325 838 OFFCURVE",
"314 822 OFFCURVE",
"305 792 CURVE SMOOTH",
"266 663 OFFCURVE",
"164 267 OFFCURVE",
"107 101 CURVE SMOOTH",
"98 74 OFFCURVE",
"82 66 OFFCURVE",
"58 63 CURVE SMOOTH",
"52 62 OFFCURVE",
"6 57 OFFCURVE",
"1 57 CURVE SMOOTH",
"-12 57 OFFCURVE",
"-28 47 OFFCURVE",
"-28 30 CURVE SMOOTH",
"-28 12 OFFCURVE",
"-17 0 OFFCURVE",
"-5 0 CURVE SMOOTH",
"273 0 LINE SMOOTH",
"299 0 OFFCURVE",
"307 14 OFFCURVE",
"307 29 CURVE SMOOTH",
"307 53 OFFCURVE",
"295 61 OFFCURVE",
"274 61 CURVE SMOOTH",
"228 61 OFFCURVE",
"202 66 OFFCURVE",
"202 77 CURVE SMOOTH",
"202 99 OFFCURVE",
"219 169 OFFCURVE",
"238 214 CURVE",
"470 214 LINE",
"479 186 OFFCURVE",
"517 54 OFFCURVE",
"517 35 CURVE SMOOTH",
"517 -22 OFFCURVE",
"464 9 OFFCURVE",
"464 -33 CURVE SMOOTH",
"464 -44 OFFCURVE",
"471 -55 OFFCURVE",
"495 -55 CURVE SMOOTH {name = hr01;}",
"742 -55 LINE SMOOTH",
"765 -55 OFFCURVE",
"777 -49 OFFCURVE",
"777 -25 CURVE SMOOTH",
"777 -2 OFFCURVE",
"752 3 OFFCURVE",
"733 3 CURVE SMOOTH",
"636 3 OFFCURVE",
"619 11 OFFCURVE",
"613 35 CURVE SMOOTH",
"410 793 LINE SMOOTH"
);
},
{
closed = 1;
nodes = (
"386 563 OFFCURVE",
"421 415 OFFCURVE",
"453 298 CURVE",
"429 297 OFFCURVE",
"382 296 OFFCURVE",
"358 296 CURVE SMOOTH",
"317 296 OFFCURVE",
"303 297 OFFCURVE",
"262 298 CURVE",
"291 406 OFFCURVE",
"343 619 OFFCURVE",
"362 691 CURVE"
);
}
);
};
components = (
{
name = A;
},
{
name = ringcomb.case;
transform = "{1, 0, 0, 1, -53, 0}";
}
);
layerId = "CC5A7AC7-F03F-47C7-BE3A-F4FB7F44F819";
width = 710;
}
);
leftKerningGroup = _KERN_A;
rightKerningGroup = _KERN_A;
unicode = 00C5;
},
{
glyphname = Aringacute;
layers = (
{
layerId = master01;
paths = (
{
closed = 1;
nodes = (
"363 728 OFFCURVE",
"353 733 OFFCURVE",
"347 733 CURVE SMOOTH",
"337 733 OFFCURVE",
"329 724 OFFCURVE",
"326 714 CURVE SMOOTH",
"285 579 OFFCURVE",
"174 241 OFFCURVE",
"112 69 CURVE SMOOTH",
"103 45 OFFCURVE",
"92 34 OFFCURVE",
"63 31 CURVE SMOOTH",
"53 30 OFFCURVE",
"0 26 OFFCURVE",
"-28 25 CURVE",
"-41 25 OFFCURVE",
"-48 20 OFFCURVE",
"-48 14 CURVE SMOOTH",
"-48 4 OFFCURVE",
"-37 0 OFFCURVE",
"-25 0 CURVE {name = hr01;}",
"17 1 OFFCURVE",
"59 2 OFFCURVE",
"101 2 CURVE SMOOTH {name = hr02;}",
"143 2 OFFCURVE",
"185 0 OFFCURVE",
"227 0 CURVE SMOOTH {name = hr03;}",
"253 0 OFFCURVE",
"261 8 OFFCURVE",
"261 15 CURVE SMOOTH",
"261 29 OFFCURVE",
"240 29 OFFCURVE",
"227 29 CURVE",
"197 30 OFFCURVE",
"156 27 OFFCURVE",
"156 45 CURVE SMOOTH",
"156 75 OFFCURVE",
"196 174 OFFCURVE",
"215 238 CURVE",
"469 238 LINE",
"478 202 OFFCURVE",
"540 20 OFFCURVE",
"540 -5 CURVE SMOOTH",
"540 -38 OFFCURVE",
"444 -16 OFFCURVE",
"444 -41 CURVE SMOOTH",
"444 -51 OFFCURVE",
"451 -55 OFFCURVE",
"475 -55 CURVE SMOOTH",
"510 -55 OFFCURVE",
"545 -53 OFFCURVE",
"581 -53 CURVE SMOOTH",
"616 -53 OFFCURVE",
"653 -55 OFFCURVE",
"688 -55 CURVE SMOOTH",
"711 -55 OFFCURVE",
"723 -52 OFFCURVE",
"723 -41 CURVE SMOOTH",
"723 -29 OFFCURVE",
"706 -29 OFFCURVE",
"687 -29 CURVE SMOOTH",
"624 -29 OFFCURVE",
"592 -24 OFFCURVE",
"584 3 CURVE SMOOTH",
"367 714 LINE SMOOTH"
);
},
{
closed = 1;
nodes = (
"384 507 OFFCURVE",
"425 405 OFFCURVE",
"457 274 CURVE",
"416 273 OFFCURVE",
"383 272 OFFCURVE",
"342 272 CURVE SMOOTH",
"301 272 OFFCURVE",
"268 273 OFFCURVE",
"227 274 CURVE",
"254 396 OFFCURVE",
"328 571 OFFCURVE",
"345 653 CURVE"
);
},
{
closed = 1;
nodes = (
"412 834 OFFCURVE",
"391 856 OFFCURVE",
"351 856 CURVE SMOOTH",
"312 856 OFFCURVE",
"285 835 OFFCURVE",
"285 807 CURVE SMOOTH",
"285 779 OFFCURVE",
"313 759 OFFCURVE",
"347 759 CURVE SMOOTH",
"377 759 OFFCURVE",
"412 775 OFFCURVE",
"412 809 CURVE SMOOTH"
);
},
{
closed = 1;
nodes = (
"375 833 OFFCURVE",
"377 820 OFFCURVE",
"377 808 CURVE SMOOTH",
"377 789 OFFCURVE",
"369 782 OFFCURVE",
"347 782 CURVE SMOOTH",
"325 782 OFFCURVE",
"319 792 OFFCURVE",
"319 807 CURVE SMOOTH",
"319 819 OFFCURVE",
"324 833 OFFCURVE",
"349 833 CURVE SMOOTH"
);
},
{
closed = 1;
nodes = (
"413 969 OFFCURVE",
"405 972 OFFCURVE",
"394 972 CURVE SMOOTH {name = hr04;}",
"375 972 OFFCURVE",
"299 911 OFFCURVE",
"299 886 CURVE SMOOTH",
"299 877 OFFCURVE",
"302 875 OFFCURVE",
"307 875 CURVE SMOOTH",
"326 875 OFFCURVE",
"413 929 OFFCURVE",
"413 950 CURVE SMOOTH"
);
}
);
width = 681;
},
{
layerId = "55D4233F-C61B-4F99-8E70-5BC40968EA26";
paths = (
{
closed = 1;
nodes = (
"387 729 OFFCURVE",
"375 737 OFFCURVE",
"356 737 CURVE SMOOTH",
"332 737 OFFCURVE",
"323 726 OFFCURVE",
"320 716 CURVE SMOOTH",
"280 605 OFFCURVE",
"170 237 OFFCURVE",
"111 89 CURVE",
"103 65 OFFCURVE",
"90 54 OFFCURVE",
"62 51 CURVE SMOOTH",
"55 50 OFFCURVE",
"10 46 OFFCURVE",
"-9 45 CURVE",
"-22 45 OFFCURVE",
"-34 37 OFFCURVE",
"-34 24 CURVE SMOOTH",
"-34 9 OFFCURVE",
"-23 0 OFFCURVE",
"-11 0 CURVE SMOOTH",
"256 0 LINE SMOOTH",
"282 0 OFFCURVE",
"290 12 OFFCURVE",
"290 24 CURVE SMOOTH",
"290 44 OFFCURVE",
"274 49 OFFCURVE",
"261 49 CURVE SMOOTH",
"231 49 OFFCURVE",
"184 49 OFFCURVE",
"185 65 CURVE SMOOTH",
"187 87 OFFCURVE",
"217 171 OFFCURVE",
"238 223 CURVE",
"466 223 LINE",
"477 192 OFFCURVE",
"529 36 OFFCURVE",
"529 15 CURVE SMOOTH",
"529 -36 OFFCURVE",
"458 -10 OFFCURVE",
"458 -39 CURVE SMOOTH",
"458 -50 OFFCURVE",
"465 -55 OFFCURVE",
"489 -55 CURVE SMOOTH",
"722 -55 LINE SMOOTH",
"745 -55 OFFCURVE",
"757 -50 OFFCURVE",
"757 -31 CURVE SMOOTH",
"757 -12 OFFCURVE",
"735 -9 OFFCURVE",
"716 -9 CURVE SMOOTH",
"653 -9 OFFCURVE",
"612 -8 OFFCURVE",
"603 23 CURVE SMOOTH",
"391 716 LINE SMOOTH"
);
},
{
closed = 1;
nodes = (
"386 510 OFFCURVE",
"422 381 OFFCURVE",
"451 289 CURVE",
"423 288 OFFCURVE",
"394 288 OFFCURVE",
"366 288 CURVE SMOOTH",
"328 288 OFFCURVE",
"295 288 OFFCURVE",
"257 289 CURVE",
"278 372 OFFCURVE",
"343 559 OFFCURVE",
"359 615 CURVE"
);
},
{
closed = 1;
nodes = (
"452 957 OFFCURVE",
"442 970 OFFCURVE",
"422 972 CURVE",
"391 972 OFFCURVE",
"317 910 OFFCURVE",
"315 882 CURVE",
"315 870 OFFCURVE",
"318 860 OFFCURVE",
"330 859 CURVE",
"309 848 OFFCURVE",
"296 829 OFFCURVE",
"296 807 CURVE SMOOTH",
"296 772 OFFCURVE",
"328 748 OFFCURVE",
"368 748 CURVE SMOOTH",
"404 748 OFFCURVE",
"438 768 OFFCURVE",
"438 809 CURVE SMOOTH",
"438 846 OFFCURVE",
"414 867 OFFCURVE",
"367 867 CURVE SMOOTH",
"363 867 LINE",
"401 882 OFFCURVE",
"452 915 OFFCURVE",
"452 939 CURVE SMOOTH"
);
},
{
closed = 1;
nodes = (
"380 833 OFFCURVE",
"393 826 OFFCURVE",
"393 808 CURVE SMOOTH",
"393 787 OFFCURVE",
"375 782 OFFCURVE",
"368 782 CURVE SMOOTH",
"360 782 OFFCURVE",
"341 787 OFFCURVE",
"341 807 CURVE SMOOTH",
"341 827 OFFCURVE",
"356 833 OFFCURVE",
"367 833 CURVE SMOOTH {name = hr01;}"
);
}
);
width = 698;
},
{
layerId = "CC5A7AC7-F03F-47C7-BE3A-F4FB7F44F819";
paths = (
{
closed = 1;
nodes = (
"434 824 OFFCURVE",
"422 844 OFFCURVE",
"397 853 CURVE",
"435 871 OFFCURVE",
"479 908 OFFCURVE",
"479 936 CURVE SMOOTH {name = hr01;}",
"479 953 OFFCURVE",
"464 972 OFFCURVE",
"438 972 CURVE SMOOTH",
"400 972 OFFCURVE",
"324 900 OFFCURVE",
"324 872 CURVE SMOOTH",
"324 866 OFFCURVE",
"326 860 OFFCURVE",
"330 855 CURVE",
"302 845 OFFCURVE",
"282 821 OFFCURVE",
"282 792 CURVE SMOOTH {name = hr02;}",
"282 763 OFFCURVE",
"300 742 OFFCURVE",
"327 732 CURVE",
"320 728 OFFCURVE",
"317 722 OFFCURVE",
"316 717 CURVE",
"283 621 OFFCURVE",
"164 238 OFFCURVE",
"110 101 CURVE SMOOTH",
"100 74 OFFCURVE",
"86 66 OFFCURVE",
"61 63 CURVE SMOOTH",
"56 62 OFFCURVE",
"9 57 OFFCURVE",
"4 57 CURVE SMOOTH",
"-9 57 OFFCURVE",
"-24 47 OFFCURVE",
"-24 30 CURVE SMOOTH",
"-24 12 OFFCURVE",
"-13 0 OFFCURVE",
"-1 0 CURVE SMOOTH",
"48 0 OFFCURVE",
"96 4 OFFCURVE",
"145 4 CURVE SMOOTH",
"189 4 OFFCURVE",
"233 0 OFFCURVE",
"276 0 CURVE SMOOTH",
"302 0 OFFCURVE",
"310 14 OFFCURVE",
"310 29 CURVE SMOOTH",
"310 53 OFFCURVE",
"298 61 OFFCURVE",
"285 61 CURVE SMOOTH",
"221 61 OFFCURVE",
"206 72 OFFCURVE",
"206 77 CURVE SMOOTH",
"206 82 OFFCURVE",
"236 170 OFFCURVE",
"254 214 CURVE",
"464 214 LINE",
"476 186 OFFCURVE",
"521 46 OFFCURVE",
"521 27 CURVE SMOOTH",
"521 -35 OFFCURVE",
"468 -6 OFFCURVE",
"468 -38 CURVE SMOOTH",
"468 -49 OFFCURVE",
"475 -58 OFFCURVE",
"499 -58 CURVE SMOOTH {name = hr03;}",
"544 -58 OFFCURVE",
"584 -53 OFFCURVE",
"634 -53 CURVE SMOOTH",
"665 -53 OFFCURVE",
"714 -55 OFFCURVE",
"746 -55 CURVE SMOOTH",
"769 -55 OFFCURVE",
"781 -49 OFFCURVE",
"781 -25 CURVE SMOOTH",
"781 -2 OFFCURVE",
"755 3 OFFCURVE",
"736 3 CURVE SMOOTH",
"666 3 OFFCURVE",
"625 7 OFFCURVE",
"616 35 CURVE SMOOTH",
"408 717 LINE SMOOTH",
"406 723 OFFCURVE",
"402 728 OFFCURVE",
"395 732 CURVE",
"418 742 OFFCURVE",
"434 763 OFFCURVE",
"434 794 CURVE SMOOTH"
);
},
{
closed = 1;
nodes = (
"387 512 OFFCURVE",
"420 367 OFFCURVE",
"447 298 CURVE",
"428 297 OFFCURVE",
"394 297 OFFCURVE",
"375 297 CURVE SMOOTH",
"339 297 OFFCURVE",
"314 297 OFFCURVE",
"278 298 CURVE",
"295 358 OFFCURVE",
"354 552 OFFCURVE",
"369 592 CURVE"
);
},
{
closed = 1;
nodes = (
"367 818 OFFCURVE",
"382 814 OFFCURVE",
"382 793 CURVE SMOOTH",
"382 772 OFFCURVE",
"367 767 OFFCURVE",
"361 767 CURVE SMOOTH",
"354 767 OFFCURVE",
"335 771 OFFCURVE",
"335 792 CURVE SMOOTH",
"335 815 OFFCURVE",
"352 818 OFFCURVE",
"358 818 CURVE SMOOTH"
);
}
);
width = 710;
}
);
leftKerningGroup = _KERN_A;
rightKerningGroup = _KERN_A;
unicode = 01FA;
},
{
glyphname = Atilde;
layers = (
{
background = {
components = (
{
name = tildecomb.case;
}
);
paths = (
{
closed = 1;
nodes = (
"361 830 OFFCURVE",
"351 835 OFFCURVE",
"345 835 CURVE SMOOTH",
"335 835 OFFCURVE",
"327 826 OFFCURVE",
"324 816 CURVE SMOOTH",
"283 681 OFFCURVE",
"172 241 OFFCURVE",
"110 69 CURVE SMOOTH",
"101 45 OFFCURVE",
"90 34 OFFCURVE",
"61 31 CURVE SMOOTH",
"51 30 OFFCURVE",
"-2 26 OFFCURVE",
"-30 25 CURVE",
"-43 25 OFFCURVE",
"-50 20 OFFCURVE",
"-50 14 CURVE SMOOTH",
"-50 4 OFFCURVE",
"-39 0 OFFCURVE",
"-27 0 CURVE SMOOTH",
"225 0 LINE SMOOTH",
"251 0 OFFCURVE",
"259 8 OFFCURVE",
"259 15 CURVE SMOOTH",
"259 29 OFFCURVE",
"238 29 OFFCURVE",
"225 29 CURVE",
"195 30 OFFCURVE",
"154 27 OFFCURVE",
"154 45 CURVE SMOOTH",
"154 75 OFFCURVE",
"187 174 OFFCURVE",
"206 238 CURVE",
"477 238 LINE",
"486 202 OFFCURVE",
"538 20 OFFCURVE",
"538 -5 CURVE SMOOTH",
"538 -38 OFFCURVE",
"442 -16 OFFCURVE",
"442 -41 CURVE SMOOTH",
"442 -51 OFFCURVE",
"449 -55 OFFCURVE",
"473 -55 CURVE SMOOTH",
"686 -55 LINE SMOOTH",
"709 -55 OFFCURVE",
"721 -52 OFFCURVE",
"721 -41 CURVE SMOOTH",
"721 -29 OFFCURVE",
"704 -29 OFFCURVE",
"685 -29 CURVE SMOOTH",
"622 -29 OFFCURVE",
"589 -24 OFFCURVE",
"582 3 CURVE SMOOTH",
"365 816 LINE SMOOTH"
);
},
{
closed = 1;
nodes = (
"382 609 OFFCURVE",
"433 405 OFFCURVE",
"465 274 CURVE",
"424 273 OFFCURVE",
"381 272 OFFCURVE",
"340 272 CURVE SMOOTH",
"299 272 OFFCURVE",
"259 273 OFFCURVE",
"218 274 CURVE",
"245 396 OFFCURVE",
"326 673 OFFCURVE",
"343 755 CURVE"
);
}
);
};
components = (
{
name = A;
},
{
name = tildecomb.case;
transform = "{1, 0, 0, 1, -18, -1}";
}
);
layerId = master01;
width = 681;
},
{
background = {
components = (
{
name = A;
},
{
name = tilde;
transform = "{1, 0, 0, 1, 183, 372}";
}
);
};
components = (
{
name = A;
},
{
name = tildecomb.case;
transform = "{1, 0, 0, 1, -3, -8}";
}
);
layerId = "55D4233F-C61B-4F99-8E70-5BC40968EA26";
width = 698;
},
{
background = {
components = (
{
name = tildecomb.case;
}
);
paths = (
{
closed = 1;
nodes = (
"402 823 OFFCURVE",
"387 838 OFFCURVE",
"359 838 CURVE SMOOTH",
"325 838 OFFCURVE",
"314 822 OFFCURVE",
"305 792 CURVE SMOOTH",
"266 663 OFFCURVE",
"164 267 OFFCURVE",
"107 101 CURVE SMOOTH",
"98 74 OFFCURVE",
"82 66 OFFCURVE",
"58 63 CURVE SMOOTH",
"52 62 OFFCURVE",
"6 57 OFFCURVE",
"1 57 CURVE SMOOTH",
"-12 57 OFFCURVE",
"-28 47 OFFCURVE",
"-28 30 CURVE SMOOTH",
"-28 12 OFFCURVE",
"-17 0 OFFCURVE",
"-5 0 CURVE SMOOTH",
"273 0 LINE SMOOTH",
"299 0 OFFCURVE",
"307 14 OFFCURVE",
"307 29 CURVE SMOOTH",
"307 53 OFFCURVE",
"295 61 OFFCURVE",
"274 61 CURVE SMOOTH",
"228 61 OFFCURVE",
"202 66 OFFCURVE",
"202 77 CURVE SMOOTH",
"202 99 OFFCURVE",
"219 169 OFFCURVE",
"238 214 CURVE",
"470 214 LINE",
"479 186 OFFCURVE",
"517 54 OFFCURVE",
"517 35 CURVE SMOOTH",
"517 -22 OFFCURVE",
"464 9 OFFCURVE",
"464 -33 CURVE SMOOTH",
"464 -44 OFFCURVE",
"471 -55 OFFCURVE",
"495 -55 CURVE SMOOTH {name = hr01;}",
"742 -55 LINE SMOOTH",
"765 -55 OFFCURVE",
"777 -49 OFFCURVE",
"777 -25 CURVE SMOOTH",
"777 -2 OFFCURVE",
"752 3 OFFCURVE",
"733 3 CURVE SMOOTH",
"636 3 OFFCURVE",
"619 11 OFFCURVE",
"613 35 CURVE SMOOTH",
"410 793 LINE SMOOTH"
);
},
{
closed = 1;
nodes = (
"386 563 OFFCURVE",
"421 415 OFFCURVE",
"453 298 CURVE",
"429 297 OFFCURVE",
"382 296 OFFCURVE",
"358 296 CURVE SMOOTH",
"317 296 OFFCURVE",
"303 297 OFFCURVE",
"262 298 CURVE",
"291 406 OFFCURVE",
"343 619 OFFCURVE",
"362 691 CURVE"
);
}
);
};
components = (
{
name = A;
},
{
name = tildecomb.case;
transform = "{1, 0, 0, 1, -1, 0}";
}
);
layerId = "CC5A7AC7-F03F-47C7-BE3A-F4FB7F44F819";
width = 710;
}
);
leftKerningGroup = _KERN_A;
rightKerningGroup = _KERN_A;
unicode = 00C3;
},
{
glyphname = AE;
layers = (
{
anchors = (
{
name = bottom;
position = "{512, 0}";
},
{
name = top;
position = "{512, 821}";
}
);
background = {
anchors = (
{
name = bottom;
position = "{512, 0}";
},
{
name = top;
position = "{512, 821}";
}
);
paths = (
{
closed = 1;
nodes = (
"960 310 OFFCURVE",
"950 300 OFFCURVE",
"949 273 CURVE SMOOTH",
"947 218 OFFCURVE",
"939 109 OFFCURVE",
"936 73 CURVE SMOOTH",
"933 39 OFFCURVE",
"913 36 OFFCURVE",
"893 36 CURVE SMOOTH",
"564 36 LINE",
"564 401 LINE",
"602 402 OFFCURVE",
"640 403 OFFCURVE",
"678 403 CURVE SMOOTH",
"716 403 OFFCURVE",
"739 402 OFFCURVE",
"757 402 CURVE SMOOTH",
"797 402 OFFCURVE",
"805 345 OFFCURVE",
"805 309 CURVE SMOOTH",
"805 292 OFFCURVE",
"813 280 OFFCURVE",
"822 280 CURVE SMOOTH",
"827 280 OFFCURVE",
"837 284 OFFCURVE",
"837 307 CURVE SMOOTH",
"837 344 OFFCURVE",
"835 382 OFFCURVE",
"835 420 CURVE SMOOTH",
"835 458 OFFCURVE",
"837 495 OFFCURVE",
"837 533 CURVE SMOOTH",
"837 547 OFFCURVE",
"836 560 OFFCURVE",
"820 560 CURVE SMOOTH",
"803 560 OFFCURVE",
"803 534 OFFCURVE",
"803 530 CURVE SMOOTH",
"803 505 OFFCURVE",
"803 440 OFFCURVE",
"786 440 CURVE SMOOTH",
"774 440 OFFCURVE",
"716 437 OFFCURVE",
"678 437 CURVE SMOOTH {name = hr01;}",
"639 437 OFFCURVE",
"602 439 OFFCURVE",
"564 440 CURVE",
"564 785 LINE",
"867 785 LINE SMOOTH",
"880 785 OFFCURVE",
"904 782 OFFCURVE",
"904 757 CURVE SMOOTH",
"904 645 LINE SMOOTH",
"904 627 OFFCURVE",
"904 605 OFFCURVE",
"924 605 CURVE SMOOTH {name = hr02;}",
"939 605 OFFCURVE",
"941 626 OFFCURVE",
"941 651 CURVE SMOOTH",
"941 785 LINE SMOOTH {name = hr03;}",
"941 813 OFFCURVE",
"931 821 OFFCURVE",
"913 821 CURVE SMOOTH",
"795 821 OFFCURVE",
"785 819 OFFCURVE",
"686 819 CURVE SMOOTH",
"636 819 OFFCURVE",
"534 821 OFFCURVE",
"445 821 CURVE SMOOTH",
"425 821 OFFCURVE",
"404 818 OFFCURVE",
"404 804 CURVE SMOOTH",
"404 789 OFFCURVE",
"421 789 OFFCURVE",
"444 789 CURVE SMOOTH",
"458 789 OFFCURVE",
"478 789 OFFCURVE",
"493 783 CURVE",
"413 627 OFFCURVE",
"225 232 OFFCURVE",
"131 69 CURVE SMOOTH",
"117 45 OFFCURVE",
"103 34 OFFCURVE",
"74 31 CURVE SMOOTH",
"64 30 OFFCURVE",
"11 26 OFFCURVE",
"-18 25 CURVE",
"-31 25 OFFCURVE",
"-40 21 OFFCURVE",
"-40 14 CURVE SMOOTH",
"-40 4 OFFCURVE",
"-32 0 OFFCURVE",
"-20 0 CURVE",
"22 1 OFFCURVE",
"63 2 OFFCURVE",
"105 2 CURVE SMOOTH {name = hr04;}",
"147 2 OFFCURVE",
"192 0 OFFCURVE",
"234 0 CURVE SMOOTH {name = hr05;}",
"260 0 OFFCURVE",
"271 8 OFFCURVE",
"271 15 CURVE SMOOTH",
"271 29 OFFCURVE",
"253 29 OFFCURVE",
"240 29 CURVE",
"211 30 OFFCURVE",
"173 27 OFFCURVE",
"173 45 CURVE SMOOTH",
"173 62 OFFCURVE",
"235 174 OFFCURVE",
"268 238 CURVE",
"522 238 LINE",
"522 183 OFFCURVE",
"521 142 OFFCURVE",
"521 64 CURVE SMOOTH",
"521 36 OFFCURVE",
"502 28 OFFCURVE",
"440 28 CURVE SMOOTH",
"414 28 OFFCURVE",
"401 25 OFFCURVE",
"401 11 CURVE SMOOTH",
"401 0 OFFCURVE",
"427 0 OFFCURVE",
"447 0 CURVE",
"528 1 OFFCURVE",
"609 2 OFFCURVE",
"690 2 CURVE SMOOTH {name = hr06;}",
"771 2 OFFCURVE",
"846 0 OFFCURVE",
"927 0 CURVE SMOOTH {name = hr07;}",
"954 0 OFFCURVE",
"966 0 OFFCURVE",
"969 33 CURVE SMOOTH",
"976 114 OFFCURVE",
"985 254 OFFCURVE",
"985 277 CURVE SMOOTH",
"985 293 OFFCURVE",
"984 310 OFFCURVE",
"966 310 CURVE SMOOTH"
);
},
{
closed = 1;
nodes = (
"363 272 OFFCURVE",
"328 274 OFFCURVE",
"288 274 CURVE",
"342 396 OFFCURVE",
"480 672 OFFCURVE",
"517 754 CURVE",
"517 750 LINE SMOOTH",
"517 659 OFFCURVE",
"523 575 OFFCURVE",
"523 425 CURVE SMOOTH",
"523 357 OFFCURVE",
"523 311 OFFCURVE",
"522 273 CURVE",
"484 272 OFFCURVE",
"444 272 OFFCURVE",
"406 272 CURVE SMOOTH"
);
}
);
};
layerId = master01;
paths = (
{
closed = 1;
nodes = (
"960 310 OFFCURVE",
"950 300 OFFCURVE",
"949 273 CURVE SMOOTH",
"947 218 OFFCURVE",
"939 109 OFFCURVE",
"936 73 CURVE SMOOTH",
"933 39 OFFCURVE",
"913 36 OFFCURVE",
"893 36 CURVE SMOOTH",
"564 36 LINE",
"564 401 LINE",
"602 402 OFFCURVE",
"640 403 OFFCURVE",
"678 403 CURVE SMOOTH",
"716 403 OFFCURVE",
"739 402 OFFCURVE",
"757 402 CURVE SMOOTH",
"797 402 OFFCURVE",
"805 345 OFFCURVE",
"805 309 CURVE SMOOTH",
"805 292 OFFCURVE",
"813 280 OFFCURVE",
"822 280 CURVE SMOOTH",
"827 280 OFFCURVE",
"837 284 OFFCURVE",
"837 307 CURVE SMOOTH",
"837 344 OFFCURVE",
"835 382 OFFCURVE",
"835 420 CURVE SMOOTH",
"835 458 OFFCURVE",
"837 495 OFFCURVE",
"837 533 CURVE SMOOTH",
"837 547 OFFCURVE",
"836 560 OFFCURVE",
"820 560 CURVE SMOOTH",
"803 560 OFFCURVE",
"803 534 OFFCURVE",
"803 530 CURVE SMOOTH",
"803 505 OFFCURVE",
"803 440 OFFCURVE",
"786 440 CURVE SMOOTH",
"774 440 OFFCURVE",
"716 437 OFFCURVE",
"678 437 CURVE SMOOTH {name = hr01;}",
"639 437 OFFCURVE",
"602 439 OFFCURVE",
"564 440 CURVE",
"564 785 LINE",
"867 785 LINE SMOOTH",
"880 785 OFFCURVE",
"904 782 OFFCURVE",
"904 757 CURVE SMOOTH",
"904 645 LINE SMOOTH",
"904 627 OFFCURVE",
"904 605 OFFCURVE",
"924 605 CURVE SMOOTH {name = hr02;}",
"939 605 OFFCURVE",
"941 626 OFFCURVE",
"941 651 CURVE SMOOTH",
"941 785 LINE SMOOTH {name = hr03;}",
"941 813 OFFCURVE",
"931 821 OFFCURVE",
"913 821 CURVE SMOOTH",
"795 821 OFFCURVE",
"785 819 OFFCURVE",
"686 819 CURVE SMOOTH",
"636 819 OFFCURVE",
"534 821 OFFCURVE",
"445 821 CURVE SMOOTH",
"425 821 OFFCURVE",
"404 818 OFFCURVE",
"404 804 CURVE SMOOTH",
"404 789 OFFCURVE",
"421 789 OFFCURVE",
"444 789 CURVE SMOOTH",
"458 789 OFFCURVE",
"478 789 OFFCURVE",
"493 783 CURVE",
"413 627 OFFCURVE",
"225 232 OFFCURVE",
"131 69 CURVE SMOOTH",
"117 45 OFFCURVE",
"103 34 OFFCURVE",
"74 31 CURVE SMOOTH",
"64 30 OFFCURVE",
"11 26 OFFCURVE",
"-18 25 CURVE",
"-31 25 OFFCURVE",
"-40 21 OFFCURVE",
"-40 14 CURVE SMOOTH",
"-40 4 OFFCURVE",
"-32 0 OFFCURVE",
"-20 0 CURVE",
"22 1 OFFCURVE",
"63 2 OFFCURVE",
"105 2 CURVE SMOOTH {name = hr04;}",
"147 2 OFFCURVE",
"192 0 OFFCURVE",
"234 0 CURVE SMOOTH {name = hr05;}",
"260 0 OFFCURVE",
"271 8 OFFCURVE",
"271 15 CURVE SMOOTH",
"271 29 OFFCURVE",
"253 29 OFFCURVE",
"240 29 CURVE",
"211 30 OFFCURVE",
"173 27 OFFCURVE",
"173 45 CURVE SMOOTH",
"173 62 OFFCURVE",
"235 174 OFFCURVE",
"268 238 CURVE",
"522 238 LINE",
"522 183 OFFCURVE",
"521 142 OFFCURVE",
"521 64 CURVE SMOOTH",
"521 36 OFFCURVE",
"502 28 OFFCURVE",
"440 28 CURVE SMOOTH",
"414 28 OFFCURVE",
"401 25 OFFCURVE",
"401 11 CURVE SMOOTH",
"401 0 OFFCURVE",
"427 0 OFFCURVE",
"447 0 CURVE",
"528 1 OFFCURVE",
"609 2 OFFCURVE",
"690 2 CURVE SMOOTH {name = hr06;}",
"771 2 OFFCURVE",
"846 0 OFFCURVE",
"927 0 CURVE SMOOTH {name = hr07;}",
"954 0 OFFCURVE",
"966 0 OFFCURVE",
"969 33 CURVE SMOOTH",
"976 114 OFFCURVE",
"985 254 OFFCURVE",
"985 277 CURVE SMOOTH",
"985 293 OFFCURVE",
"984 310 OFFCURVE",
"966 310 CURVE SMOOTH"
);
},
{
closed = 1;
nodes = (
"363 272 OFFCURVE",
"328 274 OFFCURVE",
"288 274 CURVE",
"342 396 OFFCURVE",
"480 672 OFFCURVE",
"517 754 CURVE",
"517 750 LINE SMOOTH",
"517 659 OFFCURVE",
"523 575 OFFCURVE",
"523 425 CURVE SMOOTH",
"523 357 OFFCURVE",
"523 311 OFFCURVE",
"522 273 CURVE",
"484 272 OFFCURVE",
"444 272 OFFCURVE",
"406 272 CURVE SMOOTH"
);
}
);
width = 1023;
},
{
anchors = (
{
name = bottom;
position = "{527, 0}";
},
{
name = top;
position = "{580, 821}";
}
);
background = {
anchors = (
{
name = bottom;
position = "{527, 0}";
},
{
name = top;
position = "{527, 821}";
}
);
paths = (
{
closed = 1;
nodes = (
"963 320 OFFCURVE",
"954 300 OFFCURVE",
"953 273 CURVE SMOOTH",
"951 226 OFFCURVE",
"943 134 OFFCURVE",
"940 103 CURVE SMOOTH",
"937 69 OFFCURVE",
"917 66 OFFCURVE",
"897 66 CURVE SMOOTH",
"598 66 LINE",
"598 386 LINE",
"626 387 OFFCURVE",
"654 388 OFFCURVE",
"682 388 CURVE SMOOTH",
"720 388 OFFCURVE",
"743 387 OFFCURVE",
"761 387 CURVE SMOOTH",
"801 387 OFFCURVE",
"809 339 OFFCURVE",
"809 309 CURVE SMOOTH",
"809 292 OFFCURVE",
"820 274 OFFCURVE",
"840 274 CURVE SMOOTH {name = hr01;}",
"861 274 OFFCURVE",
"871 287 OFFCURVE",
"871 307 CURVE SMOOTH",
"871 344 OFFCURVE",
"869 382 OFFCURVE",
"869 420 CURVE SMOOTH",
"869 458 OFFCURVE",
"871 495 OFFCURVE",
"871 533 CURVE SMOOTH",
"871 547 OFFCURVE",
"864 566 OFFCURVE",
"841 566 CURVE SMOOTH {name = hr02;}",
"821 566 OFFCURVE",
"807 558 OFFCURVE",
"807 530 CURVE SMOOTH",
"807 509 OFFCURVE",
"807 455 OFFCURVE",
"790 455 CURVE SMOOTH",
"778 455 OFFCURVE",
"720 452 OFFCURVE",
"682 452 CURVE SMOOTH {name = hr03;}",
"653 452 OFFCURVE",
"626 454 OFFCURVE",
"598 455 CURVE",
"598 755 LINE",
"871 755 LINE SMOOTH",
"884 755 OFFCURVE",
"908 755 OFFCURVE",
"908 727 CURVE SMOOTH",
"908 645 LINE SMOOTH",
"908 627 OFFCURVE",
"910 601 OFFCURVE",
"942 601 CURVE SMOOTH {name = hr04;}",
"968 601 OFFCURVE",
"975 626 OFFCURVE",
"975 651 CURVE SMOOTH",
"975 785 LINE SMOOTH",
"975 813 OFFCURVE",
"965 821 OFFCURVE",
"947 821 CURVE SMOOTH",
"813 821 OFFCURVE",
"802 819 OFFCURVE",
"690 819 CURVE SMOOTH",
"640 819 OFFCURVE",
"538 821 OFFCURVE",
"449 821 CURVE SMOOTH",
"429 821 OFFCURVE",
"398 819 OFFCURVE",
"398 792 CURVE SMOOTH",
"398 771 OFFCURVE",
"422 769 OFFCURVE",
"438 769 CURVE SMOOTH",
"452 769 OFFCURVE",
"472 769 OFFCURVE",
"487 763 CURVE",
"407 611 OFFCURVE",
"239 247 OFFCURVE",
"145 89 CURVE SMOOTH",
"131 65 OFFCURVE",
"117 54 OFFCURVE",
"88 51 CURVE SMOOTH",
"78 50 OFFCURVE",
"20 45 OFFCURVE",
"-9 45 CURVE SMOOTH",
"-27 45 OFFCURVE",
"-41 38 OFFCURVE",
"-41 22 CURVE SMOOTH",
"-41 6 OFFCURVE",
"-29 0 OFFCURVE",
"-11 0 CURVE SMOOTH",
"31 0 OFFCURVE",
"77 2 OFFCURVE",
"119 2 CURVE SMOOTH",
"161 2 OFFCURVE",
"200 0 OFFCURVE",
"242 0 CURVE SMOOTH",
"268 0 OFFCURVE",
"284 6 OFFCURVE",
"284 25 CURVE SMOOTH",
"284 47 OFFCURVE",
"261 49 OFFCURVE",
"248 49 CURVE",
"232 50 OFFCURVE",
"217 47 OFFCURVE",
"217 65 CURVE SMOOTH",
"217 81 OFFCURVE",
"265 164 OFFCURVE",
"299 223 CURVE",
"526 223 LINE",
"526 179 OFFCURVE",
"525 146 OFFCURVE",
"525 84 CURVE SMOOTH {name = hr05;}",
"525 56 OFFCURVE",
"506 48 OFFCURVE",
"444 48 CURVE SMOOTH",
"418 48 OFFCURVE",
"405 44 OFFCURVE",
"405 24 CURVE SMOOTH",
"405 5 OFFCURVE",
"431 0 OFFCURVE",
"451 0 CURVE",
"532 1 OFFCURVE",
"613 2 OFFCURVE",
"694 2 CURVE SMOOTH",
"785 2 OFFCURVE",
"870 0 OFFCURVE",
"961 0 CURVE SMOOTH",
"989 0 OFFCURVE",
"1000 6 OFFCURVE",
"1003 33 CURVE SMOOTH",
"1012 114 OFFCURVE",
"1019 254 OFFCURVE",
"1019 277 CURVE SMOOTH",
"1019 293 OFFCURVE",
"1017 320 OFFCURVE",
"991 320 CURVE SMOOTH"
);
},
{
closed = 1;
nodes = (
"378 287 OFFCURVE",
"349 289 OFFCURVE",
"319 289 CURVE",
"366 407 OFFCURVE",
"489 619 OFFCURVE",
"521 698 CURVE",
"521 694 LINE SMOOTH",
"521 603 OFFCURVE",
"527 575 OFFCURVE",
"527 425 CURVE SMOOTH",
"527 364 OFFCURVE",
"527 322 OFFCURVE",
"526 288 CURVE",
"488 287 OFFCURVE",
"448 287 OFFCURVE",
"410 287 CURVE SMOOTH"
);
}
);
};
layerId = "55D4233F-C61B-4F99-8E70-5BC40968EA26";
paths = (
{
closed = 1;
nodes = (
"963 320 OFFCURVE",
"954 300 OFFCURVE",
"953 273 CURVE SMOOTH",
"951 226 OFFCURVE",
"943 134 OFFCURVE",
"940 103 CURVE SMOOTH",
"937 69 OFFCURVE",
"917 66 OFFCURVE",
"897 66 CURVE SMOOTH",
"598 66 LINE",
"598 386 LINE",
"626 387 OFFCURVE",
"654 388 OFFCURVE",
"682 388 CURVE SMOOTH",
"720 388 OFFCURVE",
"743 387 OFFCURVE",
"761 387 CURVE SMOOTH",
"801 387 OFFCURVE",
"809 339 OFFCURVE",
"809 309 CURVE SMOOTH",
"809 292 OFFCURVE",
"820 274 OFFCURVE",
"840 274 CURVE SMOOTH {name = hr01;}",
"861 274 OFFCURVE",
"871 287 OFFCURVE",
"871 307 CURVE SMOOTH",
"871 344 OFFCURVE",
"869 382 OFFCURVE",
"869 420 CURVE SMOOTH",
"869 458 OFFCURVE",
"871 495 OFFCURVE",
"871 533 CURVE SMOOTH",
"871 547 OFFCURVE",
"864 566 OFFCURVE",
"841 566 CURVE SMOOTH {name = hr02;}",
"821 566 OFFCURVE",
"807 558 OFFCURVE",
"807 530 CURVE SMOOTH",
"807 509 OFFCURVE",
"807 455 OFFCURVE",
"790 455 CURVE SMOOTH",
"778 455 OFFCURVE",
"720 452 OFFCURVE",
"682 452 CURVE SMOOTH {name = hr03;}",
"653 452 OFFCURVE",
"626 454 OFFCURVE",
"598 455 CURVE",
"598 755 LINE",
"871 755 LINE SMOOTH",
"884 755 OFFCURVE",
"908 755 OFFCURVE",
"908 727 CURVE SMOOTH",
"908 645 LINE SMOOTH",
"908 627 OFFCURVE",
"910 601 OFFCURVE",
"942 601 CURVE SMOOTH {name = hr04;}",
"968 601 OFFCURVE",
"975 626 OFFCURVE",
"975 651 CURVE SMOOTH",
"975 785 LINE SMOOTH",
"975 813 OFFCURVE",
"965 821 OFFCURVE",
"947 821 CURVE SMOOTH",
"813 821 OFFCURVE",
"802 819 OFFCURVE",
"690 819 CURVE SMOOTH",
"640 819 OFFCURVE",
"538 821 OFFCURVE",
"449 821 CURVE SMOOTH",
"429 821 OFFCURVE",
"398 819 OFFCURVE",
"398 792 CURVE SMOOTH",
"398 771 OFFCURVE",
"422 769 OFFCURVE",
"438 769 CURVE SMOOTH",
"452 769 OFFCURVE",
"472 769 OFFCURVE",
"487 763 CURVE",
"407 611 OFFCURVE",
"239 247 OFFCURVE",
"145 89 CURVE SMOOTH",
"131 65 OFFCURVE",
"117 54 OFFCURVE",
"88 51 CURVE SMOOTH",
"78 50 OFFCURVE",
"20 45 OFFCURVE",
"-9 45 CURVE SMOOTH",
"-27 45 OFFCURVE",
"-41 38 OFFCURVE",
"-41 22 CURVE SMOOTH",
"-41 6 OFFCURVE",
"-29 0 OFFCURVE",
"-11 0 CURVE SMOOTH",
"31 0 OFFCURVE",
"77 2 OFFCURVE",
"119 2 CURVE SMOOTH",
"161 2 OFFCURVE",
"200 0 OFFCURVE",
"242 0 CURVE SMOOTH",
"268 0 OFFCURVE",
"284 6 OFFCURVE",
"284 25 CURVE SMOOTH",
"284 47 OFFCURVE",
"261 49 OFFCURVE",
"248 49 CURVE",
"232 50 OFFCURVE",
"217 47 OFFCURVE",
"217 65 CURVE SMOOTH",
"217 81 OFFCURVE",
"265 164 OFFCURVE",
"299 223 CURVE",
"526 223 LINE",
"526 179 OFFCURVE",
"525 146 OFFCURVE",
"525 84 CURVE SMOOTH {name = hr05;}",
"525 56 OFFCURVE",
"506 48 OFFCURVE",
"444 48 CURVE SMOOTH",
"418 48 OFFCURVE",
"405 44 OFFCURVE",
"405 24 CURVE SMOOTH",
"405 5 OFFCURVE",
"431 0 OFFCURVE",
"451 0 CURVE",
"532 1 OFFCURVE",
"613 2 OFFCURVE",
"694 2 CURVE SMOOTH",
"785 2 OFFCURVE",
"870 0 OFFCURVE",
"961 0 CURVE SMOOTH",
"989 0 OFFCURVE",
"1000 6 OFFCURVE",
"1003 33 CURVE SMOOTH",
"1012 114 OFFCURVE",
"1019 254 OFFCURVE",
"1019 277 CURVE SMOOTH",
"1019 293 OFFCURVE",
"1017 320 OFFCURVE",
"991 320 CURVE SMOOTH"
);
},
{
closed = 1;
nodes = (
"378 287 OFFCURVE",
"349 289 OFFCURVE",
"319 289 CURVE",
"366 407 OFFCURVE",
"489 619 OFFCURVE",
"521 698 CURVE",
"521 694 LINE SMOOTH",
"521 603 OFFCURVE",
"527 575 OFFCURVE",
"527 425 CURVE SMOOTH",
"527 364 OFFCURVE",
"527 322 OFFCURVE",
"526 288 CURVE",
"488 287 OFFCURVE",
"448 287 OFFCURVE",
"410 287 CURVE SMOOTH"
);
}
);
width = 1054;
},
{
anchors = (
{
name = bottom;
position = "{538, 0}";
},
{
name = top;
position = "{538, 821}";
}
);
background = {
anchors = (
{
name = bottom;
position = "{538, 0}";
},
{
name = top;
position = "{538, 821}";
}
);
paths = (
{
closed = 1;
nodes = (
"968 326 OFFCURVE",
"957 300 OFFCURVE",
"956 273 CURVE SMOOTH",
"954 225 OFFCURVE",
"944 135 OFFCURVE",
"943 121 CURVE SMOOTH",
"940 87 OFFCURVE",
"920 84 OFFCURVE",
"900 84 CURVE SMOOTH",
"622 84 LINE",
"622 377 LINE",
"643 378 OFFCURVE",
"664 379 OFFCURVE",
"685 379 CURVE SMOOTH",
"723 379 OFFCURVE",
"746 378 OFFCURVE",
"764 378 CURVE SMOOTH",
"804 378 OFFCURVE",
"812 335 OFFCURVE",
"812 309 CURVE SMOOTH",
"812 292 OFFCURVE",
"825 270 OFFCURVE",
"853 270 CURVE SMOOTH {name = hr01;}",
"885 270 OFFCURVE",
"895 289 OFFCURVE",
"895 307 CURVE SMOOTH",
"895 344 OFFCURVE",
"893 382 OFFCURVE",
"893 420 CURVE SMOOTH",
"893 458 OFFCURVE",
"895 495 OFFCURVE",
"895 533 CURVE SMOOTH",
"895 547 OFFCURVE",
"884 570 OFFCURVE",
"854 570 CURVE SMOOTH {name = hr02;}",
"832 570 OFFCURVE",
"810 565 OFFCURVE",
"810 530 CURVE SMOOTH",
"810 489 OFFCURVE",
"806 464 OFFCURVE",
"793 464 CURVE SMOOTH {name = hr03;}",
"781 464 OFFCURVE",
"723 461 OFFCURVE",
"685 461 CURVE SMOOTH {name = hr04;}",
"663 461 OFFCURVE",
"643 463 OFFCURVE",
"622 464 CURVE {name = hr05;}",
"622 737 LINE",
"874 737 LINE SMOOTH",
"898 737 OFFCURVE",
"911 732 OFFCURVE",
"911 709 CURVE SMOOTH",
"911 645 LINE SMOOTH",
"911 627 OFFCURVE",
"915 599 OFFCURVE",
"955 599 CURVE SMOOTH {name = hr06;}",
"988 599 OFFCURVE",
"999 626 OFFCURVE",
"999 651 CURVE SMOOTH",
"999 785 LINE SMOOTH",
"999 813 OFFCURVE",
"989 821 OFFCURVE",
"971 821 CURVE SMOOTH",
"826 821 OFFCURVE",
"814 819 OFFCURVE",
"693 819 CURVE SMOOTH",
"643 819 OFFCURVE",
"541 821 OFFCURVE",
"452 821 CURVE SMOOTH",
"432 821 OFFCURVE",
"394 820 OFFCURVE",
"394 785 CURVE SMOOTH",
"394 760 OFFCURVE",
"423 757 OFFCURVE",
"434 757 CURVE SMOOTH",
"448 757 OFFCURVE",
"468 757 OFFCURVE",
"483 751 CURVE",
"403 601 OFFCURVE",
"249 256 OFFCURVE",
"155 101 CURVE SMOOTH",
"141 77 OFFCURVE",
"127 66 OFFCURVE",
"98 63 CURVE SMOOTH",
"90 62 OFFCURVE",
"30 57 OFFCURVE",
"-3 57 CURVE SMOOTH",
"-24 57 OFFCURVE",
"-42 48 OFFCURVE",
"-42 27 CURVE SMOOTH",
"-42 7 OFFCURVE",
"-27 0 OFFCURVE",
"-5 0 CURVE SMOOTH",
"37 0 OFFCURVE",
"87 2 OFFCURVE",
"129 2 CURVE SMOOTH",
"171 2 OFFCURVE",
"206 0 OFFCURVE",
"248 0 CURVE SMOOTH",
"274 0 OFFCURVE",
"293 5 OFFCURVE",
"293 31 CURVE SMOOTH",
"293 51 OFFCURVE",
"283 59 OFFCURVE",
"270 60 CURVE SMOOTH",
"254 61 OFFCURVE",
"242 63 OFFCURVE",
"242 68 CURVE SMOOTH",
"242 77 OFFCURVE",
"286 158 OFFCURVE",
"321 214 CURVE",
"529 214 LINE",
"529 177 OFFCURVE",
"528 148 OFFCURVE",
"528 96 CURVE SMOOTH {name = hr07;}",
"528 68 OFFCURVE",
"509 60 OFFCURVE",
"447 60 CURVE SMOOTH",
"421 60 OFFCURVE",
"408 55 OFFCURVE",
"408 32 CURVE SMOOTH",
"408 8 OFFCURVE",
"434 0 OFFCURVE",
"454 0 CURVE SMOOTH",
"535 0 OFFCURVE",
"616 2 OFFCURVE",
"697 2 CURVE SMOOTH",
"795 2 OFFCURVE",
"887 0 OFFCURVE",
"985 0 CURVE SMOOTH",
"1014 0 OFFCURVE",
"1024 10 OFFCURVE",
"1027 33 CURVE SMOOTH",
"1037 114 OFFCURVE",
"1043 254 OFFCURVE",
"1043 277 CURVE SMOOTH",
"1043 293 OFFCURVE",
"1038 326 OFFCURVE",
"1002 326 CURVE SMOOTH"
);
},
{
closed = 1;
nodes = (
"389 296 OFFCURVE",
"364 297 OFFCURVE",
"341 298 CURVE",
"383 414 OFFCURVE",
"495 587 OFFCURVE",
"524 664 CURVE",
"524 660 LINE SMOOTH",
"524 569 OFFCURVE",
"530 575 OFFCURVE",
"530 425 CURVE SMOOTH",
"530 368 OFFCURVE",
"530 329 OFFCURVE",
"529 297 CURVE",
"491 296 OFFCURVE",
"451 296 OFFCURVE",
"413 296 CURVE SMOOTH"
);
}
);
};
layerId = "CC5A7AC7-F03F-47C7-BE3A-F4FB7F44F819";
paths = (
{
closed = 1;
nodes = (
"968 326 OFFCURVE",
"957 300 OFFCURVE",
"956 273 CURVE SMOOTH",
"954 225 OFFCURVE",
"944 135 OFFCURVE",
"943 121 CURVE SMOOTH",
"940 87 OFFCURVE",
"920 84 OFFCURVE",
"900 84 CURVE SMOOTH",
"622 84 LINE",
"622 377 LINE",
"643 378 OFFCURVE",
"664 379 OFFCURVE",
"685 379 CURVE SMOOTH",
"723 379 OFFCURVE",
"746 378 OFFCURVE",
"764 378 CURVE SMOOTH",
"804 378 OFFCURVE",
"812 335 OFFCURVE",
"812 309 CURVE SMOOTH",
"812 292 OFFCURVE",
"825 270 OFFCURVE",
"853 270 CURVE SMOOTH {name = hr01;}",
"885 270 OFFCURVE",
"895 289 OFFCURVE",
"895 307 CURVE SMOOTH",
"895 344 OFFCURVE",
"893 382 OFFCURVE",
"893 420 CURVE SMOOTH",
"893 458 OFFCURVE",
"895 495 OFFCURVE",
"895 533 CURVE SMOOTH",
"895 547 OFFCURVE",
"884 570 OFFCURVE",
"854 570 CURVE SMOOTH {name = hr02;}",
"832 570 OFFCURVE",
"810 565 OFFCURVE",
"810 530 CURVE SMOOTH",
"810 489 OFFCURVE",
"806 464 OFFCURVE",
"793 464 CURVE SMOOTH {name = hr03;}",
"781 464 OFFCURVE",
"723 461 OFFCURVE",
"685 461 CURVE SMOOTH {name = hr04;}",
"663 461 OFFCURVE",
"643 463 OFFCURVE",
"622 464 CURVE {name = hr05;}",
"622 737 LINE",
"874 737 LINE SMOOTH",
"898 737 OFFCURVE",
"911 732 OFFCURVE",
"911 709 CURVE SMOOTH",
"911 645 LINE SMOOTH",
"911 627 OFFCURVE",
"915 599 OFFCURVE",
"955 599 CURVE SMOOTH {name = hr06;}",
"988 599 OFFCURVE",
"999 626 OFFCURVE",
"999 651 CURVE SMOOTH",
"999 785 LINE SMOOTH",
"999 813 OFFCURVE",
"989 821 OFFCURVE",
"971 821 CURVE SMOOTH",
"826 821 OFFCURVE",
"814 819 OFFCURVE",
"693 819 CURVE SMOOTH",
"643 819 OFFCURVE",
"541 821 OFFCURVE",
"452 821 CURVE SMOOTH",
"432 821 OFFCURVE",
"394 820 OFFCURVE",
"394 785 CURVE SMOOTH",
"394 760 OFFCURVE",
"423 757 OFFCURVE",
"434 757 CURVE SMOOTH",
"448 757 OFFCURVE",
"468 757 OFFCURVE",
"483 751 CURVE",
"403 601 OFFCURVE",
"249 256 OFFCURVE",
"155 101 CURVE SMOOTH",
"141 77 OFFCURVE",
"127 66 OFFCURVE",
"98 63 CURVE SMOOTH",
"90 62 OFFCURVE",
"30 57 OFFCURVE",
"-3 57 CURVE SMOOTH",
"-24 57 OFFCURVE",
"-42 48 OFFCURVE",
"-42 27 CURVE SMOOTH",
"-42 7 OFFCURVE",
"-27 0 OFFCURVE",
"-5 0 CURVE SMOOTH",
"37 0 OFFCURVE",
"87 2 OFFCURVE",
"129 2 CURVE SMOOTH",
"171 2 OFFCURVE",
"206 0 OFFCURVE",
"248 0 CURVE SMOOTH",
"274 0 OFFCURVE",
"293 5 OFFCURVE",
"293 31 CURVE SMOOTH",
"293 51 OFFCURVE",
"283 59 OFFCURVE",
"270 60 CURVE SMOOTH",
"254 61 OFFCURVE",
"242 63 OFFCURVE",
"242 68 CURVE SMOOTH",
"242 77 OFFCURVE",
"286 158 OFFCURVE",
"321 214 CURVE",
"529 214 LINE",
"529 177 OFFCURVE",
"528 148 OFFCURVE",
"528 96 CURVE SMOOTH {name = hr07;}",
"528 68 OFFCURVE",
"509 60 OFFCURVE",
"447 60 CURVE SMOOTH",
"421 60 OFFCURVE",
"408 55 OFFCURVE",
"408 32 CURVE SMOOTH",
"408 8 OFFCURVE",
"434 0 OFFCURVE",
"454 0 CURVE SMOOTH",
"535 0 OFFCURVE",
"616 2 OFFCURVE",
"697 2 CURVE SMOOTH",
"795 2 OFFCURVE",
"887 0 OFFCURVE",
"985 0 CURVE SMOOTH",
"1014 0 OFFCURVE",
"1024 10 OFFCURVE",
"1027 33 CURVE SMOOTH",
"1037 114 OFFCURVE",
"1043 254 OFFCURVE",
"1043 277 CURVE SMOOTH",
"1043 293 OFFCURVE",
"1038 326 OFFCURVE",
"1002 326 CURVE SMOOTH"
);
},
{
closed = 1;
nodes = (
"389 296 OFFCURVE",
"364 297 OFFCURVE",
"341 298 CURVE",
"383 414 OFFCURVE",
"495 587 OFFCURVE",
"524 664 CURVE",
"524 660 LINE SMOOTH",
"524 569 OFFCURVE",
"530 575 OFFCURVE",
"530 425 CURVE SMOOTH",
"530 368 OFFCURVE",
"530 329 OFFCURVE",
"529 297 CURVE",
"491 296 OFFCURVE",
"451 296 OFFCURVE",
"413 296 CURVE SMOOTH"
);
}
);
width = 1076;
}
);
leftKerningGroup = _KERN_AE_2ND;
rightKerningGroup = _KERN_E_1ST;
unicode = 00C6;
},
{
glyphname = AEacute;
layers = (
{
background = {
paths = (
{
closed = 1;
nodes = (
"644 969 OFFCURVE",
"636 972 OFFCURVE",
"625 972 CURVE SMOOTH",
"606 972 OFFCURVE",
"530 912 OFFCURVE",
"530 887 CURVE SMOOTH",
"530 878 OFFCURVE",
"533 876 OFFCURVE",
"538 876 CURVE SMOOTH",
"557 876 OFFCURVE",
"644 929 OFFCURVE",
"644 950 CURVE SMOOTH"
);
},
{
closed = 1;
nodes = (
"960 310 OFFCURVE",
"950 300 OFFCURVE",
"949 273 CURVE SMOOTH",
"947 218 OFFCURVE",
"939 109 OFFCURVE",
"936 73 CURVE SMOOTH",
"933 39 OFFCURVE",
"913 36 OFFCURVE",
"893 36 CURVE SMOOTH",
"564 36 LINE {name = hr01;}",
"564 401 LINE",
"602 402 OFFCURVE",
"640 403 OFFCURVE",
"678 403 CURVE SMOOTH",
"716 403 OFFCURVE",
"739 402 OFFCURVE",
"757 402 CURVE SMOOTH",
"797 402 OFFCURVE",
"805 345 OFFCURVE",
"805 309 CURVE SMOOTH",
"805 292 OFFCURVE",
"813 280 OFFCURVE",
"822 280 CURVE SMOOTH",
"827 280 OFFCURVE",
"837 284 OFFCURVE",
"837 307 CURVE SMOOTH {name = hr02;}",
"837 344 OFFCURVE",
"835 382 OFFCURVE",
"835 420 CURVE SMOOTH",
"835 458 OFFCURVE",
"837 495 OFFCURVE",
"837 533 CURVE SMOOTH",
"837 547 OFFCURVE",
"836 560 OFFCURVE",
"820 560 CURVE SMOOTH",
"803 560 OFFCURVE",
"803 534 OFFCURVE",
"803 530 CURVE SMOOTH",
"803 505 OFFCURVE",
"803 440 OFFCURVE",
"786 440 CURVE SMOOTH",
"774 440 OFFCURVE",
"716 437 OFFCURVE",
"678 437 CURVE SMOOTH {name = hr03;}",
"639 437 OFFCURVE",
"602 439 OFFCURVE",
"564 440 CURVE",
"564 785 LINE",
"867 785 LINE SMOOTH",
"880 785 OFFCURVE",
"904 782 OFFCURVE",
"904 757 CURVE SMOOTH",
"904 645 LINE SMOOTH",
"904 627 OFFCURVE",
"904 605 OFFCURVE",
"924 605 CURVE SMOOTH {name = hr04;}",
"939 605 OFFCURVE",
"941 626 OFFCURVE",
"941 651 CURVE SMOOTH",
"941 785 LINE SMOOTH {name = hr05;}",
"941 813 OFFCURVE",
"931 821 OFFCURVE",
"913 821 CURVE SMOOTH",
"795 821 OFFCURVE",
"785 819 OFFCURVE",
"686 819 CURVE SMOOTH",
"636 819 OFFCURVE",
"534 821 OFFCURVE",
"445 821 CURVE SMOOTH",
"425 821 OFFCURVE",
"404 818 OFFCURVE",
"404 804 CURVE SMOOTH",
"404 789 OFFCURVE",
"421 789 OFFCURVE",
"444 789 CURVE SMOOTH",
"458 789 OFFCURVE",
"478 789 OFFCURVE",
"493 783 CURVE",
"413 627 OFFCURVE",
"225 232 OFFCURVE",
"131 69 CURVE SMOOTH",
"117 45 OFFCURVE",
"103 34 OFFCURVE",
"74 31 CURVE SMOOTH",
"64 30 OFFCURVE",
"11 26 OFFCURVE",
"-18 25 CURVE",
"-31 25 OFFCURVE",
"-40 21 OFFCURVE",
"-40 14 CURVE SMOOTH",
"-40 4 OFFCURVE",
"-32 0 OFFCURVE",
"-20 0 CURVE",
"22 1 OFFCURVE",
"63 2 OFFCURVE",
"105 2 CURVE SMOOTH {name = hr06;}",
"147 2 OFFCURVE",
"192 0 OFFCURVE",
"234 0 CURVE SMOOTH {name = hr07;}",
"260 0 OFFCURVE",
"271 8 OFFCURVE",
"271 15 CURVE SMOOTH",
"271 29 OFFCURVE",
"253 29 OFFCURVE",
"240 29 CURVE",
"211 30 OFFCURVE",
"173 27 OFFCURVE",
"173 45 CURVE SMOOTH",
"173 62 OFFCURVE",
"235 174 OFFCURVE",
"268 238 CURVE",
"522 238 LINE",
"522 183 OFFCURVE",
"521 142 OFFCURVE",
"521 64 CURVE SMOOTH",
"521 36 OFFCURVE",
"502 28 OFFCURVE",
"440 28 CURVE SMOOTH",
"414 28 OFFCURVE",
"401 25 OFFCURVE",
"401 11 CURVE SMOOTH",
"401 0 OFFCURVE",
"427 0 OFFCURVE",
"447 0 CURVE",
"528 1 OFFCURVE",
"609 2 OFFCURVE",
"690 2 CURVE SMOOTH {name = hr08;}",
"771 2 OFFCURVE",
"846 0 OFFCURVE",
"927 0 CURVE SMOOTH {name = hr09;}",
"954 0 OFFCURVE",
"966 0 OFFCURVE",
"969 33 CURVE SMOOTH",
"976 114 OFFCURVE",
"985 254 OFFCURVE",
"985 277 CURVE SMOOTH",
"985 293 OFFCURVE",
"984 310 OFFCURVE",
"966 310 CURVE SMOOTH"
);
},
{
closed = 1;
nodes = (
"363 272 OFFCURVE",
"328 274 OFFCURVE",
"288 274 CURVE",
"342 396 OFFCURVE",
"480 672 OFFCURVE",
"517 754 CURVE",
"517 750 LINE SMOOTH",
"517 659 OFFCURVE",
"523 575 OFFCURVE",
"523 425 CURVE SMOOTH",
"523 357 OFFCURVE",
"523 311 OFFCURVE",
"522 273 CURVE",
"484 272 OFFCURVE",
"444 272 OFFCURVE",
"406 272 CURVE SMOOTH"
);
}
);
};
components = (
{
name = AE;
},
{
alignment = -1;
name = acutecomb.case;
transform = "{1, 0, 0, 1, 243, 0}";
}
);
layerId = master01;
width = 1023;
},
{
background = {
components = (
{
name = AE;
}
);
paths = (
{
closed = 1;
nodes = (
"660 959 OFFCURVE",
"648 972 OFFCURVE",
"628 972 CURVE SMOOTH",
"598 972 OFFCURVE",
"522 904 OFFCURVE",
"522 877 CURVE SMOOTH",
"522 864 OFFCURVE",
"532 854 OFFCURVE",
"546 854 CURVE SMOOTH",
"574 854 OFFCURVE",
"660 909 OFFCURVE",
"660 941 CURVE SMOOTH"
);
}
);
};
components = (
{
name = AE;
},
{
name = acutecomb.case;
transform = "{1, 0, 0, 1, 244, 0}";
}
);
layerId = "55D4233F-C61B-4F99-8E70-5BC40968EA26";
width = 1054;
},
{
background = {
paths = (
{
closed = 1;
nodes = (
"671 953 OFFCURVE",
"656 972 OFFCURVE",
"630 972 CURVE SMOOTH",
"592 972 OFFCURVE",
"516 899 OFFCURVE",
"516 871 CURVE SMOOTH",
"516 856 OFFCURVE",
"531 841 OFFCURVE",
"552 841 CURVE SMOOTH",
"586 841 OFFCURVE",
"671 897 OFFCURVE",
"671 936 CURVE SMOOTH"
);
},
{
closed = 1;
nodes = (
"968 326 OFFCURVE",
"957 300 OFFCURVE",
"956 273 CURVE SMOOTH",
"954 225 OFFCURVE",
"944 135 OFFCURVE",
"943 121 CURVE SMOOTH",
"940 87 OFFCURVE",
"920 84 OFFCURVE",
"900 84 CURVE SMOOTH",
"622 84 LINE {name = hr01;}",
"622 377 LINE",
"643 378 OFFCURVE",
"664 379 OFFCURVE",
"685 379 CURVE SMOOTH",
"723 379 OFFCURVE",
"746 378 OFFCURVE",
"764 378 CURVE SMOOTH",
"804 378 OFFCURVE",
"812 335 OFFCURVE",
"812 309 CURVE SMOOTH",
"812 292 OFFCURVE",
"825 270 OFFCURVE",
"853 270 CURVE SMOOTH {name = hr02;}",
"885 270 OFFCURVE",
"895 289 OFFCURVE",
"895 307 CURVE SMOOTH",
"895 344 OFFCURVE",
"893 382 OFFCURVE",
"893 420 CURVE SMOOTH",
"893 458 OFFCURVE",
"895 495 OFFCURVE",
"895 533 CURVE SMOOTH",
"895 547 OFFCURVE",
"884 570 OFFCURVE",
"854 570 CURVE SMOOTH {name = hr03;}",
"832 570 OFFCURVE",
"810 565 OFFCURVE",
"810 530 CURVE SMOOTH",
"810 489 OFFCURVE",
"806 464 OFFCURVE",
"793 464 CURVE SMOOTH {name = hr04;}",
"781 464 OFFCURVE",
"723 461 OFFCURVE",
"685 461 CURVE SMOOTH {name = hr05;}",
"663 461 OFFCURVE",
"643 463 OFFCURVE",
"622 464 CURVE {name = hr06;}",
"622 737 LINE",
"874 737 LINE SMOOTH",
"898 737 OFFCURVE",
"911 732 OFFCURVE",
"911 709 CURVE SMOOTH",
"911 645 LINE SMOOTH",
"911 627 OFFCURVE",
"915 599 OFFCURVE",
"955 599 CURVE SMOOTH {name = hr07;}",
"988 599 OFFCURVE",
"999 626 OFFCURVE",
"999 651 CURVE SMOOTH",
"999 785 LINE SMOOTH",
"999 813 OFFCURVE",
"989 821 OFFCURVE",
"971 821 CURVE SMOOTH",
"826 821 OFFCURVE",
"814 819 OFFCURVE",
"693 819 CURVE SMOOTH",
"643 819 OFFCURVE",
"541 821 OFFCURVE",
"452 821 CURVE SMOOTH",
"432 821 OFFCURVE",
"394 820 OFFCURVE",
"394 785 CURVE SMOOTH",
"394 760 OFFCURVE",
"423 757 OFFCURVE",
"434 757 CURVE SMOOTH",
"448 757 OFFCURVE",
"468 757 OFFCURVE",
"483 751 CURVE",
"403 601 OFFCURVE",
"249 256 OFFCURVE",
"155 101 CURVE SMOOTH",
"141 77 OFFCURVE",
"127 66 OFFCURVE",
"98 63 CURVE SMOOTH",
"90 62 OFFCURVE",
"30 57 OFFCURVE",
"-3 57 CURVE SMOOTH",
"-24 57 OFFCURVE",
"-42 48 OFFCURVE",
"-42 27 CURVE SMOOTH",
"-42 7 OFFCURVE",
"-27 0 OFFCURVE",
"-5 0 CURVE SMOOTH",
"37 0 OFFCURVE",
"87 2 OFFCURVE",
"129 2 CURVE SMOOTH",
"171 2 OFFCURVE",
"206 0 OFFCURVE",
"248 0 CURVE SMOOTH",
"274 0 OFFCURVE",
"293 5 OFFCURVE",
"293 31 CURVE SMOOTH",
"293 51 OFFCURVE",
"283 59 OFFCURVE",
"270 60 CURVE SMOOTH",
"254 61 OFFCURVE",
"242 63 OFFCURVE",
"242 68 CURVE SMOOTH",
"242 77 OFFCURVE",
"286 158 OFFCURVE",
"321 214 CURVE",
"529 214 LINE",
"529 177 OFFCURVE",
"528 148 OFFCURVE",
"528 96 CURVE SMOOTH {name = hr08;}",
"528 68 OFFCURVE",
"509 60 OFFCURVE",
"447 60 CURVE SMOOTH",
"421 60 OFFCURVE",
"408 55 OFFCURVE",
"408 32 CURVE SMOOTH",
"408 8 OFFCURVE",
"434 0 OFFCURVE",
"454 0 CURVE SMOOTH",
"535 0 OFFCURVE",
"616 2 OFFCURVE",
"697 2 CURVE SMOOTH",
"795 2 OFFCURVE",
"887 0 OFFCURVE",
"985 0 CURVE SMOOTH",
"1014 0 OFFCURVE",
"1024 10 OFFCURVE",
"1027 33 CURVE SMOOTH",
"1037 114 OFFCURVE",
"1043 254 OFFCURVE",
"1043 277 CURVE SMOOTH",
"1043 293 OFFCURVE",
"1038 326 OFFCURVE",
"1002 326 CURVE SMOOTH"
);
},
{
closed = 1;
nodes = (
"389 296 OFFCURVE",
"364 297 OFFCURVE",
"341 298 CURVE",
"383 414 OFFCURVE",
"495 587 OFFCURVE",
"524 664 CURVE {name = hr09;}",
"524 660 LINE SMOOTH",
"524 569 OFFCURVE",
"530 575 OFFCURVE",
"530 425 CURVE SMOOTH",
"530 368 OFFCURVE",
"530 329 OFFCURVE",
"529 297 CURVE",
"491 296 OFFCURVE",
"451 296 OFFCURVE",
"413 296 CURVE SMOOTH"
);
}
);
};
components = (
{
name = AE;
},
{
alignment = -1;
name = acutecomb.case;
transform = "{1, 0, 0, 1, 222, 0}";
}
);
layerId = "CC5A7AC7-F03F-47C7-BE3A-F4FB7F44F819";
width = 1076;
}
);
leftKerningGroup = _KERN_AE_2ND;
rightKerningGroup = _KERN_E_1ST;
unicode = 01FC;
},
{
glyphname = B;
layers = (
{
anchors = (
{
name = bottom;
position = "{333, 0}";
},
{
name = top;
position = "{333, 821}";
}
);
background = {
anchors = (
{
name = bottom;
position = "{333, 0}";
},
{
name = top;
position = "{333, 821}";
}
);
paths = (
{
closed = 1;
nodes = (
"33 28 OFFCURVE",
"21 22 OFFCURVE",
"21 12 CURVE SMOOTH",
"21 0 OFFCURVE",
"41 0 OFFCURVE",
"72 0 CURVE SMOOTH",
"262 0 LINE SMOOTH",
"455 0 OFFCURVE",
"630 58 OFFCURVE",
"630 220 CURVE SMOOTH",
"630 325 OFFCURVE",
"556 400 OFFCURVE",
"442 421 CURVE",
"532 445 OFFCURVE",
"588 519 OFFCURVE",
"588 612 CURVE SMOOTH {name = hr01;}",
"588 750 OFFCURVE",
"463 821 OFFCURVE",
"321 821 CURVE SMOOTH",
"297 821 OFFCURVE",
"146 819 OFFCURVE",
"50 818 CURVE",
"35 818 OFFCURVE",
"24 814 OFFCURVE",
"24 804 CURVE SMOOTH",
"24 796 OFFCURVE",
"32 789 OFFCURVE",
"50 789 CURVE SMOOTH",
"107 789 OFFCURVE",
"134 788 OFFCURVE",
"135 753 CURVE SMOOTH",
"137 681 OFFCURVE",
"143 456 OFFCURVE",
"143 313 CURVE SMOOTH",
"143 254 OFFCURVE",
"142 150 OFFCURVE",
"142 52 CURVE SMOOTH",
"142 29 OFFCURVE",
"90 28 OFFCURVE",
"50 28 CURVE SMOOTH"
);
},
{
closed = 1;
nodes = (
"420 395 OFFCURVE",
"586 376 OFFCURVE",
"586 222 CURVE SMOOTH {name = hr02;}",
"586 42 OFFCURVE",
"360 32 OFFCURVE",
"183 32 CURVE",
"183 392 LINE",
"210 393 OFFCURVE",
"211 395 OFFCURVE",
"262 395 CURVE SMOOTH"
);
},
{
closed = 1;
nodes = (
"399 787 OFFCURVE",
"546 753 OFFCURVE",
"546 605 CURVE SMOOTH {name = hr03;}",
"546 434 OFFCURVE",
"349 430 OFFCURVE",
"253 429 CURVE",
"209 429 OFFCURVE",
"183 430 OFFCURVE",
"183 432 CURVE",
"183 783 LINE",
"183 783 OFFCURVE",
"218 787 OFFCURVE",
"264 787 CURVE SMOOTH"
);
}
);
};
layerId = master01;
paths = (
{
closed = 1;
nodes = (
"33 28 OFFCURVE",
"21 22 OFFCURVE",
"21 12 CURVE SMOOTH",
"21 0 OFFCURVE",
"41 0 OFFCURVE",
"72 0 CURVE SMOOTH",
"262 0 LINE SMOOTH",
"455 0 OFFCURVE",
"630 58 OFFCURVE",
"630 220 CURVE SMOOTH",
"630 325 OFFCURVE",
"556 400 OFFCURVE",
"442 421 CURVE",
"532 445 OFFCURVE",
"588 519 OFFCURVE",
"588 612 CURVE SMOOTH {name = hr01;}",
"588 750 OFFCURVE",
"463 821 OFFCURVE",
"321 821 CURVE SMOOTH",
"297 821 OFFCURVE",
"146 819 OFFCURVE",
"50 818 CURVE",
"35 818 OFFCURVE",
"24 814 OFFCURVE",
"24 804 CURVE SMOOTH",
"24 796 OFFCURVE",
"32 789 OFFCURVE",
"50 789 CURVE SMOOTH",
"107 789 OFFCURVE",
"134 788 OFFCURVE",
"135 753 CURVE SMOOTH",
"137 681 OFFCURVE",
"143 456 OFFCURVE",
"143 313 CURVE SMOOTH",
"143 254 OFFCURVE",
"142 150 OFFCURVE",
"142 52 CURVE SMOOTH",
"142 29 OFFCURVE",
"90 28 OFFCURVE",
"50 28 CURVE SMOOTH"
);
},
{
closed = 1;
nodes = (
"420 395 OFFCURVE",
"586 376 OFFCURVE",
"586 222 CURVE SMOOTH {name = hr02;}",
"586 42 OFFCURVE",
"360 32 OFFCURVE",
"183 32 CURVE",
"183 392 LINE",
"210 393 OFFCURVE",
"211 395 OFFCURVE",
"262 395 CURVE SMOOTH"
);
},
{
closed = 1;
nodes = (
"399 787 OFFCURVE",
"546 753 OFFCURVE",
"546 605 CURVE SMOOTH {name = hr03;}",
"546 434 OFFCURVE",
"349 430 OFFCURVE",
"253 429 CURVE",
"209 429 OFFCURVE",
"183 430 OFFCURVE",
"183 432 CURVE",
"183 783 LINE",
"183 783 OFFCURVE",
"218 787 OFFCURVE",
"264 787 CURVE SMOOTH"
);
}
);
width = 666;
},
{
anchors = (
{
name = bottom;
position = "{345, 0}";
},
{
name = top;
position = "{345, 821}";
}
);
background = {
anchors = (
{
name = bottom;
position = "{345, 0}";
},
{
name = top;
position = "{345, 821}";
}
);
paths = (
{
closed = 1;
nodes = (
"50 48 OFFCURVE",
"38 43 OFFCURVE",
"38 25 CURVE SMOOTH",
"38 6 OFFCURVE",
"56 0 OFFCURVE",
"89 0 CURVE SMOOTH",
"289 0 LINE SMOOTH",
"482 0 OFFCURVE",
"657 58 OFFCURVE",
"657 220 CURVE SMOOTH",
"657 325 OFFCURVE",
"583 400 OFFCURVE",
"469 421 CURVE",
"559 445 OFFCURVE",
"615 519 OFFCURVE",
"615 612 CURVE SMOOTH {name = hr01;}",
"615 750 OFFCURVE",
"490 821 OFFCURVE",
"348 821 CURVE SMOOTH",
"323 821 OFFCURVE",
"167 819 OFFCURVE",
"67 818 CURVE",
"52 818 OFFCURVE",
"41 808 OFFCURVE",
"41 794 CURVE SMOOTH",
"41 777 OFFCURVE",
"49 769 OFFCURVE",
"67 769 CURVE SMOOTH",
"111 769 OFFCURVE",
"131 769 OFFCURVE",
"132 733 CURVE SMOOTH",
"134 664 OFFCURVE",
"140 449 OFFCURVE",
"140 313 CURVE SMOOTH",
"140 259 OFFCURVE",
"139 162 OFFCURVE",
"139 72 CURVE SMOOTH",
"139 49 OFFCURVE",
"94 48 OFFCURVE",
"67 48 CURVE SMOOTH"
);
},
{
closed = 1;
nodes = (
"432 380 OFFCURVE",
"583 363 OFFCURVE",
"583 222 CURVE SMOOTH",
"583 70 OFFCURVE",
"374 62 OFFCURVE",
"210 62 CURVE",
"210 377 LINE",
"237 378 OFFCURVE",
"238 380 OFFCURVE",
"289 380 CURVE SMOOTH"
);
},
{
closed = 1;
nodes = (
"412 757 OFFCURVE",
"543 729 OFFCURVE",
"543 605 CURVE SMOOTH",
"543 449 OFFCURVE",
"366 445 OFFCURVE",
"280 444 CURVE",
"236 444 OFFCURVE",
"210 445 OFFCURVE",
"210 447 CURVE",
"210 753 LINE",
"210 753 OFFCURVE",
"245 757 OFFCURVE",
"291 757 CURVE SMOOTH {name = hr02;}"
);
}
);
};
layerId = "55D4233F-C61B-4F99-8E70-5BC40968EA26";
paths = (
{
closed = 1;
nodes = (
"50 48 OFFCURVE",
"38 43 OFFCURVE",
"38 25 CURVE SMOOTH",
"38 6 OFFCURVE",
"56 0 OFFCURVE",
"89 0 CURVE SMOOTH",
"289 0 LINE SMOOTH",
"482 0 OFFCURVE",
"657 58 OFFCURVE",
"657 220 CURVE SMOOTH",
"657 325 OFFCURVE",
"583 400 OFFCURVE",
"469 421 CURVE",
"559 445 OFFCURVE",
"615 519 OFFCURVE",
"615 612 CURVE SMOOTH {name = hr01;}",
"615 750 OFFCURVE",
"490 821 OFFCURVE",
"348 821 CURVE SMOOTH",
"323 821 OFFCURVE",
"167 819 OFFCURVE",
"67 818 CURVE",
"52 818 OFFCURVE",
"41 808 OFFCURVE",
"41 794 CURVE SMOOTH",
"41 777 OFFCURVE",
"49 769 OFFCURVE",
"67 769 CURVE SMOOTH",
"111 769 OFFCURVE",
"131 769 OFFCURVE",
"132 733 CURVE SMOOTH",
"134 664 OFFCURVE",
"140 449 OFFCURVE",
"140 313 CURVE SMOOTH",
"140 259 OFFCURVE",
"139 162 OFFCURVE",
"139 72 CURVE SMOOTH",
"139 49 OFFCURVE",
"94 48 OFFCURVE",
"67 48 CURVE SMOOTH"
);
},
{
closed = 1;
nodes = (
"432 380 OFFCURVE",
"583 363 OFFCURVE",
"583 222 CURVE SMOOTH",
"583 70 OFFCURVE",
"374 62 OFFCURVE",
"210 62 CURVE",
"210 377 LINE",
"237 378 OFFCURVE",
"238 380 OFFCURVE",
"289 380 CURVE SMOOTH"
);
},
{
closed = 1;
nodes = (
"412 757 OFFCURVE",
"543 729 OFFCURVE",
"543 605 CURVE SMOOTH",
"543 449 OFFCURVE",
"366 445 OFFCURVE",
"280 444 CURVE",
"236 444 OFFCURVE",
"210 445 OFFCURVE",
"210 447 CURVE",
"210 753 LINE",
"210 753 OFFCURVE",
"245 757 OFFCURVE",
"291 757 CURVE SMOOTH {name = hr02;}"
);
}
);
width = 689;
},
{
anchors = (
{
name = bottom;
position = "{353, 0}";
},
{
name = top;
position = "{353, 821}";
}
);
background = {
anchors = (
{
name = bottom;
position = "{353, 0}";
},
{
name = top;
position = "{353, 821}";
}
);
paths = (
{
closed = 1;
nodes = (
"56 76 OFFCURVE",
"46 58 OFFCURVE",
"46 35 CURVE SMOOTH",
"46 12 OFFCURVE",
"60 0 OFFCURVE",
"94 0 CURVE SMOOTH",
"308 0 LINE SMOOTH",
"501 0 OFFCURVE",
"676 58 OFFCURVE",
"676 220 CURVE SMOOTH",
"676 325 OFFCURVE",
"602 400 OFFCURVE",
"488 421 CURVE",
"578 445 OFFCURVE",
"634 519 OFFCURVE",
"634 612 CURVE SMOOTH {name = hr01;}",
"634 750 OFFCURVE",
"509 821 OFFCURVE",
"367 821 CURVE SMOOTH",
"341 821 OFFCURVE",
"182 818 OFFCURVE",
"79 818 CURVE SMOOTH",
"58 818 OFFCURVE",
"40 801 OFFCURVE",
"40 780 CURVE SMOOTH",
"40 755 OFFCURVE",
"50 738 OFFCURVE",
"80 738 CURVE SMOOTH",
"118 738 OFFCURVE",
"128 732 OFFCURVE",
"130 701 CURVE SMOOTH",
"134 634 OFFCURVE",
"138 445 OFFCURVE",
"138 313 CURVE SMOOTH",
"138 262 OFFCURVE",
"137 185 OFFCURVE",
"137 100 CURVE SMOOTH",
"137 80 OFFCURVE",
"103 76 OFFCURVE",
"81 76 CURVE SMOOTH"
);
},
{
closed = 1;
nodes = (
"440 371 OFFCURVE",
"581 355 OFFCURVE",
"581 222 CURVE SMOOTH",
"581 113 OFFCURVE",
"460 80 OFFCURVE",
"229 80 CURVE",
"229 368 LINE",
"256 369 OFFCURVE",
"269 371 OFFCURVE",
"308 371 CURVE SMOOTH"
);
},
{
closed = 1;
nodes = (
"421 741 OFFCURVE",
"541 715 OFFCURVE",
"541 605 CURVE SMOOTH {name = hr02;}",
"541 486 OFFCURVE",
"432 454 OFFCURVE",
"299 453 CURVE",
"255 453 OFFCURVE",
"239 454 OFFCURVE",
"229 456 CURVE",
"229 737 LINE",
"240 738 OFFCURVE",
"264 741 OFFCURVE",
"310 741 CURVE SMOOTH"
);
}
);
};
layerId = "CC5A7AC7-F03F-47C7-BE3A-F4FB7F44F819";
paths = (
{
closed = 1;
nodes = (
"56 76 OFFCURVE",
"46 58 OFFCURVE",
"46 35 CURVE SMOOTH",
"46 12 OFFCURVE",
"60 0 OFFCURVE",
"94 0 CURVE SMOOTH",
"308 0 LINE SMOOTH",
"501 0 OFFCURVE",
"676 58 OFFCURVE",
"676 220 CURVE SMOOTH",
"676 325 OFFCURVE",
"602 400 OFFCURVE",
"488 421 CURVE",
"578 445 OFFCURVE",
"634 519 OFFCURVE",
"634 612 CURVE SMOOTH {name = hr01;}",
"634 750 OFFCURVE",
"509 821 OFFCURVE",
"367 821 CURVE SMOOTH",
"341 821 OFFCURVE",
"182 818 OFFCURVE",
"79 818 CURVE SMOOTH",
"58 818 OFFCURVE",
"40 801 OFFCURVE",
"40 780 CURVE SMOOTH",
"40 755 OFFCURVE",
"50 738 OFFCURVE",
"80 738 CURVE SMOOTH",
"118 738 OFFCURVE",
"128 732 OFFCURVE",
"130 701 CURVE SMOOTH",
"134 634 OFFCURVE",
"138 445 OFFCURVE",
"138 313 CURVE SMOOTH",
"138 262 OFFCURVE",
"137 185 OFFCURVE",
"137 100 CURVE SMOOTH",
"137 80 OFFCURVE",
"103 76 OFFCURVE",
"81 76 CURVE SMOOTH"
);
},
{
closed = 1;
nodes = (
"440 371 OFFCURVE",
"581 355 OFFCURVE",
"581 222 CURVE SMOOTH",
"581 113 OFFCURVE",
"460 80 OFFCURVE",
"229 80 CURVE",
"229 368 LINE",
"256 369 OFFCURVE",
"269 371 OFFCURVE",
"308 371 CURVE SMOOTH"
);
},
{
closed = 1;
nodes = (
"421 741 OFFCURVE",
"541 715 OFFCURVE",
"541 605 CURVE SMOOTH {name = hr02;}",
"541 486 OFFCURVE",
"432 454 OFFCURVE",
"299 453 CURVE",
"255 453 OFFCURVE",
"239 454 OFFCURVE",
"229 456 CURVE",
"229 737 LINE",
"240 738 OFFCURVE",
"264 741 OFFCURVE",
"310 741 CURVE SMOOTH"
);
}
);
userData = {
com.typemytype.robofont.guides = (
{
angle = 0;
isGlobal = 0;
magnetic = 5;
x = 0;
y = 738;
},
{
angle = 0;
isGlobal = 0;
magnetic = 5;
x = 0;
y = 76;
}
);
};
width = 705;
}
);
leftKerningGroup = _KERN_I_2ND;
unicode = 0042;
},
{
glyphname = C;
layers = (
{
anchors = (
{
name = bottom;
position = "{313, 0}";
},
{
name = top;
position = "{348, 820}";
}
);
background = {
anchors = (
{
name = bottom;
position = "{313, 0}";
},
{
name = top;
position = "{313, 821}";
}
);
paths = (
{
closed = 1;
nodes = (
"584 233 OFFCURVE",
"581 243 OFFCURVE",
"570 243 CURVE SMOOTH",
"556 243 OFFCURVE",
"557 213 OFFCURVE",
"553 197 CURVE SMOOTH",
"529 92 OFFCURVE",
"461 18 OFFCURVE",
"344 18 CURVE SMOOTH",
"171 18 OFFCURVE",
"86 193 OFFCURVE",
"86 404 CURVE SMOOTH",
"86 612 OFFCURVE",
"194 807 OFFCURVE",
"350 807 CURVE SMOOTH",
"480 807 OFFCURVE",
"529 679 OFFCURVE",
"529 532 CURVE SMOOTH",
"529 503 OFFCURVE",
"531 473 OFFCURVE",
"550 473 CURVE SMOOTH",
"567 473 OFFCURVE",
"569 488 OFFCURVE",
"569 507 CURVE SMOOTH",
"569 549 OFFCURVE",
"567 592 OFFCURVE",
"567 634 CURVE SMOOTH",
"567 682 OFFCURVE",
"571 743 OFFCURVE",
"571 790 CURVE SMOOTH",
"571 799 OFFCURVE",
"564 813 OFFCURVE",
"551 813 CURVE SMOOTH",
"539 813 OFFCURVE",
"532 804 OFFCURVE",
"532 788 CURVE",
"532 787 OFFCURVE",
"532 785 OFFCURVE",
"537 702 CURVE",
"517 758 OFFCURVE",
"459 838 OFFCURVE",
"349 838 CURVE SMOOTH",
"181 838 OFFCURVE",
"41 647 OFFCURVE",
"41 405 CURVE SMOOTH",
"41 106 OFFCURVE",
"191 -14 OFFCURVE",
"336 -14 CURVE SMOOTH",
"514 -14 OFFCURVE",
"584 130 OFFCURVE",
"584 214 CURVE SMOOTH"
);
}
);
};
layerId = master01;
paths = (
{
closed = 1;
nodes = (
"584 233 OFFCURVE",
"581 243 OFFCURVE",
"570 243 CURVE SMOOTH",
"556 243 OFFCURVE",
"557 213 OFFCURVE",
"553 197 CURVE SMOOTH",
"529 92 OFFCURVE",
"461 18 OFFCURVE",
"344 18 CURVE SMOOTH",
"171 18 OFFCURVE",
"86 193 OFFCURVE",
"86 404 CURVE SMOOTH",
"86 612 OFFCURVE",
"194 807 OFFCURVE",
"350 807 CURVE SMOOTH",
"480 807 OFFCURVE",
"529 679 OFFCURVE",
"529 532 CURVE SMOOTH",
"529 503 OFFCURVE",
"531 473 OFFCURVE",
"550 473 CURVE SMOOTH",
"567 473 OFFCURVE",
"569 488 OFFCURVE",
"569 507 CURVE SMOOTH",
"569 549 OFFCURVE",
"567 592 OFFCURVE",
"567 634 CURVE SMOOTH",
"567 682 OFFCURVE",
"571 743 OFFCURVE",
"571 790 CURVE SMOOTH",
"571 799 OFFCURVE",
"564 813 OFFCURVE",
"551 813 CURVE SMOOTH",
"539 813 OFFCURVE",
"532 804 OFFCURVE",
"532 788 CURVE",
"532 787 OFFCURVE",
"532 785 OFFCURVE",
"537 702 CURVE",
"517 758 OFFCURVE",
"459 838 OFFCURVE",
"349 838 CURVE SMOOTH",
"181 838 OFFCURVE",
"41 647 OFFCURVE",
"41 405 CURVE SMOOTH",
"41 106 OFFCURVE",
"191 -14 OFFCURVE",
"336 -14 CURVE SMOOTH",
"514 -14 OFFCURVE",
"584 130 OFFCURVE",
"584 214 CURVE SMOOTH"
);
}
);
width = 625;
},
{
anchors = (
{
name = bottom;
position = "{323, 0}";
},
{
name = top;
position = "{349, 822}";
}
);
background = {
anchors = (
{
name = bottom;
position = "{323, 0}";
},
{
name = top;
position = "{323, 821}";
}
);
paths = (
{
closed = 1;
nodes = (
"610 238 OFFCURVE",
"599 249 OFFCURVE",
"581 249 CURVE SMOOTH",
"557 249 OFFCURVE",
"554 230 OFFCURVE",
"549 203 CURVE SMOOTH",
"533 116 OFFCURVE",
"457 48 OFFCURVE",
"340 48 CURVE SMOOTH",
"187 48 OFFCURVE",
"112 209 OFFCURVE",
"112 404 CURVE SMOOTH",
"112 597 OFFCURVE",
"208 777 OFFCURVE",
"346 777 CURVE SMOOTH",
"476 777 OFFCURVE",
"525 658 OFFCURVE",
"525 527 CURVE SMOOTH",
"525 478 OFFCURVE",
"537 468 OFFCURVE",
"561 468 CURVE SMOOTH",
"590 468 OFFCURVE",
"595 490 OFFCURVE",
"595 502 CURVE SMOOTH",
"595 544 OFFCURVE",
"593 592 OFFCURVE",
"593 634 CURVE SMOOTH",
"593 682 OFFCURVE",
"597 743 OFFCURVE",
"597 790 CURVE SMOOTH",
"597 799 OFFCURVE",
"594 823 OFFCURVE",
"561 823 CURVE SMOOTH",
"537 823 OFFCURVE",
"528 804 OFFCURVE",
"528 788 CURVE",
"528 787 OFFCURVE",
"528 785 OFFCURVE",
"533 702 CURVE",
"513 758 OFFCURVE",
"455 838 OFFCURVE",
"345 838 CURVE SMOOTH {name = hr01;}",
"177 838 OFFCURVE",
"37 647 OFFCURVE",
"37 405 CURVE SMOOTH",
"37 106 OFFCURVE",
"187 -14 OFFCURVE",
"332 -14 CURVE SMOOTH",
"532 -14 OFFCURVE",
"610 135 OFFCURVE",
"610 219 CURVE SMOOTH"
);
}
);
};
layerId = "55D4233F-C61B-4F99-8E70-5BC40968EA26";
paths = (
{
closed = 1;
nodes = (
"610 238 OFFCURVE",
"599 249 OFFCURVE",
"581 249 CURVE SMOOTH",
"557 249 OFFCURVE",
"554 230 OFFCURVE",
"549 203 CURVE SMOOTH",
"533 116 OFFCURVE",
"457 48 OFFCURVE",
"340 48 CURVE SMOOTH",
"187 48 OFFCURVE",
"112 209 OFFCURVE",
"112 404 CURVE SMOOTH",
"112 597 OFFCURVE",
"208 777 OFFCURVE",
"346 777 CURVE SMOOTH",
"476 777 OFFCURVE",
"525 658 OFFCURVE",
"525 527 CURVE SMOOTH",
"525 478 OFFCURVE",
"537 468 OFFCURVE",
"561 468 CURVE SMOOTH",
"590 468 OFFCURVE",
"595 490 OFFCURVE",
"595 502 CURVE SMOOTH",
"595 544 OFFCURVE",
"593 592 OFFCURVE",
"593 634 CURVE SMOOTH",
"593 682 OFFCURVE",
"597 743 OFFCURVE",
"597 790 CURVE SMOOTH",
"597 799 OFFCURVE",
"594 823 OFFCURVE",
"561 823 CURVE SMOOTH",
"537 823 OFFCURVE",
"528 804 OFFCURVE",
"528 788 CURVE",
"528 787 OFFCURVE",
"528 785 OFFCURVE",
"533 702 CURVE",
"513 758 OFFCURVE",
"455 838 OFFCURVE",
"345 838 CURVE SMOOTH {name = hr01;}",
"177 838 OFFCURVE",
"37 647 OFFCURVE",
"37 405 CURVE SMOOTH",
"37 106 OFFCURVE",
"187 -14 OFFCURVE",
"332 -14 CURVE SMOOTH",
"532 -14 OFFCURVE",
"610 135 OFFCURVE",
"610 219 CURVE SMOOTH"
);
}
);
width = 646;
},
{
anchors = (
{
name = bottom;
position = "{331, 0}";
},
{
name = top;
position = "{337, 819}";
}
);
background = {
anchors = (
{
name = bottom;
position = "{331, 0}";
},
{
name = top;
position = "{331, 821}";
}
);
paths = (
{
closed = 1;
nodes = (
"628 241 OFFCURVE",
"615 253 OFFCURVE",
"592 253 CURVE SMOOTH",
"567 253 OFFCURVE",
"558 244 OFFCURVE",
"546 207 CURVE SMOOTH",
"512 102 OFFCURVE",
"451 66 OFFCURVE",
"337 66 CURVE SMOOTH",
"198 66 OFFCURVE",
"130 219 OFFCURVE",
"130 404 CURVE SMOOTH",
"130 588 OFFCURVE",
"218 759 OFFCURVE",
"343 759 CURVE SMOOTH",
"470 759 OFFCURVE",
"520 640 OFFCURVE",
"522 524 CURVE SMOOTH",
"523 474 OFFCURVE",
"538 465 OFFCURVE",
"570 465 CURVE SMOOTH",
"603 465 OFFCURVE",
"613 481 OFFCURVE",
"613 513 CURVE SMOOTH",
"613 555 OFFCURVE",
"611 592 OFFCURVE",
"611 634 CURVE SMOOTH",
"611 682 OFFCURVE",
"615 740 OFFCURVE",
"615 787 CURVE SMOOTH",
"615 797 OFFCURVE",
"614 829 OFFCURVE",
"570 829 CURVE SMOOTH {name = hr01;}",
"538 829 OFFCURVE",
"532 812 OFFCURVE",
"532 793 CURVE SMOOTH",
"532 790 OFFCURVE",
"532 777 OFFCURVE",
"536 707 CURVE",
"516 763 OFFCURVE",
"452 838 OFFCURVE",
"342 838 CURVE SMOOTH {name = hr02;}",
"174 838 OFFCURVE",
"34 647 OFFCURVE",
"34 405 CURVE SMOOTH",
"34 106 OFFCURVE",
"184 -14 OFFCURVE",
"329 -14 CURVE SMOOTH",
"545 -14 OFFCURVE",
"628 138 OFFCURVE",
"628 222 CURVE SMOOTH"
);
}
);
};
layerId = "CC5A7AC7-F03F-47C7-BE3A-F4FB7F44F819";
paths = (
{
closed = 1;
nodes = (
"628 241 OFFCURVE",
"615 253 OFFCURVE",
"592 253 CURVE SMOOTH",
"567 253 OFFCURVE",
"558 244 OFFCURVE",
"546 207 CURVE SMOOTH",
"512 102 OFFCURVE",
"451 66 OFFCURVE",
"337 66 CURVE SMOOTH",
"198 66 OFFCURVE",
"130 219 OFFCURVE",
"130 404 CURVE SMOOTH",
"130 588 OFFCURVE",
"218 759 OFFCURVE",
"343 759 CURVE SMOOTH",
"470 759 OFFCURVE",
"520 640 OFFCURVE",
"522 524 CURVE SMOOTH",
"523 474 OFFCURVE",
"538 465 OFFCURVE",
"570 465 CURVE SMOOTH",
"603 465 OFFCURVE",
"613 481 OFFCURVE",
"613 513 CURVE SMOOTH",
"613 555 OFFCURVE",
"611 592 OFFCURVE",
"611 634 CURVE SMOOTH",
"611 682 OFFCURVE",
"615 740 OFFCURVE",
"615 787 CURVE SMOOTH",
"615 797 OFFCURVE",
"614 829 OFFCURVE",
"570 829 CURVE SMOOTH {name = hr01;}",
"538 829 OFFCURVE",
"532 812 OFFCURVE",
"532 793 CURVE SMOOTH",
"532 790 OFFCURVE",
"532 777 OFFCURVE",
"536 707 CURVE",
"516 763 OFFCURVE",
"452 838 OFFCURVE",
"342 838 CURVE SMOOTH {name = hr02;}",
"174 838 OFFCURVE",
"34 647 OFFCURVE",
"34 405 CURVE SMOOTH",
"34 106 OFFCURVE",
"184 -14 OFFCURVE",
"329 -14 CURVE SMOOTH",
"545 -14 OFFCURVE",
"628 138 OFFCURVE",
"628 222 CURVE SMOOTH"
);
}
);
width = 661;
}
);
leftKerningGroup = _KERN_O_2ND;
rightKerningGroup = _KERN_C_1ST;
unicode = 0043;
},
{
glyphname = Cacute;
layers = (
{
background = {
paths = (
{
closed = 1;
nodes = (
"405 968 OFFCURVE",
"397 971 OFFCURVE",
"386 971 CURVE SMOOTH",
"367 971 OFFCURVE",
"291 911 OFFCURVE",
"291 886 CURVE SMOOTH",
"291 877 OFFCURVE",
"294 875 OFFCURVE",
"299 875 CURVE SMOOTH",
"318 875 OFFCURVE",
"405 928 OFFCURVE",
"405 949 CURVE SMOOTH"
);
},
{
closed = 1;
nodes = (
"584 233 OFFCURVE",
"581 243 OFFCURVE",
"570 243 CURVE SMOOTH",
"556 243 OFFCURVE",
"557 213 OFFCURVE",
"553 197 CURVE SMOOTH",
"529 92 OFFCURVE",
"461 18 OFFCURVE",
"344 18 CURVE SMOOTH",
"171 18 OFFCURVE",
"86 193 OFFCURVE",
"86 404 CURVE SMOOTH",
"86 612 OFFCURVE",
"194 807 OFFCURVE",
"350 807 CURVE SMOOTH",
"480 807 OFFCURVE",
"529 679 OFFCURVE",
"529 532 CURVE SMOOTH",
"529 503 OFFCURVE",
"531 473 OFFCURVE",
"550 473 CURVE SMOOTH",
"567 473 OFFCURVE",
"569 488 OFFCURVE",
"569 507 CURVE SMOOTH",
"569 549 OFFCURVE",
"567 592 OFFCURVE",
"567 634 CURVE SMOOTH",
"567 682 OFFCURVE",
"571 743 OFFCURVE",
"571 790 CURVE SMOOTH",
"571 799 OFFCURVE",
"564 813 OFFCURVE",
"551 813 CURVE SMOOTH",
"539 813 OFFCURVE",
"532 804 OFFCURVE",
"532 788 CURVE",
"532 787 OFFCURVE",
"532 785 OFFCURVE",
"537 702 CURVE",
"517 758 OFFCURVE",
"459 838 OFFCURVE",
"349 838 CURVE SMOOTH {name = hr01;}",
"181 838 OFFCURVE",
"41 647 OFFCURVE",
"41 405 CURVE SMOOTH",
"41 106 OFFCURVE",
"191 -14 OFFCURVE",
"336 -14 CURVE SMOOTH",
"514 -14 OFFCURVE",
"584 130 OFFCURVE",
"584 214 CURVE SMOOTH"
);
}
);
};
components = (
{
name = C;
},
{
name = acutecomb.case;
transform = "{1, 0, 0, 1, 4, -1}";
}
);
layerId = master01;
width = 625;
},
{
background = {
components = (
{
name = C;
}
);
paths = (
{
closed = 1;
nodes = (
"441 959 OFFCURVE",
"429 972 OFFCURVE",
"409 972 CURVE SMOOTH",
"379 972 OFFCURVE",
"303 904 OFFCURVE",
"303 877 CURVE SMOOTH",
"303 864 OFFCURVE",
"313 854 OFFCURVE",
"327 854 CURVE SMOOTH",
"355 854 OFFCURVE",
"441 909 OFFCURVE",
"441 941 CURVE SMOOTH"
);
}
);
};
components = (
{
name = C;
},
{
name = acutecomb.case;
transform = "{1, 0, 0, 1, 13, 1}";
}
);
layerId = "55D4233F-C61B-4F99-8E70-5BC40968EA26";
width = 646;
},
{
background = {
paths = (
{
closed = 1;
nodes = (
"436 953 OFFCURVE",
"421 972 OFFCURVE",
"395 972 CURVE SMOOTH",
"357 972 OFFCURVE",
"281 899 OFFCURVE",
"281 871 CURVE SMOOTH",
"281 855 OFFCURVE",
"296 840 OFFCURVE",
"317 840 CURVE SMOOTH",
"351 840 OFFCURVE",
"436 897 OFFCURVE",
"436 935 CURVE SMOOTH"
);
},
{
closed = 1;
nodes = (
"628 241 OFFCURVE",
"615 253 OFFCURVE",
"592 253 CURVE SMOOTH",
"567 253 OFFCURVE",
"558 244 OFFCURVE",
"546 207 CURVE SMOOTH",
"512 102 OFFCURVE",
"451 66 OFFCURVE",
"337 66 CURVE SMOOTH",
"198 66 OFFCURVE",
"130 219 OFFCURVE",
"130 404 CURVE SMOOTH",
"130 588 OFFCURVE",
"218 759 OFFCURVE",
"343 759 CURVE SMOOTH",
"470 759 OFFCURVE",
"520 640 OFFCURVE",
"522 524 CURVE SMOOTH",
"523 474 OFFCURVE",
"538 465 OFFCURVE",
"570 465 CURVE SMOOTH",
"603 465 OFFCURVE",
"613 481 OFFCURVE",
"613 513 CURVE SMOOTH",
"613 555 OFFCURVE",
"611 592 OFFCURVE",
"611 634 CURVE SMOOTH",
"611 682 OFFCURVE",
"615 740 OFFCURVE",
"615 787 CURVE SMOOTH",
"615 797 OFFCURVE",
"614 829 OFFCURVE",
"570 829 CURVE SMOOTH {name = hr01;}",
"538 829 OFFCURVE",
"532 812 OFFCURVE",
"532 793 CURVE SMOOTH",
"532 790 OFFCURVE",
"532 777 OFFCURVE",
"536 707 CURVE",
"516 763 OFFCURVE",
"452 838 OFFCURVE",
"342 838 CURVE SMOOTH {name = hr02;}",
"174 838 OFFCURVE",
"34 647 OFFCURVE",
"34 405 CURVE SMOOTH",
"34 106 OFFCURVE",
"184 -14 OFFCURVE",
"329 -14 CURVE SMOOTH",
"545 -14 OFFCURVE",
"628 138 OFFCURVE",
"628 222 CURVE SMOOTH"
);
}
);
};
components = (
{
name = C;
},
{
name = acutecomb.case;
transform = "{1, 0, 0, 1, -35, -2}";
}
);
layerId = "CC5A7AC7-F03F-47C7-BE3A-F4FB7F44F819";
width = 661;
}
);
leftKerningGroup = _KERN_O_2ND;
rightKerningGroup = _KERN_C_1ST;
unicode = 0106;
},
{
glyphname = Ccaron;
layers = (
{
background = {
paths = (
{
closed = 1;
nodes = (
"451 972 OFFCURVE",
"391 943 OFFCURVE",
"345 920 CURVE",
"289 943 OFFCURVE",
"240 972 OFFCURVE",
"226 972 CURVE SMOOTH",
"221 972 OFFCURVE",
"218 970 OFFCURVE",
"218 961 CURVE SMOOTH",
"218 936 OFFCURVE",
"322 876 OFFCURVE",
"345 876 CURVE SMOOTH",
"370 876 OFFCURVE",
"473 936 OFFCURVE",
"473 961 CURVE SMOOTH",
"473 970 OFFCURVE",
"470 972 OFFCURVE",
"465 972 CURVE SMOOTH"
);
},
{
closed = 1;
nodes = (
"584 233 OFFCURVE",
"581 243 OFFCURVE",
"570 243 CURVE SMOOTH",
"556 243 OFFCURVE",
"557 213 OFFCURVE",
"553 197 CURVE SMOOTH",
"529 92 OFFCURVE",
"461 18 OFFCURVE",
"344 18 CURVE SMOOTH",
"171 18 OFFCURVE",
"86 193 OFFCURVE",
"86 404 CURVE SMOOTH",
"86 612 OFFCURVE",
"194 807 OFFCURVE",
"350 807 CURVE SMOOTH",
"480 807 OFFCURVE",
"529 679 OFFCURVE",
"529 532 CURVE SMOOTH",
"529 503 OFFCURVE",
"531 473 OFFCURVE",
"550 473 CURVE SMOOTH",
"567 473 OFFCURVE",
"569 488 OFFCURVE",
"569 507 CURVE SMOOTH",
"569 549 OFFCURVE",
"567 592 OFFCURVE",
"567 634 CURVE SMOOTH",
"567 682 OFFCURVE",
"571 743 OFFCURVE",
"571 790 CURVE SMOOTH",
"571 799 OFFCURVE",
"564 813 OFFCURVE",
"551 813 CURVE SMOOTH",
"539 813 OFFCURVE",
"532 804 OFFCURVE",
"532 788 CURVE",
"532 787 OFFCURVE",
"532 785 OFFCURVE",
"537 702 CURVE",
"517 758 OFFCURVE",
"459 838 OFFCURVE",
"349 838 CURVE SMOOTH {name = hr01;}",
"181 838 OFFCURVE",
"41 647 OFFCURVE",
"41 405 CURVE SMOOTH",
"41 106 OFFCURVE",
"191 -14 OFFCURVE",
"336 -14 CURVE SMOOTH",
"514 -14 OFFCURVE",
"584 130 OFFCURVE",
"584 214 CURVE SMOOTH"
);
}
);
};
components = (
{
name = C;
},
{
alignment = -1;
name = caroncomb.case;
transform = "{1, 0, 0, 1, 69, 0}";
}
);
layerId = master01;
width = 625;
},
{
background = {
components = (
{
name = C;
}
);
paths = (
{
closed = 1;
nodes = (
"447 972 OFFCURVE",
"387 948 OFFCURVE",
"341 921 CURVE",
"295 948 OFFCURVE",
"236 972 OFFCURVE",
"222 972 CURVE SMOOTH",
"215 972 OFFCURVE",
"211 967 OFFCURVE",
"211 959 CURVE SMOOTH",
"211 917 OFFCURVE",
"321 847 OFFCURVE",
"341 847 CURVE SMOOTH",
"365 847 OFFCURVE",
"472 919 OFFCURVE",
"472 955 CURVE SMOOTH",
"472 964 OFFCURVE",
"469 972 OFFCURVE",
"461 972 CURVE SMOOTH"
);
}
);
};
components = (
{
name = C;
},
{
name = caroncomb.case;
transform = "{1, 0, 0, 1, 59, 1}";
}
);
layerId = "55D4233F-C61B-4F99-8E70-5BC40968EA26";
width = 646;
},
{
background = {
paths = (
{
closed = 1;
nodes = (
"628 241 OFFCURVE",
"615 253 OFFCURVE",
"592 253 CURVE SMOOTH",
"567 253 OFFCURVE",
"558 244 OFFCURVE",
"546 207 CURVE SMOOTH",
"512 102 OFFCURVE",
"451 66 OFFCURVE",
"337 66 CURVE SMOOTH",
"198 66 OFFCURVE",
"130 219 OFFCURVE",
"130 404 CURVE SMOOTH",
"130 588 OFFCURVE",
"218 759 OFFCURVE",
"343 759 CURVE SMOOTH",
"470 759 OFFCURVE",
"520 640 OFFCURVE",
"522 524 CURVE SMOOTH",
"523 474 OFFCURVE",
"538 465 OFFCURVE",
"570 465 CURVE SMOOTH",
"603 465 OFFCURVE",
"613 481 OFFCURVE",
"613 513 CURVE SMOOTH",
"613 555 OFFCURVE",
"611 592 OFFCURVE",
"611 634 CURVE SMOOTH",
"611 682 OFFCURVE",
"615 740 OFFCURVE",
"615 787 CURVE SMOOTH",
"615 797 OFFCURVE",
"614 829 OFFCURVE",
"570 829 CURVE SMOOTH {name = hr01;}",
"538 829 OFFCURVE",
"532 812 OFFCURVE",
"532 793 CURVE SMOOTH",
"532 790 OFFCURVE",
"532 777 OFFCURVE",
"536 707 CURVE",
"517 759 OFFCURVE",
"461 827 OFFCURVE",
"365 837 CURVE {name = hr02;}",
"405 857 OFFCURVE",
"478 916 OFFCURVE",
"478 951 CURVE SMOOTH",
"478 960 OFFCURVE",
"475 972 OFFCURVE",
"465 972 CURVE SMOOTH {name = hr03;}",
"451 972 OFFCURVE",
"391 951 OFFCURVE",
"345 922 CURVE",
"306 951 OFFCURVE",
"240 972 OFFCURVE",
"226 972 CURVE SMOOTH",
"218 972 OFFCURVE",
"213 965 OFFCURVE",
"213 958 CURVE SMOOTH",
"213 915 OFFCURVE",
"288 857 OFFCURVE",
"326 837 CURVE {name = hr04;}",
"165 826 OFFCURVE",
"34 639 OFFCURVE",
"34 405 CURVE SMOOTH",
"34 106 OFFCURVE",
"184 -14 OFFCURVE",
"329 -14 CURVE SMOOTH",
"545 -14 OFFCURVE",
"628 138 OFFCURVE",
"628 222 CURVE SMOOTH"
);
}
);
};
components = (
{
name = C;
},
{
alignment = -1;
name = caroncomb.case;
transform = "{1, 0, 0, 1, 22, 10}";
}
);
layerId = "CC5A7AC7-F03F-47C7-BE3A-F4FB7F44F819";
width = 661;
}
);
leftKerningGroup = _KERN_O_2ND;
rightKerningGroup = _KERN_C_1ST;
unicode = 010C;
},
{
glyphname = Ccedilla;
layers = (
{
background = {
paths = (
{
closed = 1;
nodes = (
"584 233 OFFCURVE",
"581 243 OFFCURVE",
"570 243 CURVE SMOOTH",
"556 243 OFFCURVE",
"557 213 OFFCURVE",
"553 197 CURVE SMOOTH",
"529 92 OFFCURVE",
"461 18 OFFCURVE",
"344 18 CURVE SMOOTH",
"171 18 OFFCURVE",
"86 193 OFFCURVE",
"86 404 CURVE SMOOTH",
"86 612 OFFCURVE",
"194 807 OFFCURVE",
"350 807 CURVE SMOOTH",
"480 807 OFFCURVE",
"529 679 OFFCURVE",
"529 532 CURVE SMOOTH",
"529 503 OFFCURVE",
"531 473 OFFCURVE",
"550 473 CURVE SMOOTH",
"567 473 OFFCURVE",
"569 488 OFFCURVE",
"569 507 CURVE SMOOTH",
"569 549 OFFCURVE",
"567 592 OFFCURVE",
"567 634 CURVE SMOOTH",
"567 682 OFFCURVE",
"571 743 OFFCURVE",
"571 790 CURVE SMOOTH",
"571 799 OFFCURVE",
"564 813 OFFCURVE",
"551 813 CURVE SMOOTH",
"539 813 OFFCURVE",
"532 804 OFFCURVE",
"532 788 CURVE",
"532 787 OFFCURVE",
"532 785 OFFCURVE",
"537 702 CURVE",
"517 758 OFFCURVE",
"459 838 OFFCURVE",
"349 838 CURVE SMOOTH",
"181 838 OFFCURVE",
"41 647 OFFCURVE",
"41 405 CURVE SMOOTH",
"41 114 OFFCURVE",
"183 -8 OFFCURVE",
"324 -14 CURVE",
"321 -37 OFFCURVE",
"314 -75 OFFCURVE",
"310 -96 CURVE SMOOTH",
"309 -101 OFFCURVE",
"307 -109 OFFCURVE",
"307 -113 CURVE SMOOTH",
"307 -118 OFFCURVE",
"313 -125 OFFCURVE",
"323 -125 CURVE SMOOTH",
"342 -125 OFFCURVE",
"378 -97 OFFCURVE",
"415 -97 CURVE SMOOTH {name = hr01;}",
"444 -97 OFFCURVE",
"458 -115 OFFCURVE",
"458 -134 CURVE SMOOTH",
"458 -165 OFFCURVE",
"423 -177 OFFCURVE",
"362 -177 CURVE SMOOTH",
"336 -177 OFFCURVE",
"321 -177 OFFCURVE",
"321 -189 CURVE SMOOTH",
"321 -198 OFFCURVE",
"329 -206 OFFCURVE",
"366 -206 CURVE SMOOTH",
"434 -206 OFFCURVE",
"495 -180 OFFCURVE",
"495 -128 CURVE SMOOTH",
"495 -90 OFFCURVE",
"462 -65 OFFCURVE",
"418 -65 CURVE SMOOTH",
"390 -65 OFFCURVE",
"370 -75 OFFCURVE",
"338 -94 CURVE",
"353 -13 LINE",
"518 -4 OFFCURVE",
"584 133 OFFCURVE",
"584 214 CURVE SMOOTH"
);
}
);
};
components = (
{
name = C;
},
{
name = cedillacomb;
transform = "{1, 0, 0, 1, 287, -25}";
}
);
layerId = master01;
width = 625;
},
{
background = {
components = (
{
name = C;
},
{
name = cedilla;
transform = "{1, 0, 0, 1, 316, 0}";
}
);
};
components = (
{
name = C;
},
{
name = cedillacomb;
transform = "{1, 0, 0, 1, 316, 0}";
}
);
layerId = "55D4233F-C61B-4F99-8E70-5BC40968EA26";
width = 646;
},
{
background = {
paths = (
{
closed = 1;
nodes = (
"628 241 OFFCURVE",
"615 253 OFFCURVE",
"592 253 CURVE SMOOTH",
"567 253 OFFCURVE",
"558 244 OFFCURVE",
"546 207 CURVE SMOOTH",
"512 102 OFFCURVE",
"451 66 OFFCURVE",
"337 66 CURVE SMOOTH",
"198 66 OFFCURVE",
"130 219 OFFCURVE",
"130 404 CURVE SMOOTH",
"130 588 OFFCURVE",
"218 759 OFFCURVE",
"343 759 CURVE SMOOTH",
"470 759 OFFCURVE",
"520 640 OFFCURVE",
"522 524 CURVE SMOOTH",
"523 474 OFFCURVE",
"538 465 OFFCURVE",
"570 465 CURVE SMOOTH",
"603 465 OFFCURVE",
"613 481 OFFCURVE",
"613 513 CURVE SMOOTH",
"613 555 OFFCURVE",
"611 592 OFFCURVE",
"611 634 CURVE SMOOTH",
"611 682 OFFCURVE",
"615 740 OFFCURVE",
"615 787 CURVE SMOOTH",
"615 797 OFFCURVE",
"614 829 OFFCURVE",
"570 829 CURVE SMOOTH {name = hr01;}",
"538 829 OFFCURVE",
"532 812 OFFCURVE",
"532 793 CURVE SMOOTH",
"532 790 OFFCURVE",
"532 777 OFFCURVE",
"536 707 CURVE",
"516 763 OFFCURVE",
"452 838 OFFCURVE",
"342 838 CURVE SMOOTH {name = hr02;}",
"174 838 OFFCURVE",
"34 647 OFFCURVE",
"34 405 CURVE SMOOTH",
"34 130 OFFCURVE",
"160 7 OFFCURVE",
"293 -11 CURVE",
"291 -28 OFFCURVE",
"288 -57 OFFCURVE",
"283 -80 CURVE SMOOTH",
"282 -85 OFFCURVE",
"280 -93 OFFCURVE",
"280 -97 CURVE SMOOTH",
"280 -112 OFFCURVE",
"288 -130 OFFCURVE",
"318 -130 CURVE SMOOTH",
"361 -130 OFFCURVE",
"371 -102 OFFCURVE",
"408 -102 CURVE SMOOTH {name = hr03;}",
"419 -102 OFFCURVE",
"431 -107 OFFCURVE",
"431 -118 CURVE SMOOTH",
"431 -134 OFFCURVE",
"422 -140 OFFCURVE",
"386 -140 CURVE SMOOTH",
"314 -140 OFFCURVE",
"311 -159 OFFCURVE",
"311 -168 CURVE SMOOTH {name = hr04;}",
"311 -185 OFFCURVE",
"334 -190 OFFCURVE",
"390 -190 CURVE SMOOTH",
"458 -190 OFFCURVE",
"519 -164 OFFCURVE",
"519 -112 CURVE SMOOTH",
"519 -74 OFFCURVE",
"486 -49 OFFCURVE",
"442 -49 CURVE SMOOTH",
"414 -49 OFFCURVE",
"394 -59 OFFCURVE",
"362 -78 CURVE",
"374 -11 LINE",
"556 8 OFFCURVE",
"628 144 OFFCURVE",
"628 222 CURVE SMOOTH"
);
}
);
};
components = (
{
name = C;
},
{
name = cedillacomb;
transform = "{1, 0, 0, 1, 311, -9}";
}
);
layerId = "CC5A7AC7-F03F-47C7-BE3A-F4FB7F44F819";
width = 661;
}
);
leftKerningGroup = _KERN_O_2ND;
rightKerningGroup = _KERN_C_1ST;
unicode = 00C7;
},
{
glyphname = Ccircumflex;
layers = (
{
background = {
paths = (
{
closed = 1;
nodes = (
"472 875 OFFCURVE",
"475 877 OFFCURVE",
"475 886 CURVE SMOOTH",
"475 911 OFFCURVE",
"372 972 OFFCURVE",
"347 972 CURVE SMOOTH",
"324 972 OFFCURVE",
"220 911 OFFCURVE",
"220 886 CURVE SMOOTH",
"220 877 OFFCURVE",
"223 875 OFFCURVE",
"228 875 CURVE SMOOTH",
"242 875 OFFCURVE",
"311 905 OFFCURVE",
"347 928 CURVE",
"383 905 OFFCURVE",
"453 875 OFFCURVE",
"467 875 CURVE SMOOTH"
);
},
{
closed = 1;
nodes = (
"584 233 OFFCURVE",
"581 243 OFFCURVE",
"570 243 CURVE SMOOTH",
"556 243 OFFCURVE",
"557 213 OFFCURVE",
"553 197 CURVE SMOOTH",
"529 92 OFFCURVE",
"461 18 OFFCURVE",
"344 18 CURVE SMOOTH",
"171 18 OFFCURVE",
"86 193 OFFCURVE",
"86 404 CURVE SMOOTH",
"86 612 OFFCURVE",
"194 807 OFFCURVE",
"350 807 CURVE SMOOTH",
"480 807 OFFCURVE",
"529 679 OFFCURVE",
"529 532 CURVE SMOOTH",
"529 503 OFFCURVE",
"531 473 OFFCURVE",
"550 473 CURVE SMOOTH",
"567 473 OFFCURVE",
"569 488 OFFCURVE",
"569 507 CURVE SMOOTH",
"569 549 OFFCURVE",
"567 592 OFFCURVE",
"567 634 CURVE SMOOTH",
"567 682 OFFCURVE",
"571 743 OFFCURVE",
"571 790 CURVE SMOOTH",
"571 799 OFFCURVE",
"564 813 OFFCURVE",
"551 813 CURVE SMOOTH",
"539 813 OFFCURVE",
"532 804 OFFCURVE",
"532 788 CURVE",
"532 787 OFFCURVE",
"532 785 OFFCURVE",
"537 702 CURVE",
"517 758 OFFCURVE",
"459 838 OFFCURVE",
"349 838 CURVE SMOOTH {name = hr01;}",
"181 838 OFFCURVE",
"41 647 OFFCURVE",
"41 405 CURVE SMOOTH",
"41 106 OFFCURVE",
"191 -14 OFFCURVE",
"336 -14 CURVE SMOOTH",
"514 -14 OFFCURVE",
"584 130 OFFCURVE",
"584 214 CURVE SMOOTH"
);
}
);
};
components = (
{
name = C;
},
{
name = circumflexcomb.case;
transform = "{1, 0, 0, 1, 3, -1}";
}
);
layerId = master01;
width = 625;
},
{
background = {
components = (
{
name = C;
}
);
paths = (
{
closed = 1;
nodes = (
"469 847 OFFCURVE",
"472 855 OFFCURVE",
"472 864 CURVE SMOOTH",
"472 900 OFFCURVE",
"365 972 OFFCURVE",
"341 972 CURVE SMOOTH",
"321 972 OFFCURVE",
"211 902 OFFCURVE",
"211 860 CURVE SMOOTH",
"211 852 OFFCURVE",
"215 847 OFFCURVE",
"222 847 CURVE SMOOTH",
"236 847 OFFCURVE",
"295 871 OFFCURVE",
"341 898 CURVE",
"387 871 OFFCURVE",
"447 847 OFFCURVE",
"461 847 CURVE SMOOTH"
);
}
);
};
components = (
{
name = C;
},
{
name = circumflexcomb.case;
transform = "{1, 0, 0, 1, -18, 1}";
}
);
layerId = "55D4233F-C61B-4F99-8E70-5BC40968EA26";
width = 646;
},
{
background = {
paths = (
{
closed = 1;
nodes = (
"467 830 OFFCURVE",
"470 842 OFFCURVE",
"470 851 CURVE SMOOTH",
"470 893 OFFCURVE",
"360 972 OFFCURVE",
"337 972 CURVE SMOOTH {name = hr01;}",
"319 972 OFFCURVE",
"205 897 OFFCURVE",
"205 844 CURVE SMOOTH",
"205 837 OFFCURVE",
"209 830 OFFCURVE",
"218 830 CURVE SMOOTH {name = hr02;}",
"232 830 OFFCURVE",
"284 851 OFFCURVE",
"337 880 CURVE",
"390 851 OFFCURVE",
"443 830 OFFCURVE",
"457 830 CURVE SMOOTH"
);
},
{
closed = 1;
nodes = (
"628 241 OFFCURVE",
"615 253 OFFCURVE",
"592 253 CURVE SMOOTH",
"567 253 OFFCURVE",
"558 244 OFFCURVE",
"546 207 CURVE SMOOTH",
"512 102 OFFCURVE",
"451 66 OFFCURVE",
"337 66 CURVE SMOOTH",
"198 66 OFFCURVE",
"130 219 OFFCURVE",
"130 404 CURVE SMOOTH",
"130 588 OFFCURVE",
"218 759 OFFCURVE",
"343 759 CURVE SMOOTH {name = hr03;}",
"470 759 OFFCURVE",
"520 640 OFFCURVE",
"522 524 CURVE SMOOTH",
"523 474 OFFCURVE",
"538 465 OFFCURVE",
"570 465 CURVE SMOOTH",
"603 465 OFFCURVE",
"613 481 OFFCURVE",
"613 513 CURVE SMOOTH",
"613 555 OFFCURVE",
"611 592 OFFCURVE",
"611 634 CURVE SMOOTH",
"611 682 OFFCURVE",
"615 740 OFFCURVE",
"615 787 CURVE SMOOTH",
"615 797 OFFCURVE",
"614 829 OFFCURVE",
"570 829 CURVE SMOOTH {name = hr04;}",
"538 829 OFFCURVE",
"532 812 OFFCURVE",
"532 793 CURVE SMOOTH",
"532 790 OFFCURVE",
"532 777 OFFCURVE",
"536 707 CURVE",
"516 763 OFFCURVE",
"452 838 OFFCURVE",
"342 838 CURVE SMOOTH {name = hr05;}",
"174 838 OFFCURVE",
"34 647 OFFCURVE",
"34 405 CURVE SMOOTH",
"34 106 OFFCURVE",
"184 -14 OFFCURVE",
"329 -14 CURVE SMOOTH",
"545 -14 OFFCURVE",
"628 138 OFFCURVE",
"628 222 CURVE SMOOTH"
);
}
);
};
components = (
{
name = C;
},
{
name = circumflexcomb.case;
transform = "{1, 0, 0, 1, -32, -2}";
}
);
layerId = "CC5A7AC7-F03F-47C7-BE3A-F4FB7F44F819";
width = 661;
}
);
leftKerningGroup = _KERN_O_2ND;
rightKerningGroup = _KERN_C_1ST;
unicode = 0108;
},
{
glyphname = Cdotaccent;
layers = (
{
background = {
components = (
{
name = dotaccentcomb.case;
}
);
paths = (
{
closed = 1;
nodes = (
"584 233 OFFCURVE",
"581 243 OFFCURVE",
"570 243 CURVE SMOOTH",
"556 243 OFFCURVE",
"557 213 OFFCURVE",
"553 197 CURVE SMOOTH",
"529 92 OFFCURVE",
"461 18 OFFCURVE",
"344 18 CURVE SMOOTH",
"171 18 OFFCURVE",
"86 193 OFFCURVE",
"86 404 CURVE SMOOTH",
"86 612 OFFCURVE",
"194 807 OFFCURVE",
"350 807 CURVE SMOOTH",
"480 807 OFFCURVE",
"529 679 OFFCURVE",
"529 532 CURVE SMOOTH",
"529 503 OFFCURVE",
"531 473 OFFCURVE",
"550 473 CURVE SMOOTH",
"567 473 OFFCURVE",
"569 488 OFFCURVE",
"569 507 CURVE SMOOTH",
"569 549 OFFCURVE",
"567 592 OFFCURVE",
"567 634 CURVE SMOOTH",
"567 682 OFFCURVE",
"571 743 OFFCURVE",
"571 790 CURVE SMOOTH",
"571 799 OFFCURVE",
"564 813 OFFCURVE",
"551 813 CURVE SMOOTH",
"539 813 OFFCURVE",
"532 804 OFFCURVE",
"532 788 CURVE",
"532 787 OFFCURVE",
"532 785 OFFCURVE",
"537 702 CURVE",
"517 758 OFFCURVE",
"459 838 OFFCURVE",
"349 838 CURVE SMOOTH",
"181 838 OFFCURVE",
"41 647 OFFCURVE",
"41 405 CURVE SMOOTH",
"41 106 OFFCURVE",
"191 -14 OFFCURVE",
"336 -14 CURVE SMOOTH",
"514 -14 OFFCURVE",
"584 130 OFFCURVE",
"584 214 CURVE SMOOTH"
);
}
);
};
components = (
{
name = C;
},
{
name = dotaccentcomb.case;
transform = "{1, 0, 0, 1, 0, -1}";
}
);
layerId = master01;
width = 625;
},
{
background = {
components = (
{
name = C;
},
{
name = dotaccentcomb;
transform = "{1, 0, 0, 1, 281, 336}";
}
);
};
components = (
{
name = C;
},
{
name = dotaccentcomb.case;
transform = "{1, 0, 0, 1, 4, 1}";
}
);
layerId = "55D4233F-C61B-4F99-8E70-5BC40968EA26";
width = 646;
},
{
background = {
components = (
{
name = dotaccentcomb.case;
}
);
paths = (
{
closed = 1;
nodes = (
"628 241 OFFCURVE",
"615 253 OFFCURVE",
"592 253 CURVE SMOOTH",
"567 253 OFFCURVE",
"558 244 OFFCURVE",
"546 207 CURVE SMOOTH",
"512 102 OFFCURVE",
"451 66 OFFCURVE",
"337 66 CURVE SMOOTH",
"198 66 OFFCURVE",
"130 219 OFFCURVE",
"130 404 CURVE SMOOTH",
"130 588 OFFCURVE",
"218 759 OFFCURVE",
"343 759 CURVE SMOOTH",
"470 759 OFFCURVE",
"520 640 OFFCURVE",
"522 524 CURVE SMOOTH",
"523 474 OFFCURVE",
"538 465 OFFCURVE",
"570 465 CURVE SMOOTH",
"603 465 OFFCURVE",
"613 481 OFFCURVE",
"613 513 CURVE SMOOTH",
"613 555 OFFCURVE",
"611 592 OFFCURVE",
"611 634 CURVE SMOOTH",
"611 682 OFFCURVE",
"615 740 OFFCURVE",
"615 787 CURVE SMOOTH",
"615 797 OFFCURVE",
"614 829 OFFCURVE",
"570 829 CURVE SMOOTH {name = hr01;}",
"538 829 OFFCURVE",
"532 812 OFFCURVE",
"532 793 CURVE SMOOTH",
"532 790 OFFCURVE",
"532 777 OFFCURVE",
"536 707 CURVE",
"516 763 OFFCURVE",
"452 838 OFFCURVE",
"342 838 CURVE SMOOTH {name = hr02;}",
"174 838 OFFCURVE",
"34 647 OFFCURVE",
"34 405 CURVE SMOOTH",
"34 106 OFFCURVE",
"184 -14 OFFCURVE",
"329 -14 CURVE SMOOTH",
"545 -14 OFFCURVE",
"628 138 OFFCURVE",
"628 222 CURVE SMOOTH"
);
}
);
};
components = (
{
name = C;
},
{
name = dotaccentcomb.case;
transform = "{1, 0, 0, 1, -9, -2}";
}
);
layerId = "CC5A7AC7-F03F-47C7-BE3A-F4FB7F44F819";
width = 661;
}
);
leftKerningGroup = _KERN_O_2ND;
rightKerningGroup = _KERN_C_1ST;
unicode = 010A;
},
{
glyphname = D;
layers = (
{
anchors = (
{
name = bottom;
position = "{337, 0}";
},
{
name = center;
position = "{337, 411}";
},
{
name = top;
position = "{337, 821}";
}
);
background = {
anchors = (
{
name = bottom;
position = "{337, 0}";
},
{
name = center;
position = "{337, 411}";
},
{
name = top;
position = "{337, 821}";
}
);
paths = (
{
closed = 1;
nodes = (
"30 817 OFFCURVE",
"24 812 OFFCURVE",
"24 805 CURVE SMOOTH",
"24 798 OFFCURVE",
"30 789 OFFCURVE",
"47 789 CURVE SMOOTH",
"102 789 OFFCURVE",
"135 788 OFFCURVE",
"135 747 CURVE SMOOTH",
"135 681 OFFCURVE",
"142 489 OFFCURVE",
"142 437 CURVE SMOOTH",
"142 245 OFFCURVE",
"141 206 OFFCURVE",
"141 52 CURVE SMOOTH",
"141 28 OFFCURVE",
"86 28 OFFCURVE",
"52 28 CURVE SMOOTH",
"29 28 OFFCURVE",
"21 21 OFFCURVE",
"21 12 CURVE SMOOTH",
"21 2 OFFCURVE",
"35 0 OFFCURVE",
"57 0 CURVE SMOOTH",
"241 0 LINE SMOOTH",
"503 0 OFFCURVE",
"634 199 OFFCURVE",
"634 439 CURVE SMOOTH",
"634 723 OFFCURVE",
"420 821 OFFCURVE",
"251 821 CURVE SMOOTH",
"170 821 OFFCURVE",
"111 820 OFFCURVE",
"45 818 CURVE SMOOTH"
);
},
{
closed = 1;
nodes = (
"484 786 OFFCURVE",
"589 630 OFFCURVE",
"589 439 CURVE SMOOTH",
"589 209 OFFCURVE",
"486 34 OFFCURVE",
"245 34 CURVE SMOOTH",
"221 34 OFFCURVE",
"183 34 OFFCURVE",
"183 44 CURVE SMOOTH",
"183 782 LINE",
"203 783 OFFCURVE",
"225 786 OFFCURVE",
"245 786 CURVE SMOOTH"
);
}
);
};
layerId = master01;
paths = (
{
closed = 1;
nodes = (
"30 817 OFFCURVE",
"24 812 OFFCURVE",
"24 805 CURVE SMOOTH",
"24 798 OFFCURVE",
"30 789 OFFCURVE",
"47 789 CURVE SMOOTH",
"102 789 OFFCURVE",
"135 788 OFFCURVE",
"135 747 CURVE SMOOTH",
"135 681 OFFCURVE",
"142 489 OFFCURVE",
"142 437 CURVE SMOOTH",
"142 245 OFFCURVE",
"141 206 OFFCURVE",
"141 52 CURVE SMOOTH",
"141 28 OFFCURVE",
"86 28 OFFCURVE",
"52 28 CURVE SMOOTH",
"29 28 OFFCURVE",
"21 21 OFFCURVE",
"21 12 CURVE SMOOTH",
"21 2 OFFCURVE",
"35 0 OFFCURVE",
"57 0 CURVE SMOOTH",
"241 0 LINE SMOOTH",
"503 0 OFFCURVE",
"634 199 OFFCURVE",
"634 439 CURVE SMOOTH",
"634 723 OFFCURVE",
"420 821 OFFCURVE",
"251 821 CURVE SMOOTH",
"170 821 OFFCURVE",
"111 820 OFFCURVE",
"45 818 CURVE SMOOTH"
);
},
{
closed = 1;
nodes = (
"484 786 OFFCURVE",
"589 630 OFFCURVE",
"589 439 CURVE SMOOTH",
"589 209 OFFCURVE",
"486 34 OFFCURVE",
"245 34 CURVE SMOOTH",
"221 34 OFFCURVE",
"183 34 OFFCURVE",
"183 44 CURVE SMOOTH",
"183 782 LINE",
"203 783 OFFCURVE",
"225 786 OFFCURVE",
"245 786 CURVE SMOOTH"
);
}
);
width = 674;
},
{
anchors = (
{
name = bottom;
position = "{349, 0}";
},
{
name = center;
position = "{349, 411}";
},
{
name = top;
position = "{349, 821}";
}
);
background = {
anchors = (
{
name = bottom;
position = "{349, 0}";
},
{
name = center;
position = "{349, 411}";
},
{
name = top;
position = "{349, 821}";
}
);
paths = (
{
closed = 1;
nodes = (
"48 817 OFFCURVE",
"42 805 OFFCURVE",
"42 794 CURVE SMOOTH",
"42 781 OFFCURVE",
"49 769 OFFCURVE",
"65 769 CURVE SMOOTH",
"101 769 OFFCURVE",
"133 767 OFFCURVE",
"133 727 CURVE SMOOTH",
"133 665 OFFCURVE",
"140 486 OFFCURVE",
"140 437 CURVE SMOOTH",
"140 255 OFFCURVE",
"139 218 OFFCURVE",
"139 72 CURVE SMOOTH",
"139 48 OFFCURVE",
"93 48 OFFCURVE",
"70 48 CURVE SMOOTH",
"47 48 OFFCURVE",
"39 41 OFFCURVE",
"39 24 CURVE SMOOTH",
"39 7 OFFCURVE",
"53 0 OFFCURVE",
"75 0 CURVE SMOOTH",
"269 0 LINE SMOOTH",
"531 0 OFFCURVE",
"662 199 OFFCURVE",
"662 439 CURVE SMOOTH",
"662 723 OFFCURVE",
"448 821 OFFCURVE",
"279 821 CURVE SMOOTH",
"198 821 OFFCURVE",
"129 820 OFFCURVE",
"63 818 CURVE SMOOTH"
);
},
{
closed = 1;
nodes = (
"491 756 OFFCURVE",
"587 613 OFFCURVE",
"587 439 CURVE SMOOTH",
"587 226 OFFCURVE",
"493 64 OFFCURVE",
"273 64 CURVE SMOOTH",
"249 64 OFFCURVE",
"211 64 OFFCURVE",
"211 74 CURVE SMOOTH",
"211 752 LINE",
"231 753 OFFCURVE",
"253 756 OFFCURVE",
"273 756 CURVE SMOOTH {name = hr01;}"
);
}
);
};
layerId = "55D4233F-C61B-4F99-8E70-5BC40968EA26";
paths = (
{
closed = 1;
nodes = (
"48 817 OFFCURVE",
"42 805 OFFCURVE",
"42 794 CURVE SMOOTH",
"42 781 OFFCURVE",
"49 769 OFFCURVE",
"65 769 CURVE SMOOTH",
"101 769 OFFCURVE",
"133 767 OFFCURVE",
"133 727 CURVE SMOOTH",
"133 665 OFFCURVE",
"140 486 OFFCURVE",
"140 437 CURVE SMOOTH",
"140 255 OFFCURVE",
"139 218 OFFCURVE",
"139 72 CURVE SMOOTH",
"139 48 OFFCURVE",
"93 48 OFFCURVE",
"70 48 CURVE SMOOTH",
"47 48 OFFCURVE",
"39 41 OFFCURVE",
"39 24 CURVE SMOOTH",
"39 7 OFFCURVE",
"53 0 OFFCURVE",
"75 0 CURVE SMOOTH",
"269 0 LINE SMOOTH",
"531 0 OFFCURVE",
"662 199 OFFCURVE",
"662 439 CURVE SMOOTH",
"662 723 OFFCURVE",
"448 821 OFFCURVE",
"279 821 CURVE SMOOTH",
"198 821 OFFCURVE",
"129 820 OFFCURVE",
"63 818 CURVE SMOOTH"
);
},
{
closed = 1;
nodes = (
"491 756 OFFCURVE",
"587 613 OFFCURVE",
"587 439 CURVE SMOOTH",
"587 226 OFFCURVE",
"493 64 OFFCURVE",
"273 64 CURVE SMOOTH",
"249 64 OFFCURVE",
"211 64 OFFCURVE",
"211 74 CURVE SMOOTH",
"211 752 LINE",
"231 753 OFFCURVE",
"253 756 OFFCURVE",
"273 756 CURVE SMOOTH {name = hr01;}"
);
}
);
width = 698;
},
{
anchors = (
{
name = bottom;
position = "{358, 0}";
},
{
name = center;
position = "{358, 411}";
},
{
name = top;
position = "{358, 821}";
}
);
background = {
anchors = (
{
name = bottom;
position = "{358, 0}";
},
{
name = center;
position = "{358, 411}";
},
{
name = top;
position = "{358, 821}";
}
);
paths = (
{
closed = 1;
nodes = (
"41 750 OFFCURVE",
"55 738 OFFCURVE",
"78 738 CURVE SMOOTH",
"107 738 OFFCURVE",
"132 731 OFFCURVE",
"132 696 CURVE SMOOTH",
"132 636 OFFCURVE",
"139 484 OFFCURVE",
"139 437 CURVE SMOOTH {name = hr01;}",
"139 261 OFFCURVE",
"138 238 OFFCURVE",
"138 97 CURVE SMOOTH",
"138 81 OFFCURVE",
"120 76 OFFCURVE",
"83 73 CURVE SMOOTH",
"56 71 OFFCURVE",
"41 62 OFFCURVE",
"41 31 CURVE SMOOTH {name = hr02;}",
"41 11 OFFCURVE",
"52 0 OFFCURVE",
"78 0 CURVE SMOOTH",
"289 0 LINE SMOOTH",
"551 0 OFFCURVE",
"682 199 OFFCURVE",
"682 439 CURVE SMOOTH",
"682 723 OFFCURVE",
"468 821 OFFCURVE",
"299 821 CURVE SMOOTH",
"218 821 OFFCURVE",
"142 821 OFFCURVE",
"76 818 CURVE SMOOTH",
"54 817 OFFCURVE",
"41 800 OFFCURVE",
"41 776 CURVE SMOOTH"
);
},
{
closed = 1;
nodes = (
"496 738 OFFCURVE",
"586 603 OFFCURVE",
"586 439 CURVE SMOOTH",
"586 236 OFFCURVE",
"498 82 OFFCURVE",
"293 82 CURVE SMOOTH",
"269 82 OFFCURVE",
"231 82 OFFCURVE",
"231 92 CURVE SMOOTH",
"231 734 LINE",
"251 735 OFFCURVE",
"273 738 OFFCURVE",
"293 738 CURVE SMOOTH"
);
}
);
};
layerId = "CC5A7AC7-F03F-47C7-BE3A-F4FB7F44F819";
paths = (
{
closed = 1;
nodes = (
"41 750 OFFCURVE",
"55 738 OFFCURVE",
"78 738 CURVE SMOOTH",
"107 738 OFFCURVE",
"132 731 OFFCURVE",
"132 696 CURVE SMOOTH",
"132 636 OFFCURVE",
"139 484 OFFCURVE",
"139 437 CURVE SMOOTH {name = hr01;}",
"139 261 OFFCURVE",
"138 238 OFFCURVE",
"138 97 CURVE SMOOTH",
"138 81 OFFCURVE",
"120 76 OFFCURVE",
"83 73 CURVE SMOOTH",
"56 71 OFFCURVE",
"41 62 OFFCURVE",
"41 31 CURVE SMOOTH {name = hr02;}",
"41 11 OFFCURVE",
"52 0 OFFCURVE",
"78 0 CURVE SMOOTH",
"289 0 LINE SMOOTH",
"551 0 OFFCURVE",
"682 199 OFFCURVE",
"682 439 CURVE SMOOTH",
"682 723 OFFCURVE",
"468 821 OFFCURVE",
"299 821 CURVE SMOOTH",
"218 821 OFFCURVE",
"142 821 OFFCURVE",
"76 818 CURVE SMOOTH",
"54 817 OFFCURVE",
"41 800 OFFCURVE",
"41 776 CURVE SMOOTH"
);
},
{
closed = 1;
nodes = (
"496 738 OFFCURVE",
"586 603 OFFCURVE",
"586 439 CURVE SMOOTH",
"586 236 OFFCURVE",
"498 82 OFFCURVE",
"293 82 CURVE SMOOTH",
"269 82 OFFCURVE",
"231 82 OFFCURVE",
"231 92 CURVE SMOOTH",
"231 734 LINE",
"251 735 OFFCURVE",
"273 738 OFFCURVE",
"293 738 CURVE SMOOTH"
);
}
);
width = 715;
}
);
leftKerningGroup = _KERN_I_2ND;
rightKerningGroup = _KERN_D_1ST;
unicode = 0044;
},
{
glyphname = Eth;
layers = (
{
background = {
paths = (
{
closed = 1;
nodes = (
"30 817 OFFCURVE",
"24 812 OFFCURVE",
"24 805 CURVE SMOOTH",
"24 798 OFFCURVE",
"30 789 OFFCURVE",
"47 789 CURVE SMOOTH",
"102 789 OFFCURVE",
"135 788 OFFCURVE",
"135 747 CURVE SMOOTH",
"135 681 OFFCURVE",
"142 489 OFFCURVE",
"142 437 CURVE SMOOTH",
"142 426 LINE",
"107 426 OFFCURVE",
"62 428 OFFCURVE",
"47 428 CURVE SMOOTH",
"36 428 OFFCURVE",
"31 416 OFFCURVE",
"31 409 CURVE SMOOTH",
"31 402 OFFCURVE",
"38 389 OFFCURVE",
"47 389 CURVE SMOOTH",
"142 389 LINE",
"142 243 OFFCURVE",
"141 190 OFFCURVE",
"141 52 CURVE SMOOTH",
"141 28 OFFCURVE",
"86 28 OFFCURVE",
"52 28 CURVE SMOOTH",
"29 28 OFFCURVE",
"21 21 OFFCURVE",
"21 12 CURVE SMOOTH",
"21 2 OFFCURVE",
"35 0 OFFCURVE",
"57 0 CURVE SMOOTH",
"241 0 LINE SMOOTH",
"503 0 OFFCURVE",
"634 199 OFFCURVE",
"634 439 CURVE SMOOTH",
"634 723 OFFCURVE",
"420 821 OFFCURVE",
"251 821 CURVE SMOOTH",
"170 821 OFFCURVE",
"111 820 OFFCURVE",
"45 818 CURVE SMOOTH"
);
},
{
closed = 1;
nodes = (
"484 786 OFFCURVE",
"589 630 OFFCURVE",
"589 439 CURVE SMOOTH",
"589 209 OFFCURVE",
"486 34 OFFCURVE",
"245 34 CURVE SMOOTH",
"221 34 OFFCURVE",
"183 34 OFFCURVE",
"183 44 CURVE SMOOTH",
"183 389 LINE",
"224 389 OFFCURVE",
"265 390 OFFCURVE",
"288 390 CURVE SMOOTH",
"303 390 OFFCURVE",
"307 406 OFFCURVE",
"307 412 CURVE SMOOTH",
"307 419 OFFCURVE",
"301 429 OFFCURVE",
"296 429 CURVE SMOOTH",
"267 429 OFFCURVE",
"230 426 OFFCURVE",
"183 426 CURVE",
"183 782 LINE",
"203 783 OFFCURVE",
"225 786 OFFCURVE",
"245 786 CURVE SMOOTH"
);
}
);
};
layerId = master01;
paths = (
{
closed = 1;
nodes = (
"30 817 OFFCURVE",
"24 812 OFFCURVE",
"24 805 CURVE SMOOTH",
"24 798 OFFCURVE",
"30 789 OFFCURVE",
"47 789 CURVE SMOOTH",
"102 789 OFFCURVE",
"135 788 OFFCURVE",
"135 747 CURVE SMOOTH",
"135 681 OFFCURVE",
"142 489 OFFCURVE",
"142 437 CURVE SMOOTH",
"142 426 LINE",
"107 426 OFFCURVE",
"62 428 OFFCURVE",
"47 428 CURVE SMOOTH",
"36 428 OFFCURVE",
"31 416 OFFCURVE",
"31 409 CURVE SMOOTH",
"31 402 OFFCURVE",
"38 389 OFFCURVE",
"47 389 CURVE SMOOTH",
"142 389 LINE",
"142 243 OFFCURVE",
"141 190 OFFCURVE",
"141 52 CURVE SMOOTH",
"141 28 OFFCURVE",
"86 28 OFFCURVE",
"52 28 CURVE SMOOTH",
"29 28 OFFCURVE",
"21 21 OFFCURVE",
"21 12 CURVE SMOOTH",
"21 2 OFFCURVE",
"35 0 OFFCURVE",
"57 0 CURVE SMOOTH",
"241 0 LINE SMOOTH",
"503 0 OFFCURVE",
"634 199 OFFCURVE",
"634 439 CURVE SMOOTH",
"634 723 OFFCURVE",
"420 821 OFFCURVE",
"251 821 CURVE SMOOTH",
"170 821 OFFCURVE",
"111 820 OFFCURVE",
"45 818 CURVE SMOOTH"
);
},
{
closed = 1;
nodes = (
"484 786 OFFCURVE",
"589 630 OFFCURVE",
"589 439 CURVE SMOOTH",
"589 209 OFFCURVE",
"486 34 OFFCURVE",
"245 34 CURVE SMOOTH",
"221 34 OFFCURVE",
"183 34 OFFCURVE",
"183 44 CURVE SMOOTH",
"183 389 LINE",
"224 389 OFFCURVE",
"265 390 OFFCURVE",
"288 390 CURVE SMOOTH",
"303 390 OFFCURVE",
"307 406 OFFCURVE",
"307 412 CURVE SMOOTH",
"307 419 OFFCURVE",
"301 429 OFFCURVE",
"296 429 CURVE SMOOTH",
"267 429 OFFCURVE",
"230 426 OFFCURVE",
"183 426 CURVE",
"183 782 LINE",
"203 783 OFFCURVE",
"225 786 OFFCURVE",
"245 786 CURVE SMOOTH"
);
}
);
width = 674;
},
{
background = {
components = (
{
name = D;
transform = "{1, 0, 0, 1, 2, 0}";
}
);
paths = (
{
closed = 1;
nodes = (
"294 444 OFFCURVE",
"253 441 OFFCURVE",
"198 441 CURVE SMOOTH {name = hr01;}",
"164 441 OFFCURVE",
"96 443 OFFCURVE",
"77 443 CURVE SMOOTH {name = hr02;}",
"59 443 OFFCURVE",
"51 422 OFFCURVE",
"51 409 CURVE SMOOTH",
"51 397 OFFCURVE",
"62 374 OFFCURVE",
"77 374 CURVE SMOOTH {name = hr03;}",
"124 374 OFFCURVE",
"265 375 OFFCURVE",
"318 375 CURVE SMOOTH {name = hr04;}",
"341 375 OFFCURVE",
"347 402 OFFCURVE",
"347 412 CURVE SMOOTH",
"347 425 OFFCURVE",
"336 444 OFFCURVE",
"326 444 CURVE SMOOTH"
);
}
);
};
layerId = "55D4233F-C61B-4F99-8E70-5BC40968EA26";
paths = (
{
closed = 1;
nodes = (
"41 7 OFFCURVE",
"55 0 OFFCURVE",
"77 0 CURVE SMOOTH",
"271 0 LINE SMOOTH",
"533 0 OFFCURVE",
"664 199 OFFCURVE",
"664 439 CURVE SMOOTH",
"664 723 OFFCURVE",
"450 821 OFFCURVE",
"281 821 CURVE SMOOTH",
"200 821 OFFCURVE",
"131 820 OFFCURVE",
"65 818 CURVE",
"50 817 OFFCURVE",
"44 805 OFFCURVE",
"44 794 CURVE SMOOTH",
"44 781 OFFCURVE",
"51 769 OFFCURVE",
"67 769 CURVE SMOOTH",
"103 769 OFFCURVE",
"135 767 OFFCURVE",
"135 727 CURVE SMOOTH",
"135 667 OFFCURVE",
"142 497 OFFCURVE",
"142 442 CURVE",
"77 443 LINE SMOOTH",
"59 443 OFFCURVE",
"51 422 OFFCURVE",
"51 409 CURVE SMOOTH",
"51 397 OFFCURVE",
"62 374 OFFCURVE",
"77 374 CURVE SMOOTH",
"142 374 LINE",
"142 244 OFFCURVE",
"141 199 OFFCURVE",
"141 72 CURVE SMOOTH",
"141 48 OFFCURVE",
"95 48 OFFCURVE",
"72 48 CURVE SMOOTH",
"49 48 OFFCURVE",
"41 41 OFFCURVE",
"41 24 CURVE SMOOTH"
);
},
{
closed = 1;
nodes = (
"213 375 LINE",
"318 375 LINE SMOOTH",
"341 375 OFFCURVE",
"347 402 OFFCURVE",
"347 412 CURVE SMOOTH",
"347 425 OFFCURVE",
"336 444 OFFCURVE",
"326 444 CURVE SMOOTH",
"297 444 OFFCURVE",
"261 442 OFFCURVE",
"213 441 CURVE",
"213 752 LINE",
"233 753 OFFCURVE",
"255 756 OFFCURVE",
"275 756 CURVE SMOOTH {name = hr01;}",
"493 756 OFFCURVE",
"589 613 OFFCURVE",
"589 439 CURVE SMOOTH",
"589 226 OFFCURVE",
"495 64 OFFCURVE",
"275 64 CURVE SMOOTH",
"251 64 OFFCURVE",
"213 64 OFFCURVE",
"213 74 CURVE SMOOTH"
);
}
);
width = 700;
},
{
background = {
paths = (
{
closed = 1;
nodes = (
"44 750 OFFCURVE",
"58 738 OFFCURVE",
"81 738 CURVE SMOOTH",
"110 738 OFFCURVE",
"135 731 OFFCURVE",
"135 696 CURVE SMOOTH {name = hr01;}",
"135 641 OFFCURVE",
"141 509 OFFCURVE",
"142 451 CURVE",
"123 451 OFFCURVE",
"106 452 OFFCURVE",
"98 452 CURVE SMOOTH",
"75 452 OFFCURVE",
"65 426 OFFCURVE",
"65 409 CURVE SMOOTH",
"65 394 OFFCURVE",
"79 365 OFFCURVE",
"98 365 CURVE SMOOTH",
"142 365 LINE",
"142 257 OFFCURVE",
"141 213 OFFCURVE",
"141 97 CURVE SMOOTH",
"141 81 OFFCURVE",
"123 76 OFFCURVE",
"86 73 CURVE SMOOTH",
"59 71 OFFCURVE",
"44 62 OFFCURVE",
"44 31 CURVE SMOOTH {name = hr02;}",
"44 11 OFFCURVE",
"55 0 OFFCURVE",
"81 0 CURVE SMOOTH",
"292 0 LINE SMOOTH",
"554 0 OFFCURVE",
"685 199 OFFCURVE",
"685 439 CURVE SMOOTH",
"685 723 OFFCURVE",
"471 821 OFFCURVE",
"302 821 CURVE SMOOTH",
"221 821 OFFCURVE",
"145 821 OFFCURVE",
"79 818 CURVE SMOOTH",
"57 817 OFFCURVE",
"44 800 OFFCURVE",
"44 776 CURVE SMOOTH"
);
},
{
closed = 1;
nodes = (
"499 738 OFFCURVE",
"589 603 OFFCURVE",
"589 439 CURVE SMOOTH",
"589 236 OFFCURVE",
"501 82 OFFCURVE",
"296 82 CURVE SMOOTH",
"272 82 OFFCURVE",
"234 82 OFFCURVE",
"234 92 CURVE SMOOTH",
"234 365 LINE",
"275 365 OFFCURVE",
"316 366 OFFCURVE",
"339 366 CURVE SMOOTH",
"368 366 OFFCURVE",
"375 400 OFFCURVE",
"375 412 CURVE SMOOTH",
"375 429 OFFCURVE",
"361 453 OFFCURVE",
"347 453 CURVE SMOOTH",
"318 453 OFFCURVE",
"281 450 OFFCURVE",
"234 450 CURVE",
"234 734 LINE",
"254 735 OFFCURVE",
"276 738 OFFCURVE",
"296 738 CURVE SMOOTH"
);
}
);
};
layerId = "CC5A7AC7-F03F-47C7-BE3A-F4FB7F44F819";
paths = (
{
closed = 1;
nodes = (
"44 750 OFFCURVE",
"58 738 OFFCURVE",
"81 738 CURVE SMOOTH",
"110 738 OFFCURVE",
"135 731 OFFCURVE",
"135 696 CURVE SMOOTH {name = hr01;}",
"135 641 OFFCURVE",
"141 509 OFFCURVE",
"142 451 CURVE",
"123 451 OFFCURVE",
"106 452 OFFCURVE",
"98 452 CURVE SMOOTH",
"75 452 OFFCURVE",
"65 426 OFFCURVE",
"65 409 CURVE SMOOTH",
"65 394 OFFCURVE",
"79 365 OFFCURVE",
"98 365 CURVE SMOOTH",
"142 365 LINE",
"142 257 OFFCURVE",
"141 213 OFFCURVE",
"141 97 CURVE SMOOTH",
"141 81 OFFCURVE",
"123 76 OFFCURVE",
"86 73 CURVE SMOOTH",
"59 71 OFFCURVE",
"44 62 OFFCURVE",
"44 31 CURVE SMOOTH {name = hr02;}",
"44 11 OFFCURVE",
"55 0 OFFCURVE",
"81 0 CURVE SMOOTH",
"292 0 LINE SMOOTH",
"554 0 OFFCURVE",
"685 199 OFFCURVE",
"685 439 CURVE SMOOTH",
"685 723 OFFCURVE",
"471 821 OFFCURVE",
"302 821 CURVE SMOOTH",
"221 821 OFFCURVE",
"145 821 OFFCURVE",
"79 818 CURVE SMOOTH",
"57 817 OFFCURVE",
"44 800 OFFCURVE",
"44 776 CURVE SMOOTH"
);
},
{
closed = 1;
nodes = (
"499 738 OFFCURVE",
"589 603 OFFCURVE",
"589 439 CURVE SMOOTH",
"589 236 OFFCURVE",
"501 82 OFFCURVE",
"296 82 CURVE SMOOTH",
"272 82 OFFCURVE",
"234 82 OFFCURVE",
"234 92 CURVE SMOOTH",
"234 365 LINE",
"275 365 OFFCURVE",
"316 366 OFFCURVE",
"339 366 CURVE SMOOTH",
"368 366 OFFCURVE",
"375 400 OFFCURVE",
"375 412 CURVE SMOOTH",
"375 429 OFFCURVE",
"361 453 OFFCURVE",
"347 453 CURVE SMOOTH",
"318 453 OFFCURVE",
"281 450 OFFCURVE",
"234 450 CURVE",
"234 734 LINE",
"254 735 OFFCURVE",
"276 738 OFFCURVE",
"296 738 CURVE SMOOTH"
);
}
);
width = 718;
}
);
leftKerningGroup = _KERN_I_2ND;
rightKerningGroup = _KERN_D_1ST;
unicode = 00D0;
},
{
glyphname = Dcaron;
layers = (
{
background = {
components = (
{
name = caroncomb.case;
}
);
paths = (
{
closed = 1;
nodes = (
"30 817 OFFCURVE",
"24 812 OFFCURVE",
"24 805 CURVE SMOOTH",
"24 798 OFFCURVE",
"30 789 OFFCURVE",
"47 789 CURVE SMOOTH",
"102 789 OFFCURVE",
"135 788 OFFCURVE",
"135 747 CURVE SMOOTH",
"135 681 OFFCURVE",
"142 489 OFFCURVE",
"142 437 CURVE SMOOTH {name = hr01;}",
"142 245 OFFCURVE",
"141 206 OFFCURVE",
"141 52 CURVE SMOOTH",
"141 28 OFFCURVE",
"86 28 OFFCURVE",
"52 28 CURVE SMOOTH",
"29 28 OFFCURVE",
"21 21 OFFCURVE",
"21 12 CURVE SMOOTH",
"21 2 OFFCURVE",
"35 0 OFFCURVE",
"57 0 CURVE SMOOTH",
"241 0 LINE SMOOTH",
"503 0 OFFCURVE",
"634 199 OFFCURVE",
"634 439 CURVE SMOOTH",
"634 723 OFFCURVE",
"420 821 OFFCURVE",
"251 821 CURVE SMOOTH",
"170 821 OFFCURVE",
"111 820 OFFCURVE",
"45 818 CURVE SMOOTH"
);
},
{
closed = 1;
nodes = (
"484 786 OFFCURVE",
"589 630 OFFCURVE",
"589 439 CURVE SMOOTH",
"589 209 OFFCURVE",
"486 34 OFFCURVE",
"245 34 CURVE SMOOTH",
"221 34 OFFCURVE",
"183 34 OFFCURVE",
"183 44 CURVE SMOOTH",
"183 782 LINE",
"203 783 OFFCURVE",
"225 786 OFFCURVE",
"245 786 CURVE SMOOTH"
);
}
);
};
components = (
{
name = D;
},
{
name = caroncomb.case;
transform = "{1, 0, 0, 1, 59, 0}";
}
);
layerId = master01;
width = 674;
},
{
background = {
components = (
{
name = D;
},
{
name = caroncomb.case;
}
);
};
components = (
{
name = D;
},
{
name = caroncomb.case;
transform = "{1, 0, 0, 1, 59, 0}";
}
);
layerId = "55D4233F-C61B-4F99-8E70-5BC40968EA26";
width = 698;
},
{
background = {
components = (
{
name = caroncomb.case;
}
);
paths = (
{
closed = 1;
nodes = (
"41 750 OFFCURVE",
"55 738 OFFCURVE",
"78 738 CURVE SMOOTH",
"107 738 OFFCURVE",
"132 731 OFFCURVE",
"132 696 CURVE SMOOTH",
"132 636 OFFCURVE",
"139 484 OFFCURVE",
"139 437 CURVE SMOOTH {name = hr03;}",
"139 261 OFFCURVE",
"138 238 OFFCURVE",
"138 97 CURVE SMOOTH",
"138 81 OFFCURVE",
"120 76 OFFCURVE",
"83 73 CURVE SMOOTH",
"56 71 OFFCURVE",
"41 62 OFFCURVE",
"41 31 CURVE SMOOTH {name = hr04;}",
"41 11 OFFCURVE",
"52 0 OFFCURVE",
"78 0 CURVE SMOOTH",
"289 0 LINE SMOOTH",
"551 0 OFFCURVE",
"682 199 OFFCURVE",
"682 439 CURVE SMOOTH",
"682 723 OFFCURVE",
"468 821 OFFCURVE",
"299 821 CURVE SMOOTH",
"218 821 OFFCURVE",
"142 821 OFFCURVE",
"76 818 CURVE SMOOTH",
"54 817 OFFCURVE",
"41 800 OFFCURVE",
"41 776 CURVE SMOOTH"
);
},
{
closed = 1;
nodes = (
"496 738 OFFCURVE",
"586 603 OFFCURVE",
"586 439 CURVE SMOOTH",
"586 236 OFFCURVE",
"498 82 OFFCURVE",
"293 82 CURVE SMOOTH",
"269 82 OFFCURVE",
"231 82 OFFCURVE",
"231 92 CURVE SMOOTH",
"231 734 LINE",
"251 735 OFFCURVE",
"273 738 OFFCURVE",
"293 738 CURVE SMOOTH"
);
}
);
};
components = (
{
name = D;
},
{
name = caroncomb.case;
transform = "{1, 0, 0, 1, 15, 0}";
}
);
layerId = "CC5A7AC7-F03F-47C7-BE3A-F4FB7F44F819";
width = 715;
}
);
leftKerningGroup = _KERN_I_2ND;
rightKerningGroup = _KERN_D_1ST;
unicode = 010E;
},
{
glyphname = Dcroat;
layers = (
{
background = {
paths = (
{
closed = 1;
nodes = (
"30 817 OFFCURVE",
"24 812 OFFCURVE",
"24 805 CURVE SMOOTH",
"24 798 OFFCURVE",
"30 789 OFFCURVE",
"47 789 CURVE SMOOTH",
"102 789 OFFCURVE",
"135 788 OFFCURVE",
"135 747 CURVE SMOOTH",
"135 681 OFFCURVE",
"142 489 OFFCURVE",
"142 437 CURVE SMOOTH",
"142 426 LINE",
"107 426 OFFCURVE",
"62 428 OFFCURVE",
"47 428 CURVE SMOOTH",
"36 428 OFFCURVE",
"31 416 OFFCURVE",
"31 409 CURVE SMOOTH",
"31 402 OFFCURVE",
"38 389 OFFCURVE",
"47 389 CURVE SMOOTH",
"142 389 LINE",
"142 243 OFFCURVE",
"141 190 OFFCURVE",
"141 52 CURVE SMOOTH",
"141 28 OFFCURVE",
"86 28 OFFCURVE",
"52 28 CURVE SMOOTH",
"29 28 OFFCURVE",
"21 21 OFFCURVE",
"21 12 CURVE SMOOTH",
"21 2 OFFCURVE",
"35 0 OFFCURVE",
"57 0 CURVE SMOOTH",
"241 0 LINE SMOOTH",
"503 0 OFFCURVE",
"634 199 OFFCURVE",
"634 439 CURVE SMOOTH",
"634 723 OFFCURVE",
"420 821 OFFCURVE",
"251 821 CURVE SMOOTH",
"170 821 OFFCURVE",
"111 820 OFFCURVE",
"45 818 CURVE SMOOTH"
);
},
{
closed = 1;
nodes = (
"484 786 OFFCURVE",
"589 630 OFFCURVE",
"589 439 CURVE SMOOTH",
"589 209 OFFCURVE",
"486 34 OFFCURVE",
"245 34 CURVE SMOOTH",
"221 34 OFFCURVE",
"183 34 OFFCURVE",
"183 44 CURVE SMOOTH",
"183 389 LINE",
"224 389 OFFCURVE",
"265 390 OFFCURVE",
"288 390 CURVE SMOOTH",
"303 390 OFFCURVE",
"307 406 OFFCURVE",
"307 412 CURVE SMOOTH",
"307 419 OFFCURVE",
"301 429 OFFCURVE",
"296 429 CURVE SMOOTH",
"267 429 OFFCURVE",
"230 426 OFFCURVE",
"183 426 CURVE",
"183 782 LINE",
"203 783 OFFCURVE",
"225 786 OFFCURVE",
"245 786 CURVE SMOOTH"
);
}
);
};
components = (
{
name = Eth;
}
);
layerId = master01;
width = 674;
},
{
background = {
components = (
{
name = D;
transform = "{1, 0, 0, 1, 2, 0}";
}
);
paths = (
{
closed = 1;
nodes = (
"294 444 OFFCURVE",
"253 441 OFFCURVE",
"198 441 CURVE SMOOTH {name = hr01;}",
"164 441 OFFCURVE",
"96 443 OFFCURVE",
"77 443 CURVE SMOOTH {name = hr02;}",
"59 443 OFFCURVE",
"51 422 OFFCURVE",
"51 409 CURVE SMOOTH",
"51 397 OFFCURVE",
"62 374 OFFCURVE",
"77 374 CURVE SMOOTH {name = hr03;}",
"124 374 OFFCURVE",
"265 375 OFFCURVE",
"318 375 CURVE SMOOTH {name = hr04;}",
"341 375 OFFCURVE",
"347 402 OFFCURVE",
"347 412 CURVE SMOOTH",
"347 425 OFFCURVE",
"336 444 OFFCURVE",
"326 444 CURVE SMOOTH"
);
}
);
};
components = (
{
name = Eth;
}
);
layerId = "55D4233F-C61B-4F99-8E70-5BC40968EA26";
width = 700;
},
{
background = {
paths = (
{
closed = 1;
nodes = (
"44 750 OFFCURVE",
"58 738 OFFCURVE",
"81 738 CURVE SMOOTH",
"110 738 OFFCURVE",
"135 731 OFFCURVE",
"135 696 CURVE SMOOTH {name = hr01;}",
"135 641 OFFCURVE",
"141 509 OFFCURVE",
"142 451 CURVE",
"123 451 OFFCURVE",
"106 452 OFFCURVE",
"98 452 CURVE SMOOTH",
"75 452 OFFCURVE",
"65 426 OFFCURVE",
"65 409 CURVE SMOOTH",
"65 394 OFFCURVE",
"79 365 OFFCURVE",
"98 365 CURVE SMOOTH",
"142 365 LINE",
"142 257 OFFCURVE",
"141 213 OFFCURVE",
"141 97 CURVE SMOOTH",
"141 81 OFFCURVE",
"123 76 OFFCURVE",
"86 73 CURVE SMOOTH",
"59 71 OFFCURVE",
"44 62 OFFCURVE",
"44 31 CURVE SMOOTH {name = hr02;}",
"44 11 OFFCURVE",
"55 0 OFFCURVE",
"81 0 CURVE SMOOTH",
"292 0 LINE SMOOTH",
"554 0 OFFCURVE",
"685 199 OFFCURVE",
"685 439 CURVE SMOOTH",
"685 723 OFFCURVE",
"471 821 OFFCURVE",
"302 821 CURVE SMOOTH",
"221 821 OFFCURVE",
"145 821 OFFCURVE",
"79 818 CURVE SMOOTH",
"57 817 OFFCURVE",
"44 800 OFFCURVE",
"44 776 CURVE SMOOTH"
);
},
{
closed = 1;
nodes = (
"499 738 OFFCURVE",
"589 603 OFFCURVE",
"589 439 CURVE SMOOTH",
"589 236 OFFCURVE",
"501 82 OFFCURVE",
"296 82 CURVE SMOOTH",
"272 82 OFFCURVE",
"234 82 OFFCURVE",
"234 92 CURVE SMOOTH",
"234 365 LINE",
"275 365 OFFCURVE",
"316 366 OFFCURVE",
"339 366 CURVE SMOOTH",
"368 366 OFFCURVE",
"375 400 OFFCURVE",
"375 412 CURVE SMOOTH",
"375 429 OFFCURVE",
"361 453 OFFCURVE",
"347 453 CURVE SMOOTH",
"318 453 OFFCURVE",
"281 450 OFFCURVE",
"234 450 CURVE",
"234 734 LINE",
"254 735 OFFCURVE",
"276 738 OFFCURVE",
"296 738 CURVE SMOOTH"
);
}
);
};
components = (
{
name = Eth;
}
);
layerId = "CC5A7AC7-F03F-47C7-BE3A-F4FB7F44F819";
width = 718;
}
);
leftKerningGroup = _KERN_I_2ND;
rightKerningGroup = _KERN_D_1ST;
unicode = 0110;
},
{
glyphname = E;
layers = (
{
anchors = (
{
name = bottom;
position = "{322, 3}";
},
{
name = ogonek;
position = "{407, 4}";
},
{
name = top;
position = "{325, 821}";
},
{
name = topleft;
position = "{20, 821}";
}
);
background = {
anchors = (
{
name = bottom;
position = "{322, 0}";
},
{
name = ogonek;
position = "{579, 10}";
},
{
name = top;
position = "{322, 821}";
},
{
name = topleft;
position = "{20, 821}";
}
);
paths = (
{
closed = 1;
nodes = (
"580 310 OFFCURVE",
"570 300 OFFCURVE",
"569 273 CURVE SMOOTH",
"567 218 OFFCURVE",
"559 109 OFFCURVE",
"556 73 CURVE SMOOTH",
"553 39 OFFCURVE",
"533 36 OFFCURVE",
"513 36 CURVE SMOOTH",
"184 36 LINE",
"184 401 LINE",
"222 402 OFFCURVE",
"260 403 OFFCURVE",
"298 403 CURVE SMOOTH",
"336 403 OFFCURVE",
"359 402 OFFCURVE",
"377 402 CURVE SMOOTH",
"417 402 OFFCURVE",
"425 345 OFFCURVE",
"425 309 CURVE SMOOTH",
"425 292 OFFCURVE",
"433 280 OFFCURVE",
"442 280 CURVE SMOOTH",
"447 280 OFFCURVE",
"457 284 OFFCURVE",
"457 307 CURVE SMOOTH",
"457 344 OFFCURVE",
"455 382 OFFCURVE",
"455 420 CURVE SMOOTH",
"455 458 OFFCURVE",
"457 495 OFFCURVE",
"457 533 CURVE SMOOTH",
"457 547 OFFCURVE",
"456 560 OFFCURVE",
"440 560 CURVE SMOOTH",
"423 560 OFFCURVE",
"423 534 OFFCURVE",
"423 530 CURVE SMOOTH",
"423 505 OFFCURVE",
"423 440 OFFCURVE",
"406 440 CURVE SMOOTH",
"394 440 OFFCURVE",
"336 437 OFFCURVE",
"298 437 CURVE SMOOTH {name = hr01;}",
"259 437 OFFCURVE",
"222 439 OFFCURVE",
"184 440 CURVE",
"184 785 LINE",
"487 785 LINE SMOOTH",
"500 785 OFFCURVE",
"524 782 OFFCURVE",
"524 757 CURVE SMOOTH",
"524 645 LINE SMOOTH",
"524 627 OFFCURVE",
"524 605 OFFCURVE",
"544 605 CURVE SMOOTH {name = hr02;}",
"559 605 OFFCURVE",
"561 626 OFFCURVE",
"561 651 CURVE SMOOTH",
"561 785 LINE SMOOTH {name = hr03;}",
"561 813 OFFCURVE",
"551 821 OFFCURVE",
"533 821 CURVE SMOOTH",
"415 821 OFFCURVE",
"405 819 OFFCURVE",
"306 819 CURVE SMOOTH",
"256 819 OFFCURVE",
"154 821 OFFCURVE",
"65 821 CURVE SMOOTH",
"45 821 OFFCURVE",
"24 818 OFFCURVE",
"24 804 CURVE SMOOTH",
"24 789 OFFCURVE",
"41 789 OFFCURVE",
"64 789 CURVE SMOOTH",
"91 789 OFFCURVE",
"137 789 OFFCURVE",
"137 750 CURVE SMOOTH",
"137 659 OFFCURVE",
"143 575 OFFCURVE",
"143 425 CURVE SMOOTH {name = hr04;}",
"143 224 OFFCURVE",
"141 205 OFFCURVE",
"141 64 CURVE SMOOTH",
"141 36 OFFCURVE",
"122 28 OFFCURVE",
"60 28 CURVE SMOOTH",
"34 28 OFFCURVE",
"21 25 OFFCURVE",
"21 11 CURVE SMOOTH",
"21 0 OFFCURVE",
"47 0 OFFCURVE",
"67 0 CURVE",
"148 1 OFFCURVE",
"229 2 OFFCURVE",
"310 2 CURVE SMOOTH {name = hr05;}",
"391 2 OFFCURVE",
"466 0 OFFCURVE",
"547 0 CURVE SMOOTH {name = hr06;}",
"574 0 OFFCURVE",
"586 0 OFFCURVE",
"589 33 CURVE SMOOTH",
"596 114 OFFCURVE",
"605 254 OFFCURVE",
"605 277 CURVE SMOOTH",
"605 293 OFFCURVE",
"604 310 OFFCURVE",
"586 310 CURVE SMOOTH"
);
}
);
};
layerId = master01;
paths = (
{
closed = 1;
nodes = (
"580 310 OFFCURVE",
"570 300 OFFCURVE",
"569 273 CURVE SMOOTH",
"567 218 OFFCURVE",
"559 109 OFFCURVE",
"556 73 CURVE SMOOTH",
"553 39 OFFCURVE",
"533 36 OFFCURVE",
"513 36 CURVE SMOOTH",
"184 36 LINE",
"184 401 LINE",
"222 402 OFFCURVE",
"260 403 OFFCURVE",
"298 403 CURVE SMOOTH",
"336 403 OFFCURVE",
"359 402 OFFCURVE",
"377 402 CURVE SMOOTH",
"417 402 OFFCURVE",
"425 345 OFFCURVE",
"425 309 CURVE SMOOTH",
"425 292 OFFCURVE",
"433 280 OFFCURVE",
"442 280 CURVE SMOOTH",
"447 280 OFFCURVE",
"457 284 OFFCURVE",
"457 307 CURVE SMOOTH",
"457 344 OFFCURVE",
"455 382 OFFCURVE",
"455 420 CURVE SMOOTH",
"455 458 OFFCURVE",
"457 495 OFFCURVE",
"457 533 CURVE SMOOTH",
"457 547 OFFCURVE",
"456 560 OFFCURVE",
"440 560 CURVE SMOOTH",
"423 560 OFFCURVE",
"423 534 OFFCURVE",
"423 530 CURVE SMOOTH",
"423 505 OFFCURVE",
"423 440 OFFCURVE",
"406 440 CURVE SMOOTH",
"394 440 OFFCURVE",
"336 437 OFFCURVE",
"298 437 CURVE SMOOTH {name = hr01;}",
"259 437 OFFCURVE",
"222 439 OFFCURVE",
"184 440 CURVE",
"184 785 LINE",
"487 785 LINE SMOOTH",
"500 785 OFFCURVE",
"524 782 OFFCURVE",
"524 757 CURVE SMOOTH",
"524 645 LINE SMOOTH",
"524 627 OFFCURVE",
"524 605 OFFCURVE",
"544 605 CURVE SMOOTH {name = hr02;}",
"559 605 OFFCURVE",
"561 626 OFFCURVE",
"561 651 CURVE SMOOTH",
"561 785 LINE SMOOTH {name = hr03;}",
"561 813 OFFCURVE",
"551 821 OFFCURVE",
"533 821 CURVE SMOOTH",
"415 821 OFFCURVE",
"405 819 OFFCURVE",
"306 819 CURVE SMOOTH",
"256 819 OFFCURVE",
"154 821 OFFCURVE",
"65 821 CURVE SMOOTH",
"45 821 OFFCURVE",
"24 818 OFFCURVE",
"24 804 CURVE SMOOTH",
"24 789 OFFCURVE",
"41 789 OFFCURVE",
"64 789 CURVE SMOOTH",
"91 789 OFFCURVE",
"137 789 OFFCURVE",
"137 750 CURVE SMOOTH",
"137 659 OFFCURVE",
"143 575 OFFCURVE",
"143 425 CURVE SMOOTH {name = hr04;}",
"143 224 OFFCURVE",
"141 205 OFFCURVE",
"141 64 CURVE SMOOTH",
"141 36 OFFCURVE",
"122 28 OFFCURVE",
"60 28 CURVE SMOOTH",
"34 28 OFFCURVE",
"21 25 OFFCURVE",
"21 11 CURVE SMOOTH",
"21 0 OFFCURVE",
"47 0 OFFCURVE",
"67 0 CURVE",
"148 1 OFFCURVE",
"229 2 OFFCURVE",
"310 2 CURVE SMOOTH {name = hr05;}",
"391 2 OFFCURVE",
"466 0 OFFCURVE",
"547 0 CURVE SMOOTH {name = hr06;}",
"574 0 OFFCURVE",
"586 0 OFFCURVE",
"589 33 CURVE SMOOTH",
"596 114 OFFCURVE",
"605 254 OFFCURVE",
"605 277 CURVE SMOOTH",
"605 293 OFFCURVE",
"604 310 OFFCURVE",
"586 310 CURVE SMOOTH"
);
}
);
width = 643;
},
{
anchors = (
{
name = bottom;
position = "{334, 0}";
},
{
name = ogonek;
position = "{334, 10}";
},
{
name = top;
position = "{336, 821}";
},
{
name = topleft;
position = "{20, 821}";
}
);
background = {
anchors = (
{
name = bottom;
position = "{334, 0}";
},
{
name = ogonek;
position = "{600, 10}";
},
{
name = top;
position = "{334, 821}";
},
{
name = topleft;
position = "{20, 821}";
}
);
paths = (
{
closed = 1;
nodes = (
"585 315 OFFCURVE",
"567 306 OFFCURVE",
"566 278 CURVE SMOOTH",
"564 231 OFFCURVE",
"556 134 OFFCURVE",
"553 103 CURVE SMOOTH",
"550 69 OFFCURVE",
"530 66 OFFCURVE",
"510 66 CURVE SMOOTH",
"211 66 LINE",
"211 386 LINE",
"249 387 OFFCURVE",
"272 388 OFFCURVE",
"310 388 CURVE SMOOTH",
"341 388 OFFCURVE",
"360 387 OFFCURVE",
"374 387 CURVE SMOOTH",
"413 387 OFFCURVE",
"422 336 OFFCURVE",
"422 306 CURVE SMOOTH",
"422 289 OFFCURVE",
"428 277 OFFCURVE",
"453 277 CURVE SMOOTH {name = hr01;}",
"470 277 OFFCURVE",
"484 281 OFFCURVE",
"484 304 CURVE SMOOTH",
"484 341 OFFCURVE",
"482 382 OFFCURVE",
"482 420 CURVE SMOOTH",
"482 458 OFFCURVE",
"484 497 OFFCURVE",
"484 535 CURVE SMOOTH",
"484 557 OFFCURVE",
"471 566 OFFCURVE",
"452 566 CURVE SMOOTH {name = hr02;}",
"428 566 OFFCURVE",
"420 546 OFFCURVE",
"420 532 CURVE SMOOTH",
"420 511 OFFCURVE",
"420 455 OFFCURVE",
"403 455 CURVE SMOOTH",
"392 455 OFFCURVE",
"342 452 OFFCURVE",
"310 452 CURVE SMOOTH {name = hr03;}",
"271 452 OFFCURVE",
"249 454 OFFCURVE",
"211 455 CURVE",
"211 755 LINE",
"484 755 LINE SMOOTH",
"497 755 OFFCURVE",
"521 755 OFFCURVE",
"521 727 CURVE SMOOTH",
"521 640 LINE SMOOTH",
"521 622 OFFCURVE",
"528 600 OFFCURVE",
"557 600 CURVE SMOOTH {name = hr04;}",
"580 600 OFFCURVE",
"588 614 OFFCURVE",
"588 646 CURVE SMOOTH",
"588 785 LINE SMOOTH",
"588 813 OFFCURVE",
"578 821 OFFCURVE",
"560 821 CURVE SMOOTH",
"442 821 OFFCURVE",
"432 819 OFFCURVE",
"333 819 CURVE SMOOTH",
"283 819 OFFCURVE",
"171 821 OFFCURVE",
"82 821 CURVE SMOOTH",
"62 821 OFFCURVE",
"41 818 OFFCURVE",
"41 794 CURVE SMOOTH",
"41 777 OFFCURVE",
"58 769 OFFCURVE",
"81 769 CURVE SMOOTH {name = hr05;}",
"97 769 OFFCURVE",
"134 769 OFFCURVE",
"134 730 CURVE SMOOTH",
"134 645 OFFCURVE",
"140 566 OFFCURVE",
"140 425 CURVE SMOOTH",
"140 235 OFFCURVE",
"138 217 OFFCURVE",
"138 84 CURVE SMOOTH",
"138 56 OFFCURVE",
"116 48 OFFCURVE",
"77 48 CURVE SMOOTH",
"51 48 OFFCURVE",
"38 42 OFFCURVE",
"38 21 CURVE SMOOTH",
"38 3 OFFCURVE",
"61 0 OFFCURVE",
"84 0 CURVE SMOOTH",
"165 0 OFFCURVE",
"256 2 OFFCURVE",
"337 2 CURVE SMOOTH",
"418 2 OFFCURVE",
"493 0 OFFCURVE",
"574 0 CURVE SMOOTH",
"601 0 OFFCURVE",
"613 0 OFFCURVE",
"616 33 CURVE SMOOTH",
"623 114 OFFCURVE",
"632 259 OFFCURVE",
"632 282 CURVE SMOOTH",
"632 302 OFFCURVE",
"620 315 OFFCURVE",
"602 315 CURVE SMOOTH"
);
}
);
};
layerId = "55D4233F-C61B-4F99-8E70-5BC40968EA26";
paths = (
{
closed = 1;
nodes = (
"585 315 OFFCURVE",
"567 306 OFFCURVE",
"566 278 CURVE SMOOTH",
"564 231 OFFCURVE",
"556 134 OFFCURVE",
"553 103 CURVE SMOOTH",
"550 69 OFFCURVE",
"530 66 OFFCURVE",
"510 66 CURVE SMOOTH",
"211 66 LINE",
"211 386 LINE",
"249 387 OFFCURVE",
"272 388 OFFCURVE",
"310 388 CURVE SMOOTH",
"341 388 OFFCURVE",
"360 387 OFFCURVE",
"374 387 CURVE SMOOTH",
"413 387 OFFCURVE",
"422 336 OFFCURVE",
"422 306 CURVE SMOOTH",
"422 289 OFFCURVE",
"428 277 OFFCURVE",
"453 277 CURVE SMOOTH {name = hr01;}",
"470 277 OFFCURVE",
"484 281 OFFCURVE",
"484 304 CURVE SMOOTH",
"484 341 OFFCURVE",
"482 382 OFFCURVE",
"482 420 CURVE SMOOTH",
"482 458 OFFCURVE",
"484 497 OFFCURVE",
"484 535 CURVE SMOOTH",
"484 557 OFFCURVE",
"471 566 OFFCURVE",
"452 566 CURVE SMOOTH {name = hr02;}",
"428 566 OFFCURVE",
"420 546 OFFCURVE",
"420 532 CURVE SMOOTH",
"420 511 OFFCURVE",
"420 455 OFFCURVE",
"403 455 CURVE SMOOTH",
"392 455 OFFCURVE",
"342 452 OFFCURVE",
"310 452 CURVE SMOOTH {name = hr03;}",
"271 452 OFFCURVE",
"249 454 OFFCURVE",
"211 455 CURVE",
"211 755 LINE",
"484 755 LINE SMOOTH",
"497 755 OFFCURVE",
"521 755 OFFCURVE",
"521 727 CURVE SMOOTH",
"521 640 LINE SMOOTH",
"521 622 OFFCURVE",
"528 600 OFFCURVE",
"557 600 CURVE SMOOTH {name = hr04;}",
"580 600 OFFCURVE",
"588 614 OFFCURVE",
"588 646 CURVE SMOOTH",
"588 785 LINE SMOOTH",
"588 813 OFFCURVE",
"578 821 OFFCURVE",
"560 821 CURVE SMOOTH",
"442 821 OFFCURVE",
"432 819 OFFCURVE",
"333 819 CURVE SMOOTH",
"283 819 OFFCURVE",
"171 821 OFFCURVE",
"82 821 CURVE SMOOTH",
"62 821 OFFCURVE",
"41 818 OFFCURVE",
"41 794 CURVE SMOOTH",
"41 777 OFFCURVE",
"58 769 OFFCURVE",
"81 769 CURVE SMOOTH {name = hr05;}",
"97 769 OFFCURVE",
"134 769 OFFCURVE",
"134 730 CURVE SMOOTH",
"134 645 OFFCURVE",
"140 566 OFFCURVE",
"140 425 CURVE SMOOTH",
"140 235 OFFCURVE",
"138 217 OFFCURVE",
"138 84 CURVE SMOOTH",
"138 56 OFFCURVE",
"116 48 OFFCURVE",
"77 48 CURVE SMOOTH",
"51 48 OFFCURVE",
"38 42 OFFCURVE",
"38 21 CURVE SMOOTH",
"38 3 OFFCURVE",
"61 0 OFFCURVE",
"84 0 CURVE SMOOTH",
"165 0 OFFCURVE",
"256 2 OFFCURVE",
"337 2 CURVE SMOOTH",
"418 2 OFFCURVE",
"493 0 OFFCURVE",
"574 0 CURVE SMOOTH",
"601 0 OFFCURVE",
"613 0 OFFCURVE",
"616 33 CURVE SMOOTH",
"623 114 OFFCURVE",
"632 259 OFFCURVE",
"632 282 CURVE SMOOTH",
"632 302 OFFCURVE",
"620 315 OFFCURVE",
"602 315 CURVE SMOOTH"
);
}
);
width = 667;
},
{
anchors = (
{
name = bottom;
position = "{342, 0}";
},
{
name = ogonek;
position = "{402, 0}";
},
{
name = top;
position = "{350, 821}";
},
{
name = topleft;
position = "{20, 821}";
}
);
background = {
anchors = (
{
name = bottom;
position = "{342, 0}";
},
{
name = ogonek;
position = "{616, 10}";
},
{
name = top;
position = "{342, 821}";
},
{
name = topleft;
position = "{20, 821}";
}
);
paths = (
{
closed = 1;
nodes = (
"589 318 OFFCURVE",
"565 310 OFFCURVE",
"564 281 CURVE SMOOTH",
"562 237 OFFCURVE",
"555 162 OFFCURVE",
"551 121 CURVE SMOOTH",
"548 87 OFFCURVE",
"528 84 OFFCURVE",
"508 84 CURVE SMOOTH",
"230 84 LINE",
"230 377 LINE",
"268 378 OFFCURVE",
"280 379 OFFCURVE",
"318 379 CURVE SMOOTH",
"345 379 OFFCURVE",
"361 378 OFFCURVE",
"372 378 CURVE SMOOTH",
"410 378 OFFCURVE",
"420 331 OFFCURVE",
"420 310 CURVE SMOOTH",
"420 293 OFFCURVE",
"426 275 OFFCURVE",
"461 275 CURVE SMOOTH {name = hr01;}",
"488 275 OFFCURVE",
"503 285 OFFCURVE",
"503 308 CURVE SMOOTH",
"503 339 OFFCURVE",
"501 382 OFFCURVE",
"501 420 CURVE SMOOTH",
"501 458 OFFCURVE",
"503 493 OFFCURVE",
"503 531 CURVE SMOOTH",
"503 563 OFFCURVE",
"482 570 OFFCURVE",
"460 570 CURVE SMOOTH {name = hr02;}",
"432 570 OFFCURVE",
"418 553 OFFCURVE",
"418 533 CURVE SMOOTH",
"418 515 OFFCURVE",
"418 464 OFFCURVE",
"401 464 CURVE SMOOTH {name = hr03;}",
"391 464 OFFCURVE",
"346 461 OFFCURVE",
"318 461 CURVE SMOOTH {name = hr04;}",
"279 461 OFFCURVE",
"268 462 OFFCURVE",
"230 464 CURVE {name = hr05;}",
"230 737 LINE",
"482 737 LINE SMOOTH",
"504 737 OFFCURVE",
"519 733 OFFCURVE",
"519 709 CURVE SMOOTH",
"519 637 LINE SMOOTH",
"519 619 OFFCURVE",
"531 597 OFFCURVE",
"566 597 CURVE SMOOTH {name = hr06;}",
"595 597 OFFCURVE",
"607 607 OFFCURVE",
"607 643 CURVE SMOOTH",
"607 785 LINE SMOOTH",
"607 813 OFFCURVE",
"597 821 OFFCURVE",
"579 821 CURVE SMOOTH",
"461 821 OFFCURVE",
"451 819 OFFCURVE",
"352 819 CURVE SMOOTH",
"302 819 OFFCURVE",
"183 821 OFFCURVE",
"94 821 CURVE SMOOTH",
"52 821 OFFCURVE",
"37 815 OFFCURVE",
"37 781 CURVE SMOOTH",
"37 758 OFFCURVE",
"60 747 OFFCURVE",
"93 747 CURVE SMOOTH",
"121 747 OFFCURVE",
"132 747 OFFCURVE",
"132 708 CURVE SMOOTH",
"132 627 OFFCURVE",
"138 561 OFFCURVE",
"138 425 CURVE SMOOTH {name = hr07;}",
"138 242 OFFCURVE",
"136 237 OFFCURVE",
"136 109 CURVE SMOOTH",
"136 87 OFFCURVE",
"127 75 OFFCURVE",
"89 73 CURVE SMOOTH",
"61 72 OFFCURVE",
"38 62 OFFCURVE",
"38 33 CURVE SMOOTH",
"38 11 OFFCURVE",
"51 0 OFFCURVE",
"86 0 CURVE SMOOTH",
"167 0 OFFCURVE",
"275 2 OFFCURVE",
"356 2 CURVE SMOOTH",
"437 2 OFFCURVE",
"512 0 OFFCURVE",
"593 0 CURVE SMOOTH",
"626 0 OFFCURVE",
"632 5 OFFCURVE",
"635 33 CURVE SMOOTH",
"644 114 OFFCURVE",
"651 262 OFFCURVE",
"651 285 CURVE SMOOTH",
"651 307 OFFCURVE",
"631 318 OFFCURVE",
"613 318 CURVE SMOOTH"
);
}
);
};
layerId = "CC5A7AC7-F03F-47C7-BE3A-F4FB7F44F819";
paths = (
{
closed = 1;
nodes = (
"589 318 OFFCURVE",
"565 310 OFFCURVE",
"564 281 CURVE SMOOTH",
"562 237 OFFCURVE",
"555 162 OFFCURVE",
"551 121 CURVE SMOOTH",
"548 87 OFFCURVE",
"528 84 OFFCURVE",
"508 84 CURVE SMOOTH",
"230 84 LINE",
"230 377 LINE",
"268 378 OFFCURVE",
"280 379 OFFCURVE",
"318 379 CURVE SMOOTH",
"345 379 OFFCURVE",
"361 378 OFFCURVE",
"372 378 CURVE SMOOTH",
"410 378 OFFCURVE",
"420 331 OFFCURVE",
"420 310 CURVE SMOOTH",
"420 293 OFFCURVE",
"426 275 OFFCURVE",
"461 275 CURVE SMOOTH {name = hr01;}",
"488 275 OFFCURVE",
"503 285 OFFCURVE",
"503 308 CURVE SMOOTH",
"503 339 OFFCURVE",
"501 382 OFFCURVE",
"501 420 CURVE SMOOTH",
"501 458 OFFCURVE",
"503 493 OFFCURVE",
"503 531 CURVE SMOOTH",
"503 563 OFFCURVE",
"482 570 OFFCURVE",
"460 570 CURVE SMOOTH {name = hr02;}",
"432 570 OFFCURVE",
"418 553 OFFCURVE",
"418 533 CURVE SMOOTH",
"418 515 OFFCURVE",
"418 464 OFFCURVE",
"401 464 CURVE SMOOTH {name = hr03;}",
"391 464 OFFCURVE",
"346 461 OFFCURVE",
"318 461 CURVE SMOOTH {name = hr04;}",
"279 461 OFFCURVE",
"268 462 OFFCURVE",
"230 464 CURVE {name = hr05;}",
"230 737 LINE",
"482 737 LINE SMOOTH",
"504 737 OFFCURVE",
"519 733 OFFCURVE",
"519 709 CURVE SMOOTH",
"519 637 LINE SMOOTH",
"519 619 OFFCURVE",
"531 597 OFFCURVE",
"566 597 CURVE SMOOTH {name = hr06;}",
"595 597 OFFCURVE",
"607 607 OFFCURVE",
"607 643 CURVE SMOOTH",
"607 785 LINE SMOOTH",
"607 813 OFFCURVE",
"597 821 OFFCURVE",
"579 821 CURVE SMOOTH",
"461 821 OFFCURVE",
"451 819 OFFCURVE",
"352 819 CURVE SMOOTH",
"302 819 OFFCURVE",
"183 821 OFFCURVE",
"94 821 CURVE SMOOTH",
"52 821 OFFCURVE",
"37 815 OFFCURVE",
"37 781 CURVE SMOOTH",
"37 758 OFFCURVE",
"60 747 OFFCURVE",
"93 747 CURVE SMOOTH",
"121 747 OFFCURVE",
"132 747 OFFCURVE",
"132 708 CURVE SMOOTH",
"132 627 OFFCURVE",
"138 561 OFFCURVE",
"138 425 CURVE SMOOTH {name = hr07;}",
"138 242 OFFCURVE",
"136 237 OFFCURVE",
"136 109 CURVE SMOOTH",
"136 87 OFFCURVE",
"127 75 OFFCURVE",
"89 73 CURVE SMOOTH",
"61 72 OFFCURVE",
"38 62 OFFCURVE",
"38 33 CURVE SMOOTH",
"38 11 OFFCURVE",
"51 0 OFFCURVE",
"86 0 CURVE SMOOTH",
"167 0 OFFCURVE",
"275 2 OFFCURVE",
"356 2 CURVE SMOOTH",
"437 2 OFFCURVE",
"512 0 OFFCURVE",
"593 0 CURVE SMOOTH",
"626 0 OFFCURVE",
"632 5 OFFCURVE",
"635 33 CURVE SMOOTH",
"644 114 OFFCURVE",
"651 262 OFFCURVE",
"651 285 CURVE SMOOTH",
"651 307 OFFCURVE",
"631 318 OFFCURVE",
"613 318 CURVE SMOOTH"
);
}
);
width = 684;
}
);
leftKerningGroup = _KERN_I_2ND;
rightKerningGroup = _KERN_E_1ST;
unicode = 0045;
},
{
glyphname = Eacute;
layers = (
{
background = {
paths = (
{
closed = 1;
nodes = (
"382 969 OFFCURVE",
"374 972 OFFCURVE",
"363 972 CURVE SMOOTH",
"344 972 OFFCURVE",
"268 911 OFFCURVE",
"268 886 CURVE SMOOTH",
"268 877 OFFCURVE",
"271 875 OFFCURVE",
"276 875 CURVE SMOOTH",
"295 875 OFFCURVE",
"382 929 OFFCURVE",
"382 950 CURVE SMOOTH"
);
},
{
closed = 1;
nodes = (
"580 310 OFFCURVE",
"570 300 OFFCURVE",
"569 273 CURVE SMOOTH",
"567 218 OFFCURVE",
"559 109 OFFCURVE",
"556 73 CURVE SMOOTH",
"553 39 OFFCURVE",
"533 36 OFFCURVE",
"513 36 CURVE SMOOTH",
"184 36 LINE",
"184 401 LINE",
"222 402 OFFCURVE",
"260 403 OFFCURVE",
"298 403 CURVE SMOOTH",
"336 403 OFFCURVE",
"359 402 OFFCURVE",
"377 402 CURVE SMOOTH",
"417 402 OFFCURVE",
"425 345 OFFCURVE",
"425 309 CURVE SMOOTH",
"425 292 OFFCURVE",
"433 280 OFFCURVE",
"442 280 CURVE SMOOTH",
"447 280 OFFCURVE",
"457 284 OFFCURVE",
"457 307 CURVE SMOOTH",
"457 344 OFFCURVE",
"455 382 OFFCURVE",
"455 420 CURVE SMOOTH",
"455 458 OFFCURVE",
"457 495 OFFCURVE",
"457 533 CURVE SMOOTH",
"457 547 OFFCURVE",
"456 560 OFFCURVE",
"440 560 CURVE SMOOTH",
"423 560 OFFCURVE",
"423 534 OFFCURVE",
"423 530 CURVE SMOOTH",
"423 505 OFFCURVE",
"423 440 OFFCURVE",
"406 440 CURVE SMOOTH",
"394 440 OFFCURVE",
"336 437 OFFCURVE",
"298 437 CURVE SMOOTH {name = hr01;}",
"259 437 OFFCURVE",
"222 439 OFFCURVE",
"184 440 CURVE",
"184 785 LINE",
"487 785 LINE SMOOTH",
"500 785 OFFCURVE",
"524 782 OFFCURVE",
"524 757 CURVE SMOOTH",
"524 645 LINE SMOOTH",
"524 627 OFFCURVE",
"524 605 OFFCURVE",
"544 605 CURVE SMOOTH {name = hr02;}",
"559 605 OFFCURVE",
"561 626 OFFCURVE",
"561 651 CURVE SMOOTH",
"561 785 LINE SMOOTH {name = hr03;}",
"561 813 OFFCURVE",
"551 821 OFFCURVE",
"533 821 CURVE SMOOTH",
"415 821 OFFCURVE",
"405 819 OFFCURVE",
"306 819 CURVE SMOOTH",
"256 819 OFFCURVE",
"154 821 OFFCURVE",
"65 821 CURVE SMOOTH",
"45 821 OFFCURVE",
"24 818 OFFCURVE",
"24 804 CURVE SMOOTH",
"24 789 OFFCURVE",
"41 789 OFFCURVE",
"64 789 CURVE SMOOTH",
"91 789 OFFCURVE",
"137 789 OFFCURVE",
"137 750 CURVE SMOOTH",
"137 659 OFFCURVE",
"143 575 OFFCURVE",
"143 425 CURVE SMOOTH {name = hr04;}",
"143 224 OFFCURVE",
"141 205 OFFCURVE",
"141 64 CURVE SMOOTH",
"141 36 OFFCURVE",
"122 28 OFFCURVE",
"60 28 CURVE SMOOTH",
"34 28 OFFCURVE",
"21 25 OFFCURVE",
"21 11 CURVE SMOOTH",
"21 0 OFFCURVE",
"47 0 OFFCURVE",
"67 0 CURVE",
"148 1 OFFCURVE",
"229 2 OFFCURVE",
"310 2 CURVE SMOOTH {name = hr05;}",
"391 2 OFFCURVE",
"466 0 OFFCURVE",
"547 0 CURVE SMOOTH {name = hr06;}",
"574 0 OFFCURVE",
"586 0 OFFCURVE",
"589 33 CURVE SMOOTH",
"596 114 OFFCURVE",
"605 254 OFFCURVE",
"605 277 CURVE SMOOTH",
"605 293 OFFCURVE",
"604 310 OFFCURVE",
"586 310 CURVE SMOOTH"
);
}
);
};
components = (
{
name = E;
},
{
name = acutecomb.case;
transform = "{1, 0, 0, 1, -19, 0}";
}
);
layerId = master01;
width = 643;
},
{
background = {
components = (
{
name = E;
}
);
paths = (
{
closed = 1;
nodes = (
"429 959 OFFCURVE",
"417 972 OFFCURVE",
"397 972 CURVE SMOOTH",
"367 972 OFFCURVE",
"291 904 OFFCURVE",
"291 877 CURVE SMOOTH",
"291 864 OFFCURVE",
"301 854 OFFCURVE",
"315 854 CURVE SMOOTH",
"343 854 OFFCURVE",
"429 909 OFFCURVE",
"429 941 CURVE SMOOTH"
);
}
);
};
components = (
{
name = E;
},
{
name = acutecomb.case;
}
);
layerId = "55D4233F-C61B-4F99-8E70-5BC40968EA26";
width = 667;
},
{
background = {
paths = (
{
closed = 1;
nodes = (
"462 953 OFFCURVE",
"447 972 OFFCURVE",
"421 972 CURVE SMOOTH",
"383 972 OFFCURVE",
"307 900 OFFCURVE",
"307 872 CURVE SMOOTH",
"307 856 OFFCURVE",
"322 841 OFFCURVE",
"342 841 CURVE SMOOTH",
"377 841 OFFCURVE",
"462 897 OFFCURVE",
"462 936 CURVE SMOOTH"
);
},
{
closed = 1;
nodes = (
"589 318 OFFCURVE",
"565 310 OFFCURVE",
"564 281 CURVE SMOOTH",
"562 237 OFFCURVE",
"555 162 OFFCURVE",
"551 121 CURVE SMOOTH",
"548 87 OFFCURVE",
"528 84 OFFCURVE",
"508 84 CURVE SMOOTH",
"230 84 LINE",
"230 377 LINE",
"268 378 OFFCURVE",
"280 379 OFFCURVE",
"318 379 CURVE SMOOTH",
"345 379 OFFCURVE",
"361 378 OFFCURVE",
"372 378 CURVE SMOOTH",
"410 378 OFFCURVE",
"420 331 OFFCURVE",
"420 310 CURVE SMOOTH {name = hr01;}",
"420 293 OFFCURVE",
"426 275 OFFCURVE",
"461 275 CURVE SMOOTH",
"488 275 OFFCURVE",
"503 285 OFFCURVE",
"503 308 CURVE SMOOTH",
"503 339 OFFCURVE",
"501 382 OFFCURVE",
"501 420 CURVE SMOOTH",
"501 458 OFFCURVE",
"503 493 OFFCURVE",
"503 531 CURVE SMOOTH",
"503 563 OFFCURVE",
"482 570 OFFCURVE",
"460 570 CURVE SMOOTH {name = hr02;}",
"432 570 OFFCURVE",
"418 553 OFFCURVE",
"418 533 CURVE SMOOTH",
"418 515 OFFCURVE",
"418 464 OFFCURVE",
"401 464 CURVE SMOOTH {name = hr03;}",
"391 464 OFFCURVE",
"346 461 OFFCURVE",
"318 461 CURVE SMOOTH {name = hr04;}",
"279 461 OFFCURVE",
"268 462 OFFCURVE",
"230 464 CURVE {name = hr05;}",
"230 737 LINE",
"482 737 LINE SMOOTH",
"504 737 OFFCURVE",
"519 733 OFFCURVE",
"519 709 CURVE SMOOTH",
"519 637 LINE SMOOTH",
"519 619 OFFCURVE",
"531 597 OFFCURVE",
"566 597 CURVE SMOOTH {name = hr06;}",
"595 597 OFFCURVE",
"607 607 OFFCURVE",
"607 643 CURVE SMOOTH",
"607 785 LINE SMOOTH",
"607 813 OFFCURVE",
"597 821 OFFCURVE",
"579 821 CURVE SMOOTH",
"461 821 OFFCURVE",
"451 819 OFFCURVE",
"352 819 CURVE SMOOTH",
"302 819 OFFCURVE",
"183 821 OFFCURVE",
"94 821 CURVE SMOOTH",
"52 821 OFFCURVE",
"37 815 OFFCURVE",
"37 781 CURVE SMOOTH",
"37 758 OFFCURVE",
"60 747 OFFCURVE",
"93 747 CURVE SMOOTH",
"121 747 OFFCURVE",
"132 747 OFFCURVE",
"132 708 CURVE SMOOTH",
"132 627 OFFCURVE",
"138 561 OFFCURVE",
"138 425 CURVE SMOOTH {name = hr07;}",
"138 242 OFFCURVE",
"136 237 OFFCURVE",
"136 109 CURVE SMOOTH",
"136 87 OFFCURVE",
"127 75 OFFCURVE",
"89 73 CURVE SMOOTH",
"61 72 OFFCURVE",
"38 62 OFFCURVE",
"38 33 CURVE SMOOTH",
"38 11 OFFCURVE",
"51 0 OFFCURVE",
"86 0 CURVE SMOOTH",
"167 0 OFFCURVE",
"275 2 OFFCURVE",
"356 2 CURVE SMOOTH",
"437 2 OFFCURVE",
"512 0 OFFCURVE",
"593 0 CURVE SMOOTH",
"626 0 OFFCURVE",
"632 5 OFFCURVE",
"635 33 CURVE SMOOTH",
"644 114 OFFCURVE",
"651 262 OFFCURVE",
"651 285 CURVE SMOOTH",
"651 307 OFFCURVE",
"631 318 OFFCURVE",
"613 318 CURVE SMOOTH"
);
}
);
};
components = (
{
name = E;
},
{
name = acutecomb.case;
transform = "{1, 0, 0, 1, -22, 0}";
}
);
layerId = "CC5A7AC7-F03F-47C7-BE3A-F4FB7F44F819";
width = 684;
}
);
leftKerningGroup = _KERN_I_2ND;
rightKerningGroup = _KERN_E_1ST;
unicode = 00C9;
},
{
glyphname = Ebreve;
layers = (
{
background = {
paths = (
{
closed = 1;
nodes = (
"439 969 OFFCURVE",
"430 972 OFFCURVE",
"420 972 CURVE SMOOTH",
"409 972 OFFCURVE",
"403 964 OFFCURVE",
"403 949 CURVE SMOOTH",
"403 922 OFFCURVE",
"364 900 OFFCURVE",
"328 900 CURVE SMOOTH {name = hr01;}",
"290 900 OFFCURVE",
"254 908 OFFCURVE",
"254 949 CURVE SMOOTH",
"254 965 OFFCURVE",
"251 972 OFFCURVE",
"237 972 CURVE SMOOTH {name = hr02;}",
"227 972 OFFCURVE",
"220 965 OFFCURVE",
"220 948 CURVE SMOOTH",
"220 908 OFFCURVE",
"268 875 OFFCURVE",
"328 875 CURVE SMOOTH",
"380 875 OFFCURVE",
"439 899 OFFCURVE",
"439 948 CURVE SMOOTH"
);
},
{
closed = 1;
nodes = (
"580 310 OFFCURVE",
"570 300 OFFCURVE",
"569 273 CURVE SMOOTH",
"567 218 OFFCURVE",
"559 109 OFFCURVE",
"556 73 CURVE SMOOTH",
"553 39 OFFCURVE",
"533 36 OFFCURVE",
"513 36 CURVE SMOOTH",
"184 36 LINE",
"184 401 LINE",
"222 402 OFFCURVE",
"260 403 OFFCURVE",
"298 403 CURVE SMOOTH",
"336 403 OFFCURVE",
"359 402 OFFCURVE",
"377 402 CURVE SMOOTH",
"417 402 OFFCURVE",
"425 345 OFFCURVE",
"425 309 CURVE SMOOTH {name = hr03;}",
"425 292 OFFCURVE",
"433 280 OFFCURVE",
"442 280 CURVE SMOOTH",
"447 280 OFFCURVE",
"457 284 OFFCURVE",
"457 307 CURVE SMOOTH",
"457 344 OFFCURVE",
"455 382 OFFCURVE",
"455 420 CURVE SMOOTH",
"455 458 OFFCURVE",
"457 495 OFFCURVE",
"457 533 CURVE SMOOTH",
"457 547 OFFCURVE",
"456 560 OFFCURVE",
"440 560 CURVE SMOOTH",
"423 560 OFFCURVE",
"423 534 OFFCURVE",
"423 530 CURVE SMOOTH",
"423 505 OFFCURVE",
"423 440 OFFCURVE",
"406 440 CURVE SMOOTH",
"394 440 OFFCURVE",
"336 437 OFFCURVE",
"298 437 CURVE SMOOTH {name = hr04;}",
"259 437 OFFCURVE",
"222 439 OFFCURVE",
"184 440 CURVE",
"184 785 LINE",
"487 785 LINE SMOOTH",
"500 785 OFFCURVE",
"524 782 OFFCURVE",
"524 757 CURVE SMOOTH",
"524 645 LINE SMOOTH",
"524 627 OFFCURVE",
"524 605 OFFCURVE",
"544 605 CURVE SMOOTH {name = hr05;}",
"559 605 OFFCURVE",
"561 626 OFFCURVE",
"561 651 CURVE SMOOTH",
"561 785 LINE SMOOTH {name = hr06;}",
"561 813 OFFCURVE",
"551 821 OFFCURVE",
"533 821 CURVE SMOOTH",
"415 821 OFFCURVE",
"405 819 OFFCURVE",
"306 819 CURVE SMOOTH",
"256 819 OFFCURVE",
"154 821 OFFCURVE",
"65 821 CURVE SMOOTH",
"45 821 OFFCURVE",
"24 818 OFFCURVE",
"24 804 CURVE SMOOTH",
"24 789 OFFCURVE",
"41 789 OFFCURVE",
"64 789 CURVE SMOOTH",
"91 789 OFFCURVE",
"137 789 OFFCURVE",
"137 750 CURVE SMOOTH",
"137 659 OFFCURVE",
"143 575 OFFCURVE",
"143 425 CURVE SMOOTH {name = hr07;}",
"143 224 OFFCURVE",
"141 205 OFFCURVE",
"141 64 CURVE SMOOTH",
"141 36 OFFCURVE",
"122 28 OFFCURVE",
"60 28 CURVE SMOOTH",
"34 28 OFFCURVE",
"21 25 OFFCURVE",
"21 11 CURVE SMOOTH",
"21 0 OFFCURVE",
"47 0 OFFCURVE",
"67 0 CURVE",
"148 1 OFFCURVE",
"229 2 OFFCURVE",
"310 2 CURVE SMOOTH {name = hr08;}",
"391 2 OFFCURVE",
"466 0 OFFCURVE",
"547 0 CURVE SMOOTH {name = hr09;}",
"574 0 OFFCURVE",
"586 0 OFFCURVE",
"589 33 CURVE SMOOTH",
"596 114 OFFCURVE",
"605 254 OFFCURVE",
"605 277 CURVE SMOOTH",
"605 293 OFFCURVE",
"604 310 OFFCURVE",
"586 310 CURVE SMOOTH"
);
}
);
};
components = (
{
name = E;
},
{
name = brevecomb.case;
transform = "{1, 0, 0, 1, -19, 0}";
}
);
layerId = master01;
width = 643;
},
{
background = {
components = (
{
name = E;
},
{
name = breve;
transform = "{1, 0, 0, 1, 241, 355}";
}
);
};
components = (
{
name = E;
},
{
name = brevecomb.case;
transform = "{1, 0, 0, 1, -4, 0}";
}
);
layerId = "55D4233F-C61B-4F99-8E70-5BC40968EA26";
width = 667;
},
{
background = {
paths = (
{
closed = 1;
nodes = (
"589 318 OFFCURVE",
"565 310 OFFCURVE",
"564 281 CURVE SMOOTH",
"562 237 OFFCURVE",
"555 162 OFFCURVE",
"551 121 CURVE SMOOTH",
"548 87 OFFCURVE",
"528 84 OFFCURVE",
"508 84 CURVE SMOOTH",
"230 84 LINE",
"230 377 LINE",
"268 378 OFFCURVE",
"280 379 OFFCURVE",
"318 379 CURVE SMOOTH",
"345 379 OFFCURVE",
"361 378 OFFCURVE",
"372 378 CURVE SMOOTH",
"410 378 OFFCURVE",
"420 331 OFFCURVE",
"420 310 CURVE SMOOTH",
"420 293 OFFCURVE",
"426 275 OFFCURVE",
"461 275 CURVE SMOOTH {name = hr01;}",
"488 275 OFFCURVE",
"503 285 OFFCURVE",
"503 308 CURVE SMOOTH",
"503 339 OFFCURVE",
"501 382 OFFCURVE",
"501 420 CURVE SMOOTH",
"501 458 OFFCURVE",
"503 493 OFFCURVE",
"503 531 CURVE SMOOTH",
"503 563 OFFCURVE",
"482 570 OFFCURVE",
"460 570 CURVE SMOOTH {name = hr02;}",
"432 570 OFFCURVE",
"418 553 OFFCURVE",
"418 533 CURVE SMOOTH",
"418 515 OFFCURVE",
"418 464 OFFCURVE",
"401 464 CURVE SMOOTH {name = hr03;}",
"391 464 OFFCURVE",
"346 461 OFFCURVE",
"318 461 CURVE SMOOTH {name = hr04;}",
"279 461 OFFCURVE",
"268 462 OFFCURVE",
"230 464 CURVE {name = hr05;}",
"230 737 LINE",
"482 737 LINE SMOOTH",
"504 737 OFFCURVE",
"519 733 OFFCURVE",
"519 709 CURVE SMOOTH",
"519 637 LINE SMOOTH",
"519 619 OFFCURVE",
"531 597 OFFCURVE",
"566 597 CURVE SMOOTH {name = hr06;}",
"595 597 OFFCURVE",
"607 607 OFFCURVE",
"607 643 CURVE SMOOTH",
"607 785 LINE SMOOTH",
"607 813 OFFCURVE",
"597 821 OFFCURVE",
"579 821 CURVE SMOOTH",
"461 821 OFFCURVE",
"451 819 OFFCURVE",
"352 819 CURVE SMOOTH",
"302 819 OFFCURVE",
"183 821 OFFCURVE",
"94 821 CURVE SMOOTH",
"52 821 OFFCURVE",
"37 815 OFFCURVE",
"37 781 CURVE SMOOTH",
"37 758 OFFCURVE",
"60 747 OFFCURVE",
"93 747 CURVE SMOOTH",
"121 747 OFFCURVE",
"132 747 OFFCURVE",
"132 708 CURVE SMOOTH",
"132 627 OFFCURVE",
"138 561 OFFCURVE",
"138 425 CURVE SMOOTH {name = hr07;}",
"138 242 OFFCURVE",
"136 237 OFFCURVE",
"136 109 CURVE SMOOTH",
"136 87 OFFCURVE",
"127 75 OFFCURVE",
"89 73 CURVE SMOOTH",
"61 72 OFFCURVE",
"38 62 OFFCURVE",
"38 33 CURVE SMOOTH",
"38 11 OFFCURVE",
"51 0 OFFCURVE",
"86 0 CURVE SMOOTH",
"167 0 OFFCURVE",
"275 2 OFFCURVE",
"356 2 CURVE SMOOTH",
"437 2 OFFCURVE",
"512 0 OFFCURVE",
"593 0 CURVE SMOOTH",
"626 0 OFFCURVE",
"632 5 OFFCURVE",
"635 33 CURVE SMOOTH",
"644 114 OFFCURVE",
"651 262 OFFCURVE",
"651 285 CURVE SMOOTH",
"651 307 OFFCURVE",
"631 318 OFFCURVE",
"613 318 CURVE SMOOTH"
);
},
{
closed = 1;
nodes = (
"500 967 OFFCURVE",
"482 971 OFFCURVE",
"462 971 CURVE SMOOTH",
"445 971 OFFCURVE",
"430 957 OFFCURVE",
"430 942 CURVE SMOOTH",
"430 931 OFFCURVE",
"413 919 OFFCURVE",
"374 919 CURVE SMOOTH {name = hr08;}",
"349 919 OFFCURVE",
"315 925 OFFCURVE",
"315 942 CURVE SMOOTH",
"315 964 OFFCURVE",
"302 971 OFFCURVE",
"279 971 CURVE SMOOTH {name = hr09;}",
"257 971 OFFCURVE",
"247 958 OFFCURVE",
"247 941 CURVE SMOOTH",
"247 899 OFFCURVE",
"293 862 OFFCURVE",
"379 862 CURVE SMOOTH",
"431 862 OFFCURVE",
"500 889 OFFCURVE",
"500 941 CURVE SMOOTH"
);
}
);
};
components = (
{
name = E;
},
{
name = brevecomb.case;
transform = "{1, 0, 0, 1, -32, 0}";
}
);
layerId = "CC5A7AC7-F03F-47C7-BE3A-F4FB7F44F819";
width = 684;
}
);
leftKerningGroup = _KERN_I_2ND;
rightKerningGroup = _KERN_E_1ST;
unicode = 0114;
},
{
glyphname = Ecaron;
layers = (
{
background = {
paths = (
{
closed = 1;
nodes = (
"428 972 OFFCURVE",
"378 943 OFFCURVE",
"322 920 CURVE",
"266 943 OFFCURVE",
"217 972 OFFCURVE",
"203 972 CURVE SMOOTH",
"198 972 OFFCURVE",
"195 970 OFFCURVE",
"195 961 CURVE SMOOTH",
"195 936 OFFCURVE",
"299 876 OFFCURVE",
"322 876 CURVE SMOOTH",
"347 876 OFFCURVE",
"450 936 OFFCURVE",
"450 961 CURVE SMOOTH",
"450 970 OFFCURVE",
"447 972 OFFCURVE",
"442 972 CURVE SMOOTH"
);
},
{
closed = 1;
nodes = (
"580 310 OFFCURVE",
"570 300 OFFCURVE",
"569 273 CURVE SMOOTH",
"567 218 OFFCURVE",
"559 109 OFFCURVE",
"556 73 CURVE SMOOTH",
"553 39 OFFCURVE",
"533 36 OFFCURVE",
"513 36 CURVE SMOOTH",
"184 36 LINE",
"184 401 LINE",
"222 402 OFFCURVE",
"260 403 OFFCURVE",
"298 403 CURVE SMOOTH",
"336 403 OFFCURVE",
"359 402 OFFCURVE",
"377 402 CURVE SMOOTH",
"417 402 OFFCURVE",
"425 345 OFFCURVE",
"425 309 CURVE SMOOTH",
"425 292 OFFCURVE",
"433 280 OFFCURVE",
"442 280 CURVE SMOOTH",
"447 280 OFFCURVE",
"457 284 OFFCURVE",
"457 307 CURVE SMOOTH",
"457 344 OFFCURVE",
"455 382 OFFCURVE",
"455 420 CURVE SMOOTH",
"455 458 OFFCURVE",
"457 495 OFFCURVE",
"457 533 CURVE SMOOTH",
"457 547 OFFCURVE",
"456 560 OFFCURVE",
"440 560 CURVE SMOOTH",
"423 560 OFFCURVE",
"423 534 OFFCURVE",
"423 530 CURVE SMOOTH",
"423 505 OFFCURVE",
"423 440 OFFCURVE",
"406 440 CURVE SMOOTH",
"394 440 OFFCURVE",
"336 437 OFFCURVE",
"298 437 CURVE SMOOTH {name = hr01;}",
"259 437 OFFCURVE",
"222 439 OFFCURVE",
"184 440 CURVE",
"184 785 LINE",
"487 785 LINE SMOOTH",
"500 785 OFFCURVE",
"524 782 OFFCURVE",
"524 757 CURVE SMOOTH",
"524 645 LINE SMOOTH",
"524 627 OFFCURVE",
"524 605 OFFCURVE",
"544 605 CURVE SMOOTH {name = hr02;}",
"559 605 OFFCURVE",
"561 626 OFFCURVE",
"561 651 CURVE SMOOTH",
"561 785 LINE SMOOTH {name = hr03;}",
"561 813 OFFCURVE",
"551 821 OFFCURVE",
"533 821 CURVE SMOOTH",
"415 821 OFFCURVE",
"405 819 OFFCURVE",
"306 819 CURVE SMOOTH",
"256 819 OFFCURVE",
"154 821 OFFCURVE",
"65 821 CURVE SMOOTH",
"45 821 OFFCURVE",
"24 818 OFFCURVE",
"24 804 CURVE SMOOTH",
"24 789 OFFCURVE",
"41 789 OFFCURVE",
"64 789 CURVE SMOOTH",
"91 789 OFFCURVE",
"137 789 OFFCURVE",
"137 750 CURVE SMOOTH",
"137 659 OFFCURVE",
"143 575 OFFCURVE",
"143 425 CURVE SMOOTH {name = hr04;}",
"143 224 OFFCURVE",
"141 205 OFFCURVE",
"141 64 CURVE SMOOTH",
"141 36 OFFCURVE",
"122 28 OFFCURVE",
"60 28 CURVE SMOOTH",
"34 28 OFFCURVE",
"21 25 OFFCURVE",
"21 11 CURVE SMOOTH",
"21 0 OFFCURVE",
"47 0 OFFCURVE",
"67 0 CURVE",
"148 1 OFFCURVE",
"229 2 OFFCURVE",
"310 2 CURVE SMOOTH {name = hr05;}",
"391 2 OFFCURVE",
"466 0 OFFCURVE",
"547 0 CURVE SMOOTH {name = hr06;}",
"574 0 OFFCURVE",
"586 0 OFFCURVE",
"589 33 CURVE SMOOTH",
"596 114 OFFCURVE",
"605 254 OFFCURVE",
"605 277 CURVE SMOOTH",
"605 293 OFFCURVE",
"604 310 OFFCURVE",
"586 310 CURVE SMOOTH"
);
}
);
};
components = (
{
name = E;
},
{
name = caroncomb.case;
transform = "{1, 0, 0, 1, 47, 0}";
}
);
layerId = master01;
width = 643;
},
{
background = {
components = (
{
name = E;
}
);
paths = (
{
closed = 1;
nodes = (
"454 972 OFFCURVE",
"394 948 OFFCURVE",
"348 921 CURVE",
"302 948 OFFCURVE",
"243 972 OFFCURVE",
"229 972 CURVE SMOOTH",
"222 972 OFFCURVE",
"218 967 OFFCURVE",
"218 959 CURVE SMOOTH",
"218 917 OFFCURVE",
"328 847 OFFCURVE",
"348 847 CURVE SMOOTH",
"372 847 OFFCURVE",
"479 919 OFFCURVE",
"479 955 CURVE SMOOTH",
"479 964 OFFCURVE",
"476 972 OFFCURVE",
"468 972 CURVE SMOOTH"
);
}
);
};
components = (
{
name = E;
},
{
name = caroncomb.case;
transform = "{1, 0, 0, 1, 46, 0}";
}
);
layerId = "55D4233F-C61B-4F99-8E70-5BC40968EA26";
width = 667;
},
{
background = {
paths = (
{
closed = 1;
nodes = (
"472 972 OFFCURVE",
"405 951 OFFCURVE",
"366 922 CURVE",
"327 951 OFFCURVE",
"261 972 OFFCURVE",
"247 972 CURVE SMOOTH",
"239 972 OFFCURVE",
"234 965 OFFCURVE",
"234 958 CURVE SMOOTH",
"234 906 OFFCURVE",
"348 830 OFFCURVE",
"366 830 CURVE SMOOTH {name = hr01;}",
"390 830 OFFCURVE",
"499 909 OFFCURVE",
"499 951 CURVE SMOOTH",
"499 960 OFFCURVE",
"496 972 OFFCURVE",
"486 972 CURVE SMOOTH"
);
},
{
closed = 1;
nodes = (
"589 318 OFFCURVE",
"565 310 OFFCURVE",
"564 281 CURVE SMOOTH",
"562 237 OFFCURVE",
"555 162 OFFCURVE",
"551 121 CURVE SMOOTH",
"548 87 OFFCURVE",
"528 84 OFFCURVE",
"508 84 CURVE SMOOTH",
"230 84 LINE",
"230 377 LINE",
"268 378 OFFCURVE",
"280 379 OFFCURVE",
"318 379 CURVE SMOOTH",
"345 379 OFFCURVE",
"361 378 OFFCURVE",
"372 378 CURVE SMOOTH",
"410 378 OFFCURVE",
"420 331 OFFCURVE",
"420 310 CURVE SMOOTH",
"420 293 OFFCURVE",
"426 275 OFFCURVE",
"461 275 CURVE SMOOTH {name = hr03;}",
"488 275 OFFCURVE",
"503 285 OFFCURVE",
"503 308 CURVE SMOOTH",
"503 339 OFFCURVE",
"501 382 OFFCURVE",
"501 420 CURVE SMOOTH",
"501 458 OFFCURVE",
"503 493 OFFCURVE",
"503 531 CURVE SMOOTH",
"503 563 OFFCURVE",
"482 570 OFFCURVE",
"460 570 CURVE SMOOTH {name = hr04;}",
"432 570 OFFCURVE",
"418 553 OFFCURVE",
"418 533 CURVE SMOOTH",
"418 515 OFFCURVE",
"418 464 OFFCURVE",
"401 464 CURVE SMOOTH {name = hr05;}",
"391 464 OFFCURVE",
"346 461 OFFCURVE",
"318 461 CURVE SMOOTH {name = hr06;}",
"279 461 OFFCURVE",
"268 462 OFFCURVE",
"230 464 CURVE {name = hr07;}",
"230 737 LINE",
"482 737 LINE SMOOTH",
"504 737 OFFCURVE",
"519 733 OFFCURVE",
"519 709 CURVE SMOOTH",
"519 637 LINE SMOOTH",
"519 619 OFFCURVE",
"531 597 OFFCURVE",
"566 597 CURVE SMOOTH {name = hr08;}",
"595 597 OFFCURVE",
"607 607 OFFCURVE",
"607 643 CURVE SMOOTH",
"607 785 LINE SMOOTH",
"607 813 OFFCURVE",
"597 821 OFFCURVE",
"579 821 CURVE SMOOTH",
"461 821 OFFCURVE",
"451 819 OFFCURVE",
"352 819 CURVE SMOOTH",
"302 819 OFFCURVE",
"183 821 OFFCURVE",
"94 821 CURVE SMOOTH",
"52 821 OFFCURVE",
"37 815 OFFCURVE",
"37 781 CURVE SMOOTH",
"37 758 OFFCURVE",
"60 747 OFFCURVE",
"93 747 CURVE SMOOTH",
"121 747 OFFCURVE",
"132 747 OFFCURVE",
"132 708 CURVE SMOOTH",
"132 627 OFFCURVE",
"138 561 OFFCURVE",
"138 425 CURVE SMOOTH {name = hr09;}",
"138 242 OFFCURVE",
"136 237 OFFCURVE",
"136 109 CURVE SMOOTH",
"136 87 OFFCURVE",
"127 75 OFFCURVE",
"89 73 CURVE SMOOTH",
"61 72 OFFCURVE",
"38 62 OFFCURVE",
"38 33 CURVE SMOOTH",
"38 11 OFFCURVE",
"51 0 OFFCURVE",
"86 0 CURVE SMOOTH",
"167 0 OFFCURVE",
"275 2 OFFCURVE",
"356 2 CURVE SMOOTH",
"437 2 OFFCURVE",
"512 0 OFFCURVE",
"593 0 CURVE SMOOTH",
"626 0 OFFCURVE",
"632 5 OFFCURVE",
"635 33 CURVE SMOOTH",
"644 114 OFFCURVE",
"651 262 OFFCURVE",
"651 285 CURVE SMOOTH",
"651 307 OFFCURVE",
"631 318 OFFCURVE",
"613 318 CURVE SMOOTH"
);
}
);
};
components = (
{
name = E;
},
{
name = caroncomb.case;
transform = "{1, 0, 0, 1, 7, 0}";
}
);
layerId = "CC5A7AC7-F03F-47C7-BE3A-F4FB7F44F819";
width = 684;
}
);
leftKerningGroup = _KERN_I_2ND;
rightKerningGroup = _KERN_E_1ST;
unicode = 011A;
},
{
glyphname = Ecircumflex;
layers = (
{
background = {
paths = (
{
closed = 1;
nodes = (
"450 875 OFFCURVE",
"453 877 OFFCURVE",
"453 886 CURVE SMOOTH",
"453 911 OFFCURVE",
"350 972 OFFCURVE",
"325 972 CURVE SMOOTH",
"302 972 OFFCURVE",
"198 911 OFFCURVE",
"198 886 CURVE SMOOTH",
"198 877 OFFCURVE",
"201 875 OFFCURVE",
"206 875 CURVE SMOOTH",
"219 875 OFFCURVE",
"279 905 OFFCURVE",
"325 928 CURVE",
"371 905 OFFCURVE",
"431 875 OFFCURVE",
"445 875 CURVE SMOOTH"
);
},
{
closed = 1;
nodes = (
"580 310 OFFCURVE",
"570 300 OFFCURVE",
"569 273 CURVE SMOOTH",
"567 218 OFFCURVE",
"559 109 OFFCURVE",
"556 73 CURVE SMOOTH",
"553 39 OFFCURVE",
"533 36 OFFCURVE",
"513 36 CURVE SMOOTH",
"184 36 LINE",
"184 401 LINE",
"222 402 OFFCURVE",
"260 403 OFFCURVE",
"298 403 CURVE SMOOTH",
"336 403 OFFCURVE",
"359 402 OFFCURVE",
"377 402 CURVE SMOOTH",
"417 402 OFFCURVE",
"425 345 OFFCURVE",
"425 309 CURVE SMOOTH",
"425 292 OFFCURVE",
"433 280 OFFCURVE",
"442 280 CURVE SMOOTH",
"447 280 OFFCURVE",
"457 284 OFFCURVE",
"457 307 CURVE SMOOTH",
"457 344 OFFCURVE",
"455 382 OFFCURVE",
"455 420 CURVE SMOOTH",
"455 458 OFFCURVE",
"457 495 OFFCURVE",
"457 533 CURVE SMOOTH",
"457 547 OFFCURVE",
"456 560 OFFCURVE",
"440 560 CURVE SMOOTH",
"423 560 OFFCURVE",
"423 534 OFFCURVE",
"423 530 CURVE SMOOTH",
"423 505 OFFCURVE",
"423 440 OFFCURVE",
"406 440 CURVE SMOOTH",
"394 440 OFFCURVE",
"336 437 OFFCURVE",
"298 437 CURVE SMOOTH {name = hr01;}",
"259 437 OFFCURVE",
"222 439 OFFCURVE",
"184 440 CURVE",
"184 785 LINE",
"487 785 LINE SMOOTH",
"500 785 OFFCURVE",
"524 782 OFFCURVE",
"524 757 CURVE SMOOTH",
"524 645 LINE SMOOTH",
"524 627 OFFCURVE",
"524 605 OFFCURVE",
"544 605 CURVE SMOOTH {name = hr02;}",
"559 605 OFFCURVE",
"561 626 OFFCURVE",
"561 651 CURVE SMOOTH",
"561 785 LINE SMOOTH {name = hr03;}",
"561 813 OFFCURVE",
"551 821 OFFCURVE",
"533 821 CURVE SMOOTH",
"415 821 OFFCURVE",
"405 819 OFFCURVE",
"306 819 CURVE SMOOTH",
"256 819 OFFCURVE",
"154 821 OFFCURVE",
"65 821 CURVE SMOOTH",
"45 821 OFFCURVE",
"24 818 OFFCURVE",
"24 804 CURVE SMOOTH",
"24 789 OFFCURVE",
"41 789 OFFCURVE",
"64 789 CURVE SMOOTH",
"91 789 OFFCURVE",
"137 789 OFFCURVE",
"137 750 CURVE SMOOTH",
"137 659 OFFCURVE",
"143 575 OFFCURVE",
"143 425 CURVE SMOOTH {name = hr04;}",
"143 224 OFFCURVE",
"141 205 OFFCURVE",
"141 64 CURVE SMOOTH",
"141 36 OFFCURVE",
"122 28 OFFCURVE",
"60 28 CURVE SMOOTH",
"34 28 OFFCURVE",
"21 25 OFFCURVE",
"21 11 CURVE SMOOTH",
"21 0 OFFCURVE",
"47 0 OFFCURVE",
"67 0 CURVE",
"148 1 OFFCURVE",
"229 2 OFFCURVE",
"310 2 CURVE SMOOTH {name = hr05;}",
"391 2 OFFCURVE",
"466 0 OFFCURVE",
"547 0 CURVE SMOOTH {name = hr06;}",
"574 0 OFFCURVE",
"586 0 OFFCURVE",
"589 33 CURVE SMOOTH",
"596 114 OFFCURVE",
"605 254 OFFCURVE",
"605 277 CURVE SMOOTH",
"605 293 OFFCURVE",
"604 310 OFFCURVE",
"586 310 CURVE SMOOTH"
);
}
);
};
components = (
{
name = E;
},
{
name = circumflexcomb.case;
transform = "{1, 0, 0, 1, -20, 0}";
}
);
layerId = master01;
width = 643;
},
{
background = {
components = (
{
name = E;
}
);
paths = (
{
closed = 1;
nodes = (
"476 847 OFFCURVE",
"479 855 OFFCURVE",
"479 864 CURVE SMOOTH",
"479 900 OFFCURVE",
"372 972 OFFCURVE",
"348 972 CURVE SMOOTH",
"328 972 OFFCURVE",
"218 902 OFFCURVE",
"218 860 CURVE SMOOTH",
"218 852 OFFCURVE",
"222 847 OFFCURVE",
"229 847 CURVE SMOOTH",
"243 847 OFFCURVE",
"302 871 OFFCURVE",
"348 898 CURVE",
"394 871 OFFCURVE",
"454 847 OFFCURVE",
"468 847 CURVE SMOOTH"
);
}
);
};
components = (
{
name = E;
},
{
name = circumflexcomb.case;
transform = "{1, 0, 0, 1, -31, 0}";
}
);
layerId = "55D4233F-C61B-4F99-8E70-5BC40968EA26";
width = 667;
},
{
background = {
paths = (
{
closed = 1;
nodes = (
"494 830 OFFCURVE",
"497 842 OFFCURVE",
"497 851 CURVE SMOOTH",
"497 893 OFFCURVE",
"387 972 OFFCURVE",
"364 972 CURVE SMOOTH {name = hr01;}",
"346 972 OFFCURVE",
"232 897 OFFCURVE",
"232 844 CURVE SMOOTH",
"232 837 OFFCURVE",
"237 830 OFFCURVE",
"245 830 CURVE SMOOTH {name = hr02;}",
"260 830 OFFCURVE",
"318 851 OFFCURVE",
"364 880 CURVE",
"410 851 OFFCURVE",
"470 830 OFFCURVE",
"484 830 CURVE SMOOTH"
);
},
{
closed = 1;
nodes = (
"589 318 OFFCURVE",
"565 310 OFFCURVE",
"564 281 CURVE SMOOTH",
"562 237 OFFCURVE",
"555 162 OFFCURVE",
"551 121 CURVE SMOOTH",
"548 87 OFFCURVE",
"528 84 OFFCURVE",
"508 84 CURVE SMOOTH",
"230 84 LINE",
"230 377 LINE",
"268 378 OFFCURVE",
"280 379 OFFCURVE",
"318 379 CURVE SMOOTH",
"345 379 OFFCURVE",
"361 378 OFFCURVE",
"372 378 CURVE SMOOTH",
"410 378 OFFCURVE",
"420 331 OFFCURVE",
"420 310 CURVE SMOOTH",
"420 293 OFFCURVE",
"426 275 OFFCURVE",
"461 275 CURVE SMOOTH {name = hr03;}",
"488 275 OFFCURVE",
"503 285 OFFCURVE",
"503 308 CURVE SMOOTH",
"503 339 OFFCURVE",
"501 382 OFFCURVE",
"501 420 CURVE SMOOTH",
"501 458 OFFCURVE",
"503 493 OFFCURVE",
"503 531 CURVE SMOOTH",
"503 563 OFFCURVE",
"482 570 OFFCURVE",
"460 570 CURVE SMOOTH {name = hr04;}",
"432 570 OFFCURVE",
"418 553 OFFCURVE",
"418 533 CURVE SMOOTH",
"418 515 OFFCURVE",
"418 464 OFFCURVE",
"401 464 CURVE SMOOTH {name = hr05;}",
"391 464 OFFCURVE",
"346 461 OFFCURVE",
"318 461 CURVE SMOOTH {name = hr06;}",
"279 461 OFFCURVE",
"268 462 OFFCURVE",
"230 464 CURVE {name = hr07;}",
"230 737 LINE",
"482 737 LINE SMOOTH",
"504 737 OFFCURVE",
"519 733 OFFCURVE",
"519 709 CURVE SMOOTH",
"519 637 LINE SMOOTH",
"519 619 OFFCURVE",
"531 597 OFFCURVE",
"566 597 CURVE SMOOTH {name = hr08;}",
"595 597 OFFCURVE",
"607 607 OFFCURVE",
"607 643 CURVE SMOOTH",
"607 785 LINE SMOOTH",
"607 813 OFFCURVE",
"597 821 OFFCURVE",
"579 821 CURVE SMOOTH",
"461 821 OFFCURVE",
"451 819 OFFCURVE",
"352 819 CURVE SMOOTH",
"302 819 OFFCURVE",
"183 821 OFFCURVE",
"94 821 CURVE SMOOTH",
"52 821 OFFCURVE",
"37 815 OFFCURVE",
"37 781 CURVE SMOOTH",
"37 758 OFFCURVE",
"60 747 OFFCURVE",
"93 747 CURVE SMOOTH",
"121 747 OFFCURVE",
"132 747 OFFCURVE",
"132 708 CURVE SMOOTH",
"132 627 OFFCURVE",
"138 561 OFFCURVE",
"138 425 CURVE SMOOTH {name = hr09;}",
"138 242 OFFCURVE",
"136 237 OFFCURVE",
"136 109 CURVE SMOOTH",
"136 87 OFFCURVE",
"127 75 OFFCURVE",
"89 73 CURVE SMOOTH",
"61 72 OFFCURVE",
"38 62 OFFCURVE",
"38 33 CURVE SMOOTH",
"38 11 OFFCURVE",
"51 0 OFFCURVE",
"86 0 CURVE SMOOTH",
"167 0 OFFCURVE",
"275 2 OFFCURVE",
"356 2 CURVE SMOOTH",
"437 2 OFFCURVE",
"512 0 OFFCURVE",
"593 0 CURVE SMOOTH",
"626 0 OFFCURVE",
"632 5 OFFCURVE",
"635 33 CURVE SMOOTH",
"644 114 OFFCURVE",
"651 262 OFFCURVE",
"651 285 CURVE SMOOTH",
"651 307 OFFCURVE",
"631 318 OFFCURVE",
"613 318 CURVE SMOOTH"
);
}
);
};
components = (
{
name = E;
},
{
name = circumflexcomb.case;
transform = "{1, 0, 0, 1, -19, 0}";
}
);
layerId = "CC5A7AC7-F03F-47C7-BE3A-F4FB7F44F819";
width = 684;
}
);
leftKerningGroup = _KERN_I_2ND;
rightKerningGroup = _KERN_E_1ST;
unicode = 00CA;
},
{
glyphname = Edieresis;
layers = (
{
background = {
paths = (
{
closed = 1;
nodes = (
"186 907 OFFCURVE",
"201 889 OFFCURVE",
"220 889 CURVE SMOOTH",
"238 889 OFFCURVE",
"261 899 OFFCURVE",
"261 935 CURVE SMOOTH",
"261 957 OFFCURVE",
"245 972 OFFCURVE",
"227 972 CURVE SMOOTH",
"198 972 OFFCURVE",
"186 945 OFFCURVE",
"186 931 CURVE SMOOTH"
);
},
{
closed = 1;
nodes = (
"393 893 OFFCURVE",
"408 875 OFFCURVE",
"427 875 CURVE SMOOTH {name = hr01;}",
"445 875 OFFCURVE",
"468 885 OFFCURVE",
"468 921 CURVE SMOOTH",
"468 943 OFFCURVE",
"452 958 OFFCURVE",
"434 958 CURVE SMOOTH",
"405 958 OFFCURVE",
"393 931 OFFCURVE",
"393 917 CURVE SMOOTH"
);
},
{
closed = 1;
nodes = (
"580 310 OFFCURVE",
"570 300 OFFCURVE",
"569 273 CURVE SMOOTH",
"567 218 OFFCURVE",
"559 109 OFFCURVE",
"556 73 CURVE SMOOTH",
"553 39 OFFCURVE",
"533 36 OFFCURVE",
"513 36 CURVE SMOOTH",
"184 36 LINE",
"184 401 LINE",
"222 402 OFFCURVE",
"260 403 OFFCURVE",
"298 403 CURVE SMOOTH",
"336 403 OFFCURVE",
"359 402 OFFCURVE",
"377 402 CURVE SMOOTH",
"417 402 OFFCURVE",
"425 345 OFFCURVE",
"425 309 CURVE SMOOTH {name = hr02;}",
"425 292 OFFCURVE",
"433 280 OFFCURVE",
"442 280 CURVE SMOOTH",
"447 280 OFFCURVE",
"457 284 OFFCURVE",
"457 307 CURVE SMOOTH",
"457 344 OFFCURVE",
"455 382 OFFCURVE",
"455 420 CURVE SMOOTH",
"455 458 OFFCURVE",
"457 495 OFFCURVE",
"457 533 CURVE SMOOTH",
"457 547 OFFCURVE",
"456 560 OFFCURVE",
"440 560 CURVE SMOOTH",
"423 560 OFFCURVE",
"423 534 OFFCURVE",
"423 530 CURVE SMOOTH",
"423 505 OFFCURVE",
"423 440 OFFCURVE",
"406 440 CURVE SMOOTH",
"394 440 OFFCURVE",
"336 437 OFFCURVE",
"298 437 CURVE SMOOTH {name = hr03;}",
"259 437 OFFCURVE",
"222 439 OFFCURVE",
"184 440 CURVE",
"184 785 LINE",
"487 785 LINE SMOOTH",
"500 785 OFFCURVE",
"524 782 OFFCURVE",
"524 757 CURVE SMOOTH",
"524 645 LINE SMOOTH",
"524 627 OFFCURVE",
"524 605 OFFCURVE",
"544 605 CURVE SMOOTH {name = hr04;}",
"559 605 OFFCURVE",
"561 626 OFFCURVE",
"561 651 CURVE SMOOTH",
"561 785 LINE SMOOTH {name = hr05;}",
"561 813 OFFCURVE",
"551 821 OFFCURVE",
"533 821 CURVE SMOOTH",
"415 821 OFFCURVE",
"405 819 OFFCURVE",
"306 819 CURVE SMOOTH",
"256 819 OFFCURVE",
"154 821 OFFCURVE",
"65 821 CURVE SMOOTH",
"45 821 OFFCURVE",
"24 818 OFFCURVE",
"24 804 CURVE SMOOTH",
"24 789 OFFCURVE",
"41 789 OFFCURVE",
"64 789 CURVE SMOOTH",
"91 789 OFFCURVE",
"137 789 OFFCURVE",
"137 750 CURVE SMOOTH",
"137 659 OFFCURVE",
"143 575 OFFCURVE",
"143 425 CURVE SMOOTH {name = hr06;}",
"143 224 OFFCURVE",
"141 205 OFFCURVE",
"141 64 CURVE SMOOTH",
"141 36 OFFCURVE",
"122 28 OFFCURVE",
"60 28 CURVE SMOOTH",
"34 28 OFFCURVE",
"21 25 OFFCURVE",
"21 11 CURVE SMOOTH",
"21 0 OFFCURVE",
"47 0 OFFCURVE",
"67 0 CURVE",
"148 1 OFFCURVE",
"229 2 OFFCURVE",
"310 2 CURVE SMOOTH {name = hr07;}",
"391 2 OFFCURVE",
"466 0 OFFCURVE",
"547 0 CURVE SMOOTH {name = hr08;}",
"574 0 OFFCURVE",
"586 0 OFFCURVE",
"589 33 CURVE SMOOTH",
"596 114 OFFCURVE",
"605 254 OFFCURVE",
"605 277 CURVE SMOOTH",
"605 293 OFFCURVE",
"604 310 OFFCURVE",
"586 310 CURVE SMOOTH"
);
}
);
};
components = (
{
name = E;
},
{
name = dieresiscomb.case;
transform = "{1, 0, 0, 1, -21, 0}";
}
);
layerId = master01;
width = 643;
},
{
background = {
components = (
{
name = E;
}
);
paths = (
{
closed = 1;
nodes = (
"188 883 OFFCURVE",
"210 859 OFFCURVE",
"237 859 CURVE SMOOTH",
"262 859 OFFCURVE",
"293 872 OFFCURVE",
"293 920 CURVE SMOOTH",
"293 951 OFFCURVE",
"270 972 OFFCURVE",
"244 972 CURVE SMOOTH",
"204 972 OFFCURVE",
"188 935 OFFCURVE",
"188 916 CURVE SMOOTH"
);
},
{
closed = 1;
nodes = (
"395 871 OFFCURVE",
"417 847 OFFCURVE",
"444 847 CURVE SMOOTH {name = hr01;}",
"469 847 OFFCURVE",
"500 860 OFFCURVE",
"500 908 CURVE SMOOTH",
"500 939 OFFCURVE",
"477 960 OFFCURVE",
"451 960 CURVE SMOOTH",
"411 960 OFFCURVE",
"395 923 OFFCURVE",
"395 904 CURVE SMOOTH"
);
}
);
};
components = (
{
name = E;
},
{
name = dieresiscomb.case;
transform = "{1, 0, 0, 1, -13, 0}";
}
);
layerId = "55D4233F-C61B-4F99-8E70-5BC40968EA26";
width = 667;
},
{
background = {
paths = (
{
closed = 1;
nodes = (
"189 869 OFFCURVE",
"216 841 OFFCURVE",
"249 841 CURVE SMOOTH",
"279 841 OFFCURVE",
"315 856 OFFCURVE",
"315 911 CURVE SMOOTH",
"315 947 OFFCURVE",
"288 972 OFFCURVE",
"256 972 CURVE SMOOTH",
"208 972 OFFCURVE",
"189 929 OFFCURVE",
"189 907 CURVE SMOOTH"
);
},
{
closed = 1;
nodes = (
"396 858 OFFCURVE",
"423 830 OFFCURVE",
"456 830 CURVE SMOOTH",
"486 830 OFFCURVE",
"522 845 OFFCURVE",
"522 900 CURVE SMOOTH",
"522 937 OFFCURVE",
"495 961 OFFCURVE",
"463 961 CURVE SMOOTH",
"415 961 OFFCURVE",
"396 918 OFFCURVE",
"396 896 CURVE SMOOTH"
);
},
{
closed = 1;
nodes = (
"589 318 OFFCURVE",
"565 310 OFFCURVE",
"564 281 CURVE SMOOTH",
"562 237 OFFCURVE",
"555 162 OFFCURVE",
"551 121 CURVE SMOOTH",
"548 87 OFFCURVE",
"528 84 OFFCURVE",
"508 84 CURVE SMOOTH",
"230 84 LINE {name = hr01;}",
"230 377 LINE",
"268 378 OFFCURVE",
"280 379 OFFCURVE",
"318 379 CURVE SMOOTH",
"345 379 OFFCURVE",
"361 378 OFFCURVE",
"372 378 CURVE SMOOTH",
"410 378 OFFCURVE",
"420 331 OFFCURVE",
"420 310 CURVE SMOOTH",
"420 293 OFFCURVE",
"426 275 OFFCURVE",
"461 275 CURVE SMOOTH {name = hr02;}",
"488 275 OFFCURVE",
"503 285 OFFCURVE",
"503 308 CURVE SMOOTH",
"503 339 OFFCURVE",
"501 382 OFFCURVE",
"501 420 CURVE SMOOTH",
"501 458 OFFCURVE",
"503 493 OFFCURVE",
"503 531 CURVE SMOOTH",
"503 563 OFFCURVE",
"482 570 OFFCURVE",
"460 570 CURVE SMOOTH {name = hr03;}",
"432 570 OFFCURVE",
"418 553 OFFCURVE",
"418 533 CURVE SMOOTH",
"418 515 OFFCURVE",
"418 464 OFFCURVE",
"401 464 CURVE SMOOTH {name = hr04;}",
"391 464 OFFCURVE",
"346 461 OFFCURVE",
"318 461 CURVE SMOOTH {name = hr05;}",
"279 461 OFFCURVE",
"268 462 OFFCURVE",
"230 464 CURVE {name = hr06;}",
"230 737 LINE",
"482 737 LINE SMOOTH",
"504 737 OFFCURVE",
"519 733 OFFCURVE",
"519 709 CURVE SMOOTH",
"519 637 LINE SMOOTH",
"519 619 OFFCURVE",
"531 597 OFFCURVE",
"566 597 CURVE SMOOTH {name = hr07;}",
"595 597 OFFCURVE",
"607 607 OFFCURVE",
"607 643 CURVE SMOOTH",
"607 785 LINE SMOOTH",
"607 813 OFFCURVE",
"597 821 OFFCURVE",
"579 821 CURVE SMOOTH",
"461 821 OFFCURVE",
"451 819 OFFCURVE",
"352 819 CURVE SMOOTH",
"302 819 OFFCURVE",
"183 821 OFFCURVE",
"94 821 CURVE SMOOTH",
"52 821 OFFCURVE",
"37 815 OFFCURVE",
"37 781 CURVE SMOOTH",
"37 758 OFFCURVE",
"60 747 OFFCURVE",
"93 747 CURVE SMOOTH",
"121 747 OFFCURVE",
"132 747 OFFCURVE",
"132 708 CURVE SMOOTH",
"132 627 OFFCURVE",
"138 561 OFFCURVE",
"138 425 CURVE SMOOTH {name = hr08;}",
"138 242 OFFCURVE",
"136 237 OFFCURVE",
"136 109 CURVE SMOOTH",
"136 87 OFFCURVE",
"127 75 OFFCURVE",
"89 73 CURVE SMOOTH",
"61 72 OFFCURVE",
"38 62 OFFCURVE",
"38 33 CURVE SMOOTH",
"38 11 OFFCURVE",
"51 0 OFFCURVE",
"86 0 CURVE SMOOTH",
"167 0 OFFCURVE",
"275 2 OFFCURVE",
"356 2 CURVE SMOOTH",
"437 2 OFFCURVE",
"512 0 OFFCURVE",
"593 0 CURVE SMOOTH",
"626 0 OFFCURVE",
"632 5 OFFCURVE",
"635 33 CURVE SMOOTH",
"644 114 OFFCURVE",
"651 262 OFFCURVE",
"651 285 CURVE SMOOTH",
"651 307 OFFCURVE",
"631 318 OFFCURVE",
"613 318 CURVE SMOOTH"
);
}
);
};
components = (
{
name = E;
},
{
name = dieresiscomb.case;
transform = "{1, 0, 0, 1, -44, 0}";
}
);
layerId = "CC5A7AC7-F03F-47C7-BE3A-F4FB7F44F819";
width = 684;
}
);
leftKerningGroup = _KERN_I_2ND;
rightKerningGroup = _KERN_E_1ST;
unicode = 00CB;
},
{
glyphname = Edotaccent;
layers = (
{
background = {
paths = (
{
closed = 1;
nodes = (
"580 310 OFFCURVE",
"570 300 OFFCURVE",
"569 273 CURVE SMOOTH",
"567 218 OFFCURVE",
"559 109 OFFCURVE",
"556 73 CURVE SMOOTH",
"553 39 OFFCURVE",
"533 36 OFFCURVE",
"513 36 CURVE SMOOTH",
"184 36 LINE",
"184 401 LINE",
"222 402 OFFCURVE",
"260 403 OFFCURVE",
"298 403 CURVE SMOOTH",
"336 403 OFFCURVE",
"359 402 OFFCURVE",
"377 402 CURVE SMOOTH",
"417 402 OFFCURVE",
"425 345 OFFCURVE",
"425 309 CURVE SMOOTH",
"425 292 OFFCURVE",
"433 280 OFFCURVE",
"442 280 CURVE SMOOTH",
"447 280 OFFCURVE",
"457 284 OFFCURVE",
"457 307 CURVE SMOOTH",
"457 344 OFFCURVE",
"455 382 OFFCURVE",
"455 420 CURVE SMOOTH",
"455 458 OFFCURVE",
"457 495 OFFCURVE",
"457 533 CURVE SMOOTH",
"457 547 OFFCURVE",
"456 560 OFFCURVE",
"440 560 CURVE SMOOTH",
"423 560 OFFCURVE",
"423 534 OFFCURVE",
"423 530 CURVE SMOOTH",
"423 505 OFFCURVE",
"423 440 OFFCURVE",
"406 440 CURVE SMOOTH",
"394 440 OFFCURVE",
"336 437 OFFCURVE",
"298 437 CURVE SMOOTH {name = hr01;}",
"259 437 OFFCURVE",
"222 439 OFFCURVE",
"184 440 CURVE",
"184 785 LINE",
"487 785 LINE SMOOTH",
"500 785 OFFCURVE",
"524 782 OFFCURVE",
"524 757 CURVE SMOOTH",
"524 645 LINE SMOOTH",
"524 627 OFFCURVE",
"524 605 OFFCURVE",
"544 605 CURVE SMOOTH {name = hr02;}",
"559 605 OFFCURVE",
"561 626 OFFCURVE",
"561 651 CURVE SMOOTH",
"561 785 LINE SMOOTH {name = hr03;}",
"561 813 OFFCURVE",
"551 821 OFFCURVE",
"533 821 CURVE SMOOTH",
"415 821 OFFCURVE",
"405 819 OFFCURVE",
"306 819 CURVE SMOOTH",
"256 819 OFFCURVE",
"154 821 OFFCURVE",
"65 821 CURVE SMOOTH",
"45 821 OFFCURVE",
"24 818 OFFCURVE",
"24 804 CURVE SMOOTH",
"24 789 OFFCURVE",
"41 789 OFFCURVE",
"64 789 CURVE SMOOTH",
"91 789 OFFCURVE",
"137 789 OFFCURVE",
"137 750 CURVE SMOOTH",
"137 659 OFFCURVE",
"143 575 OFFCURVE",
"143 425 CURVE SMOOTH {name = hr04;}",
"143 224 OFFCURVE",
"141 205 OFFCURVE",
"141 64 CURVE SMOOTH",
"141 36 OFFCURVE",
"122 28 OFFCURVE",
"60 28 CURVE SMOOTH",
"34 28 OFFCURVE",
"21 25 OFFCURVE",
"21 11 CURVE SMOOTH",
"21 0 OFFCURVE",
"47 0 OFFCURVE",
"67 0 CURVE",
"148 1 OFFCURVE",
"229 2 OFFCURVE",
"310 2 CURVE SMOOTH {name = hr05;}",
"391 2 OFFCURVE",
"466 0 OFFCURVE",
"547 0 CURVE SMOOTH {name = hr06;}",
"574 0 OFFCURVE",
"586 0 OFFCURVE",
"589 33 CURVE SMOOTH",
"596 114 OFFCURVE",
"605 254 OFFCURVE",
"605 277 CURVE SMOOTH",
"605 293 OFFCURVE",
"604 310 OFFCURVE",
"586 310 CURVE SMOOTH"
);
},
{
closed = 1;
nodes = (
"291 907 OFFCURVE",
"306 889 OFFCURVE",
"325 889 CURVE SMOOTH",
"343 889 OFFCURVE",
"366 899 OFFCURVE",
"366 935 CURVE SMOOTH",
"366 957 OFFCURVE",
"350 972 OFFCURVE",
"332 972 CURVE SMOOTH",
"303 972 OFFCURVE",
"291 945 OFFCURVE",
"291 931 CURVE SMOOTH"
);
}
);
};
components = (
{
name = E;
},
{
name = dotaccentcomb.case;
transform = "{1, 0, 0, 1, -23, 0}";
}
);
layerId = master01;
width = 643;
},
{
background = {
components = (
{
name = E;
},
{
name = dotaccentcomb;
transform = "{1, 0, 0, 1, 274, 336}";
}
);
};
components = (
{
name = E;
},
{
name = dotaccentcomb.case;
transform = "{1, 0, 0, 1, -9, 0}";
}
);
layerId = "55D4233F-C61B-4F99-8E70-5BC40968EA26";
width = 667;
},
{
background = {
paths = (
{
closed = 1;
nodes = (
"589 318 OFFCURVE",
"565 310 OFFCURVE",
"564 281 CURVE SMOOTH",
"562 237 OFFCURVE",
"555 162 OFFCURVE",
"551 121 CURVE SMOOTH",
"548 87 OFFCURVE",
"528 84 OFFCURVE",
"508 84 CURVE SMOOTH",
"230 84 LINE",
"230 377 LINE",
"268 378 OFFCURVE",
"280 379 OFFCURVE",
"318 379 CURVE SMOOTH",
"345 379 OFFCURVE",
"361 378 OFFCURVE",
"372 378 CURVE SMOOTH",
"410 378 OFFCURVE",
"420 331 OFFCURVE",
"420 310 CURVE SMOOTH",
"420 293 OFFCURVE",
"426 275 OFFCURVE",
"461 275 CURVE SMOOTH {name = hr01;}",
"488 275 OFFCURVE",
"503 285 OFFCURVE",
"503 308 CURVE SMOOTH",
"503 339 OFFCURVE",
"501 382 OFFCURVE",
"501 420 CURVE SMOOTH",
"501 458 OFFCURVE",
"503 493 OFFCURVE",
"503 531 CURVE SMOOTH",
"503 563 OFFCURVE",
"482 570 OFFCURVE",
"460 570 CURVE SMOOTH {name = hr02;}",
"432 570 OFFCURVE",
"418 553 OFFCURVE",
"418 533 CURVE SMOOTH",
"418 515 OFFCURVE",
"418 464 OFFCURVE",
"401 464 CURVE SMOOTH {name = hr03;}",
"391 464 OFFCURVE",
"346 461 OFFCURVE",
"318 461 CURVE SMOOTH {name = hr04;}",
"279 461 OFFCURVE",
"268 462 OFFCURVE",
"230 464 CURVE {name = hr05;}",
"230 737 LINE",
"482 737 LINE SMOOTH",
"504 737 OFFCURVE",
"519 733 OFFCURVE",
"519 709 CURVE SMOOTH",
"519 637 LINE SMOOTH",
"519 619 OFFCURVE",
"531 597 OFFCURVE",
"566 597 CURVE SMOOTH {name = hr06;}",
"595 597 OFFCURVE",
"607 607 OFFCURVE",
"607 643 CURVE SMOOTH",
"607 785 LINE SMOOTH",
"607 813 OFFCURVE",
"597 821 OFFCURVE",
"579 821 CURVE SMOOTH",
"461 821 OFFCURVE",
"451 819 OFFCURVE",
"352 819 CURVE SMOOTH",
"302 819 OFFCURVE",
"183 821 OFFCURVE",
"94 821 CURVE SMOOTH",
"52 821 OFFCURVE",
"37 815 OFFCURVE",
"37 781 CURVE SMOOTH",
"37 758 OFFCURVE",
"60 747 OFFCURVE",
"93 747 CURVE SMOOTH",
"121 747 OFFCURVE",
"132 747 OFFCURVE",
"132 708 CURVE SMOOTH",
"132 627 OFFCURVE",
"138 561 OFFCURVE",
"138 425 CURVE SMOOTH {name = hr07;}",
"138 242 OFFCURVE",
"136 237 OFFCURVE",
"136 109 CURVE SMOOTH",
"136 87 OFFCURVE",
"127 75 OFFCURVE",
"89 73 CURVE SMOOTH",
"61 72 OFFCURVE",
"38 62 OFFCURVE",
"38 33 CURVE SMOOTH",
"38 11 OFFCURVE",
"51 0 OFFCURVE",
"86 0 CURVE SMOOTH",
"167 0 OFFCURVE",
"275 2 OFFCURVE",
"356 2 CURVE SMOOTH",
"437 2 OFFCURVE",
"512 0 OFFCURVE",
"593 0 CURVE SMOOTH",
"626 0 OFFCURVE",
"632 5 OFFCURVE",
"635 33 CURVE SMOOTH",
"644 114 OFFCURVE",
"651 262 OFFCURVE",
"651 285 CURVE SMOOTH",
"651 307 OFFCURVE",
"631 318 OFFCURVE",
"613 318 CURVE SMOOTH"
);
},
{
closed = 1;
nodes = (
"288 863 OFFCURVE",
"314 840 OFFCURVE",
"347 840 CURVE SMOOTH",
"377 840 OFFCURVE",
"414 855 OFFCURVE",
"414 910 CURVE SMOOTH",
"414 946 OFFCURVE",
"386 971 OFFCURVE",
"354 971 CURVE SMOOTH",
"306 971 OFFCURVE",
"288 933 OFFCURVE",
"288 906 CURVE SMOOTH"
);
}
);
};
components = (
{
name = E;
},
{
name = dotaccentcomb.case;
transform = "{1, 0, 0, 1, 4, 0}";
}
);
layerId = "CC5A7AC7-F03F-47C7-BE3A-F4FB7F44F819";
width = 684;
}
);
leftKerningGroup = _KERN_I_2ND;
rightKerningGroup = _KERN_E_1ST;
unicode = 0116;
},
{
glyphname = Egrave;
layers = (
{
background = {
paths = (
{
closed = 1;
nodes = (
"269 929 OFFCURVE",
"356 875 OFFCURVE",
"375 875 CURVE SMOOTH",
"380 875 OFFCURVE",
"383 877 OFFCURVE",
"383 886 CURVE SMOOTH",
"383 911 OFFCURVE",
"307 972 OFFCURVE",
"288 972 CURVE SMOOTH",
"277 972 OFFCURVE",
"269 969 OFFCURVE",
"269 950 CURVE SMOOTH"
);
},
{
closed = 1;
nodes = (
"580 310 OFFCURVE",
"570 300 OFFCURVE",
"569 273 CURVE SMOOTH",
"567 218 OFFCURVE",
"559 109 OFFCURVE",
"556 73 CURVE SMOOTH",
"553 39 OFFCURVE",
"533 36 OFFCURVE",
"513 36 CURVE SMOOTH",
"184 36 LINE",
"184 401 LINE",
"222 402 OFFCURVE",
"260 403 OFFCURVE",
"298 403 CURVE SMOOTH",
"336 403 OFFCURVE",
"359 402 OFFCURVE",
"377 402 CURVE SMOOTH",
"417 402 OFFCURVE",
"425 345 OFFCURVE",
"425 309 CURVE SMOOTH",
"425 292 OFFCURVE",
"433 280 OFFCURVE",
"442 280 CURVE SMOOTH",
"447 280 OFFCURVE",
"457 284 OFFCURVE",
"457 307 CURVE SMOOTH",
"457 344 OFFCURVE",
"455 382 OFFCURVE",
"455 420 CURVE SMOOTH",
"455 458 OFFCURVE",
"457 495 OFFCURVE",
"457 533 CURVE SMOOTH",
"457 547 OFFCURVE",
"456 560 OFFCURVE",
"440 560 CURVE SMOOTH",
"423 560 OFFCURVE",
"423 534 OFFCURVE",
"423 530 CURVE SMOOTH",
"423 505 OFFCURVE",
"423 440 OFFCURVE",
"406 440 CURVE SMOOTH",
"394 440 OFFCURVE",
"336 437 OFFCURVE",
"298 437 CURVE SMOOTH {name = hr01;}",
"259 437 OFFCURVE",
"222 439 OFFCURVE",
"184 440 CURVE",
"184 785 LINE",
"487 785 LINE SMOOTH",
"500 785 OFFCURVE",
"524 782 OFFCURVE",
"524 757 CURVE SMOOTH",
"524 645 LINE SMOOTH",
"524 627 OFFCURVE",
"524 605 OFFCURVE",
"544 605 CURVE SMOOTH {name = hr02;}",
"559 605 OFFCURVE",
"561 626 OFFCURVE",
"561 651 CURVE SMOOTH",
"561 785 LINE SMOOTH {name = hr03;}",
"561 813 OFFCURVE",
"551 821 OFFCURVE",
"533 821 CURVE SMOOTH",
"415 821 OFFCURVE",
"405 819 OFFCURVE",
"306 819 CURVE SMOOTH",
"256 819 OFFCURVE",
"154 821 OFFCURVE",
"65 821 CURVE SMOOTH",
"45 821 OFFCURVE",
"24 818 OFFCURVE",
"24 804 CURVE SMOOTH",
"24 789 OFFCURVE",
"41 789 OFFCURVE",
"64 789 CURVE SMOOTH",
"91 789 OFFCURVE",
"137 789 OFFCURVE",
"137 750 CURVE SMOOTH",
"137 659 OFFCURVE",
"143 575 OFFCURVE",
"143 425 CURVE SMOOTH {name = hr04;}",
"143 224 OFFCURVE",
"141 205 OFFCURVE",
"141 64 CURVE SMOOTH",
"141 36 OFFCURVE",
"122 28 OFFCURVE",
"60 28 CURVE SMOOTH",
"34 28 OFFCURVE",
"21 25 OFFCURVE",
"21 11 CURVE SMOOTH",
"21 0 OFFCURVE",
"47 0 OFFCURVE",
"67 0 CURVE",
"148 1 OFFCURVE",
"229 2 OFFCURVE",
"310 2 CURVE SMOOTH {name = hr05;}",
"391 2 OFFCURVE",
"466 0 OFFCURVE",
"547 0 CURVE SMOOTH {name = hr06;}",
"574 0 OFFCURVE",
"586 0 OFFCURVE",
"589 33 CURVE SMOOTH",
"596 114 OFFCURVE",
"605 254 OFFCURVE",
"605 277 CURVE SMOOTH",
"605 293 OFFCURVE",
"604 310 OFFCURVE",
"586 310 CURVE SMOOTH"
);
}
);
};
components = (
{
name = E;
},
{
name = gravecomb.case;
transform = "{1, 0, 0, 1, -20, 0}";
}
);
layerId = master01;
width = 643;
},
{
background = {
components = (
{
name = E;
}
);
paths = (
{
closed = 1;
nodes = (
"275 909 OFFCURVE",
"361 854 OFFCURVE",
"389 854 CURVE SMOOTH",
"403 854 OFFCURVE",
"413 864 OFFCURVE",
"413 877 CURVE SMOOTH",
"413 904 OFFCURVE",
"337 972 OFFCURVE",
"307 972 CURVE SMOOTH",
"287 972 OFFCURVE",
"275 959 OFFCURVE",
"275 941 CURVE SMOOTH"
);
}
);
};
components = (
{
name = E;
},
{
name = gravecomb.case;
transform = "{1, 0, 0, 1, -13, 0}";
}
);
layerId = "55D4233F-C61B-4F99-8E70-5BC40968EA26";
width = 667;
},
{
background = {
paths = (
{
closed = 1;
nodes = (
"279 897 OFFCURVE",
"365 841 OFFCURVE",
"399 841 CURVE SMOOTH",
"419 841 OFFCURVE",
"434 856 OFFCURVE",
"434 872 CURVE SMOOTH",
"434 900 OFFCURVE",
"358 972 OFFCURVE",
"320 972 CURVE SMOOTH",
"294 972 OFFCURVE",
"279 953 OFFCURVE",
"279 936 CURVE SMOOTH"
);
},
{
closed = 1;
nodes = (
"589 318 OFFCURVE",
"565 310 OFFCURVE",
"564 281 CURVE SMOOTH",
"562 237 OFFCURVE",
"555 162 OFFCURVE",
"551 121 CURVE SMOOTH",
"548 87 OFFCURVE",
"528 84 OFFCURVE",
"508 84 CURVE SMOOTH",
"230 84 LINE",
"230 377 LINE",
"268 378 OFFCURVE",
"280 379 OFFCURVE",
"318 379 CURVE SMOOTH",
"345 379 OFFCURVE",
"361 378 OFFCURVE",
"372 378 CURVE SMOOTH",
"410 378 OFFCURVE",
"420 331 OFFCURVE",
"420 310 CURVE SMOOTH {name = hr01;}",
"420 293 OFFCURVE",
"426 275 OFFCURVE",
"461 275 CURVE SMOOTH",
"488 275 OFFCURVE",
"503 285 OFFCURVE",
"503 308 CURVE SMOOTH",
"503 339 OFFCURVE",
"501 382 OFFCURVE",
"501 420 CURVE SMOOTH",
"501 458 OFFCURVE",
"503 493 OFFCURVE",
"503 531 CURVE SMOOTH",
"503 563 OFFCURVE",
"482 570 OFFCURVE",
"460 570 CURVE SMOOTH {name = hr02;}",
"432 570 OFFCURVE",
"418 553 OFFCURVE",
"418 533 CURVE SMOOTH",
"418 515 OFFCURVE",
"418 464 OFFCURVE",
"401 464 CURVE SMOOTH {name = hr03;}",
"391 464 OFFCURVE",
"346 461 OFFCURVE",
"318 461 CURVE SMOOTH {name = hr04;}",
"279 461 OFFCURVE",
"268 462 OFFCURVE",
"230 464 CURVE {name = hr05;}",
"230 737 LINE",
"482 737 LINE SMOOTH",
"504 737 OFFCURVE",
"519 733 OFFCURVE",
"519 709 CURVE SMOOTH",
"519 637 LINE SMOOTH",
"519 619 OFFCURVE",
"531 597 OFFCURVE",
"566 597 CURVE SMOOTH {name = hr06;}",
"595 597 OFFCURVE",
"607 607 OFFCURVE",
"607 643 CURVE SMOOTH",
"607 785 LINE SMOOTH",
"607 813 OFFCURVE",
"597 821 OFFCURVE",
"579 821 CURVE SMOOTH",
"461 821 OFFCURVE",
"451 819 OFFCURVE",
"352 819 CURVE SMOOTH",
"302 819 OFFCURVE",
"183 821 OFFCURVE",
"94 821 CURVE SMOOTH",
"52 821 OFFCURVE",
"37 815 OFFCURVE",
"37 781 CURVE SMOOTH",
"37 758 OFFCURVE",
"60 747 OFFCURVE",
"93 747 CURVE SMOOTH",
"121 747 OFFCURVE",
"132 747 OFFCURVE",
"132 708 CURVE SMOOTH",
"132 627 OFFCURVE",
"138 561 OFFCURVE",
"138 425 CURVE SMOOTH {name = hr07;}",
"138 242 OFFCURVE",
"136 237 OFFCURVE",
"136 109 CURVE SMOOTH",
"136 87 OFFCURVE",
"127 75 OFFCURVE",
"89 73 CURVE SMOOTH",
"61 72 OFFCURVE",
"38 62 OFFCURVE",
"38 33 CURVE SMOOTH",
"38 11 OFFCURVE",
"51 0 OFFCURVE",
"86 0 CURVE SMOOTH",
"167 0 OFFCURVE",
"275 2 OFFCURVE",
"356 2 CURVE SMOOTH",
"437 2 OFFCURVE",
"512 0 OFFCURVE",
"593 0 CURVE SMOOTH",
"626 0 OFFCURVE",
"632 5 OFFCURVE",
"635 33 CURVE SMOOTH",
"644 114 OFFCURVE",
"651 262 OFFCURVE",
"651 285 CURVE SMOOTH",
"651 307 OFFCURVE",
"631 318 OFFCURVE",
"613 318 CURVE SMOOTH"
);
}
);
};
components = (
{
name = E;
},
{
name = gravecomb.case;
transform = "{1, 0, 0, 1, -51, 0}";
}
);
layerId = "CC5A7AC7-F03F-47C7-BE3A-F4FB7F44F819";
width = 684;
}
);
leftKerningGroup = _KERN_I_2ND;
rightKerningGroup = _KERN_E_1ST;
unicode = 00C8;
},
